STARTFONT 2.1
COMMENT 
COMMENT Shinonome 14dot font for JISX 0208, 1983/1990
COMMENT 
COMMENT The original is k14goth by
COMMENT   Yasuyuki Furukawa <Furukawa.Yasuyuki@fujixerox.co.jp>, 2000.
COMMENT   (Public Domain)
COMMENT 
COMMENT > Donated by H. Kagotani <kagotani@cs.titech.ac.jp>;
COMMENT >   public domainfont from Japan
COMMENT > JIS X 0208-1990 design is made by
COMMENT >   TAKADA Toshihiro <takada@seraph.ntt.jp>.
COMMENT > Modified for gothic like by Yasuyuki Furukawa
COMMENT 
COMMENT Modified and Maintained by /efont/.
COMMENT 
COMMENT (c) /efont/ -- Efont Open Laboratory 2001
COMMENT http://openlab.ring.gr.jp/efont/
COMMENT 
FONT -Shinonome-Gothic-Medium-R-Normal--14-130-75-75-C-140-JISX0208.1990-0
SIZE 14 75 75
FONTBOUNDINGBOX 14 14 0 -2
STARTPROPERTIES 20
FONTNAME_REGISTRY ""
FOUNDRY "Shinonome"
FAMILY_NAME "Gothic"
WEIGHT_NAME "Medium"
SLANT "R"
SETWIDTH_NAME "Normal"
ADD_STYLE_NAME ""
PIXEL_SIZE 14
POINT_SIZE 130
RESOLUTION_X 75
RESOLUTION_Y 75
SPACING "C"
AVERAGE_WIDTH 140
CHARSET_REGISTRY "JISX0208.1990"
CHARSET_ENCODING "0"
DEFAULT_CHAR 8481
FONT_DESCENT 2
FONT_ASCENT 12
COPYRIGHT "Public domain font.  Share and enjoy."
XMBDFED_INFO "Edited with xmbdfed 4.4."
ENDPROPERTIES
CHARS 6879
STARTCHAR 2121
ENCODING 8481
SWIDTH 960 0
DWIDTH 14 0
BBX 14 14 0 -2
BITMAP
0000
0000
0000
0000
0000
0000
0000
0000
0000
0000
0000
0000
0000
0000
ENDCHAR
STARTCHAR 2122
ENCODING 8482
SWIDTH 960 0
DWIDTH 14 0
BBX 14 14 0 -2
BITMAP
0000
0000
0000
0000
0000
0000
0000
0000
0000
0000
4000
2000
1000
1000
ENDCHAR
STARTCHAR 2123
ENCODING 8483
SWIDTH 960 0
DWIDTH 14 0
BBX 14 14 0 -2
BITMAP
0000
0000
0000
0000
0000
0000
0000
0000
0000
0000
3000
4800
4800
3000
ENDCHAR
STARTCHAR 2124
ENCODING 8484
SWIDTH 960 0
DWIDTH 14 0
BBX 14 14 0 -2
BITMAP
0000
0000
0000
0000
0000
0000
0000
0000
0000
0000
6000
6000
2000
4000
ENDCHAR
STARTCHAR 2125
ENCODING 8485
SWIDTH 960 0
DWIDTH 14 0
BBX 14 14 0 -2
BITMAP
0000
0000
0000
0000
0000
0000
0000
0000
0000
0000
0000
6000
6000
0000
ENDCHAR
STARTCHAR 2126
ENCODING 8486
SWIDTH 960 0
DWIDTH 14 0
BBX 14 14 0 -2
BITMAP
0000
0000
0000
0000
0000
0200
0700
0200
0000
0000
0000
0000
0000
0000
ENDCHAR
STARTCHAR 2127
ENCODING 8487
SWIDTH 960 0
DWIDTH 14 0
BBX 14 14 0 -2
BITMAP
0000
0000
0000
0300
0300
0000
0000
0000
0300
0300
0000
0000
0000
0000
ENDCHAR
STARTCHAR 2128
ENCODING 8488
SWIDTH 960 0
DWIDTH 14 0
BBX 14 14 0 -2
BITMAP
0000
0000
0000
0300
0300
0000
0000
0000
0300
0300
0100
0200
0000
0000
ENDCHAR
STARTCHAR 2129
ENCODING 8489
SWIDTH 960 0
DWIDTH 14 0
BBX 14 14 0 -2
BITMAP
0000
0780
0840
1020
1020
1020
0040
0080
0100
0100
0100
0000
0300
0300
ENDCHAR
STARTCHAR 212a
ENCODING 8490
SWIDTH 960 0
DWIDTH 14 0
BBX 14 14 0 -2
BITMAP
0200
0300
0300
0300
0300
0200
0200
0200
0200
0200
0000
0200
0700
0200
ENDCHAR
STARTCHAR 212b
ENCODING 8491
SWIDTH 960 0
DWIDTH 14 0
BBX 14 14 0 -2
BITMAP
1000
4800
2000
0000
0000
0000
0000
0000
0000
0000
0000
0000
0000
0000
ENDCHAR
STARTCHAR 212c
ENCODING 8492
SWIDTH 960 0
DWIDTH 14 0
BBX 14 14 0 -2
BITMAP
3000
4800
4800
3000
0000
0000
0000
0000
0000
0000
0000
0000
0000
0000
ENDCHAR
STARTCHAR 212d
ENCODING 8493
SWIDTH 960 0
DWIDTH 14 0
BBX 14 14 0 -2
BITMAP
0180
0300
0400
0000
0000
0000
0000
0000
0000
0000
0000
0000
0000
0000
ENDCHAR
STARTCHAR 212e
ENCODING 8494
SWIDTH 960 0
DWIDTH 14 0
BBX 14 14 0 -2
BITMAP
0600
0300
0080
0000
0000
0000
0000
0000
0000
0000
0000
0000
0000
0000
ENDCHAR
STARTCHAR 212f
ENCODING 8495
SWIDTH 960 0
DWIDTH 14 0
BBX 14 14 0 -2
BITMAP
18c0
18c0
0000
0000
0000
0000
0000
0000
0000
0000
0000
0000
0000
0000
ENDCHAR
STARTCHAR 2130
ENCODING 8496
SWIDTH 960 0
DWIDTH 14 0
BBX 14 14 0 -2
BITMAP
0200
0500
0880
1040
0000
0000
0000
0000
0000
0000
0000
0000
0000
0000
ENDCHAR
STARTCHAR 2131
ENCODING 8497
SWIDTH 960 0
DWIDTH 14 0
BBX 14 14 0 -2
BITMAP
fffc
0000
0000
0000
0000
0000
0000
0000
0000
0000
0000
0000
0000
0000
ENDCHAR
STARTCHAR 2132
ENCODING 8498
SWIDTH 960 0
DWIDTH 14 0
BBX 14 14 0 -2
BITMAP
0000
0000
0000
0000
0000
0000
0000
0000
0000
0000
0000
0000
0000
fffc
ENDCHAR
STARTCHAR 2133
ENCODING 8499
SWIDTH 960 0
DWIDTH 14 0
BBX 14 14 0 -2
BITMAP
0000
0000
0000
0000
1800
0600
0100
0080
0040
0000
0000
0000
0000
0000
ENDCHAR
STARTCHAR 2134
ENCODING 8500
SWIDTH 960 0
DWIDTH 14 0
BBX 14 14 0 -2
BITMAP
0000
0000
0040
0120
1880
0600
0100
0080
0040
0000
0000
0000
0000
0000
ENDCHAR
STARTCHAR 2135
ENCODING 8501
SWIDTH 960 0
DWIDTH 14 0
BBX 14 14 0 -2
BITMAP
0000
0000
0000
0000
0c00
0300
0080
00c0
0100
0000
0000
0000
0000
0000
ENDCHAR
STARTCHAR 2136
ENCODING 8502
SWIDTH 960 0
DWIDTH 14 0
BBX 14 14 0 -2
BITMAP
0000
0000
0040
0120
1880
0600
0100
0180
0200
0000
0000
0000
0000
0000
ENDCHAR
STARTCHAR 2137
ENCODING 8503
SWIDTH 960 0
DWIDTH 14 0
BBX 14 14 0 -2
BITMAP
0000
0000
0000
0000
0440
0440
0440
0880
0880
1100
0000
0000
0000
0000
ENDCHAR
STARTCHAR 2138
ENCODING 8504
SWIDTH 960 0
DWIDTH 14 0
BBX 14 14 0 -2
BITMAP
0200
0200
0500
0880
1040
2020
c018
1fc0
0200
0200
0200
0200
fff8
0000
ENDCHAR
STARTCHAR 2139
ENCODING 8505
SWIDTH 960 0
DWIDTH 14 0
BBX 14 14 0 -2
BITMAP
0000
0000
0400
0400
07e0
0840
0840
1080
2500
0300
0080
0040
0000
0000
ENDCHAR
STARTCHAR 213a
ENCODING 8506
SWIDTH 960 0
DWIDTH 14 0
BBX 14 14 0 -2
BITMAP
0000
0000
0010
0010
0020
0640
0980
0900
1280
1400
1800
1000
2000
0000
ENDCHAR
STARTCHAR 213b
ENCODING 8507
SWIDTH 960 0
DWIDTH 14 0
BBX 14 14 0 -2
BITMAP
0000
0f80
3060
4010
4010
8008
8008
8008
8008
8008
4010
4010
3060
0f80
ENDCHAR
STARTCHAR 213c
ENCODING 8508
SWIDTH 960 0
DWIDTH 14 0
BBX 14 14 0 -2
BITMAP
0000
0000
0000
0000
0000
0000
4000
3ff0
0000
0000
0000
0000
0000
0000
ENDCHAR
STARTCHAR 213d
ENCODING 8509
SWIDTH 960 0
DWIDTH 14 0
BBX 14 14 0 -2
BITMAP
0000
0000
0000
0000
0000
0000
fffc
0000
0000
0000
0000
0000
0000
0000
ENDCHAR
STARTCHAR 213e
ENCODING 8510
SWIDTH 960 0
DWIDTH 14 0
BBX 14 14 0 -2
BITMAP
0000
0000
0000
0000
0000
0000
0f80
0000
0000
0000
0000
0000
0000
0000
ENDCHAR
STARTCHAR 213f
ENCODING 8511
SWIDTH 960 0
DWIDTH 14 0
BBX 14 14 0 -2
BITMAP
0004
0008
0010
0020
0040
0080
0100
0200
0400
0800
1000
2000
4000
8000
ENDCHAR
STARTCHAR 2140
ENCODING 8512
SWIDTH 960 0
DWIDTH 14 0
BBX 14 14 0 -2
BITMAP
8000
4000
2000
1000
0800
0400
0200
0100
0080
0040
0020
0010
0008
0004
ENDCHAR
STARTCHAR 2141
ENCODING 8513
SWIDTH 960 0
DWIDTH 14 0
BBX 14 14 0 -2
BITMAP
0000
0000
0000
0000
0000
1c00
2208
4110
00e0
0000
0000
0000
0000
0000
ENDCHAR
STARTCHAR 2142
ENCODING 8514
SWIDTH 960 0
DWIDTH 14 0
BBX 14 14 0 -2
BITMAP
0480
0480
0480
0480
0480
0480
0480
0480
0480
0480
0480
0480
0480
0480
ENDCHAR
STARTCHAR 2143
ENCODING 8515
SWIDTH 960 0
DWIDTH 14 0
BBX 14 14 0 -2
BITMAP
0200
0200
0200
0200
0200
0200
0200
0200
0200
0200
0200
0200
0200
0200
ENDCHAR
STARTCHAR 2144
ENCODING 8516
SWIDTH 960 0
DWIDTH 14 0
BBX 14 14 0 -2
BITMAP
0000
0000
0000
0000
0000
0000
3330
3330
0000
0000
0000
0000
0000
0000
ENDCHAR
STARTCHAR 2145
ENCODING 8517
SWIDTH 960 0
DWIDTH 14 0
BBX 14 14 0 -2
BITMAP
0000
0000
0000
0000
0000
0000
1040
1040
0000
0000
0000
0000
0000
0000
ENDCHAR
STARTCHAR 2146
ENCODING 8518
SWIDTH 960 0
DWIDTH 14 0
BBX 14 14 0 -2
BITMAP
0008
0010
0020
0020
0030
0000
0000
0000
0000
0000
0000
0000
0000
0000
ENDCHAR
STARTCHAR 2147
ENCODING 8519
SWIDTH 960 0
DWIDTH 14 0
BBX 14 14 0 -2
BITMAP
3000
1000
1000
2000
4000
0000
0000
0000
0000
0000
0000
0000
0000
0000
ENDCHAR
STARTCHAR 2148
ENCODING 8520
SWIDTH 960 0
DWIDTH 14 0
BBX 14 14 0 -2
BITMAP
0088
0110
0220
0220
0330
0000
0000
0000
0000
0000
0000
0000
0000
0000
ENDCHAR
STARTCHAR 2149
ENCODING 8521
SWIDTH 960 0
DWIDTH 14 0
BBX 14 14 0 -2
BITMAP
3300
1100
1100
2200
4400
0000
0000
0000
0000
0000
0000
0000
0000
0000
ENDCHAR
STARTCHAR 214a
ENCODING 8522
SWIDTH 960 0
DWIDTH 14 0
BBX 14 14 0 -2
BITMAP
0008
0010
0020
0040
0040
0080
0080
0080
0080
0040
0040
0020
0010
0008
ENDCHAR
STARTCHAR 214b
ENCODING 8523
SWIDTH 960 0
DWIDTH 14 0
BBX 14 14 0 -2
BITMAP
4000
2000
1000
0800
0800
0400
0400
0400
0400
0800
0800
1000
2000
4000
ENDCHAR
STARTCHAR 214c
ENCODING 8524
SWIDTH 960 0
DWIDTH 14 0
BBX 14 14 0 -2
BITMAP
0008
0010
0020
0040
0040
0040
0040
0040
0040
0040
0040
0020
0010
0008
ENDCHAR
STARTCHAR 214d
ENCODING 8525
SWIDTH 960 0
DWIDTH 14 0
BBX 14 14 0 -2
BITMAP
4000
2000
1000
0800
0800
0800
0800
0800
0800
0800
0800
1000
2000
4000
ENDCHAR
STARTCHAR 214e
ENCODING 8526
SWIDTH 960 0
DWIDTH 14 0
BBX 14 14 0 -2
BITMAP
00f0
0080
0080
0080
0080
0080
0080
0080
0080
0080
0080
0080
0080
00f0
ENDCHAR
STARTCHAR 214f
ENCODING 8527
SWIDTH 960 0
DWIDTH 14 0
BBX 14 14 0 -2
BITMAP
3c00
0400
0400
0400
0400
0400
0400
0400
0400
0400
0400
0400
0400
3c00
ENDCHAR
STARTCHAR 2150
ENCODING 8528
SWIDTH 960 0
DWIDTH 14 0
BBX 14 14 0 -2
BITMAP
0018
0020
0040
0040
0040
0040
0180
0040
0040
0040
0040
0040
0020
0018
ENDCHAR
STARTCHAR 2151
ENCODING 8529
SWIDTH 960 0
DWIDTH 14 0
BBX 14 14 0 -2
BITMAP
6000
1000
0800
0800
0800
0800
0600
0800
0800
0800
0800
0800
1000
6000
ENDCHAR
STARTCHAR 2152
ENCODING 8530
SWIDTH 960 0
DWIDTH 14 0
BBX 14 14 0 -2
BITMAP
0008
0010
0020
0040
0080
0100
0200
0200
0100
0080
0040
0020
0010
0008
ENDCHAR
STARTCHAR 2153
ENCODING 8531
SWIDTH 960 0
DWIDTH 14 0
BBX 14 14 0 -2
BITMAP
4000
2000
1000
0800
0400
0200
0100
0100
0200
0400
0800
1000
2000
4000
ENDCHAR
STARTCHAR 2154
ENCODING 8532
SWIDTH 960 0
DWIDTH 14 0
BBX 14 14 0 -2
BITMAP
0048
0048
0090
0090
0120
0120
0240
0240
0120
0120
0090
0090
0048
0048
ENDCHAR
STARTCHAR 2155
ENCODING 8533
SWIDTH 960 0
DWIDTH 14 0
BBX 14 14 0 -2
BITMAP
4800
4800
2400
2400
1200
1200
0900
0900
1200
1200
2400
2400
4800
4800
ENDCHAR
STARTCHAR 2156
ENCODING 8534
SWIDTH 960 0
DWIDTH 14 0
BBX 14 14 0 -2
BITMAP
01f8
0100
0100
0100
0100
0100
0100
0100
0100
0100
0100
0100
0100
0100
ENDCHAR
STARTCHAR 2157
ENCODING 8535
SWIDTH 960 0
DWIDTH 14 0
BBX 14 14 0 -2
BITMAP
0200
0200
0200
0200
0200
0200
0200
0200
0200
0200
0200
0200
0200
7e00
ENDCHAR
STARTCHAR 2158
ENCODING 8536
SWIDTH 960 0
DWIDTH 14 0
BBX 14 14 0 -2
BITMAP
03f8
0208
02f8
0280
0280
0280
0280
0280
0280
0280
0280
0280
0280
0380
ENDCHAR
STARTCHAR 2159
ENCODING 8537
SWIDTH 960 0
DWIDTH 14 0
BBX 14 14 0 -2
BITMAP
0700
0500
0500
0500
0500
0500
0500
0500
0500
0500
0500
7d00
4100
7f00
ENDCHAR
STARTCHAR 215a
ENCODING 8538
SWIDTH 960 0
DWIDTH 14 0
BBX 14 14 0 -2
BITMAP
00f8
00f0
00e0
00e0
00c0
00c0
00c0
00c0
00c0
00c0
00e0
00e0
00f0
00f8
ENDCHAR
STARTCHAR 215b
ENCODING 8539
SWIDTH 960 0
DWIDTH 14 0
BBX 14 14 0 -2
BITMAP
7c00
3c00
1c00
1c00
0c00
0c00
0c00
0c00
0c00
0c00
1c00
1c00
3c00
7c00
ENDCHAR
STARTCHAR 215c
ENCODING 8540
SWIDTH 960 0
DWIDTH 14 0
BBX 14 14 0 -2
BITMAP
0000
0200
0200
0200
0200
0200
7ff0
0200
0200
0200
0200
0200
0200
0000
ENDCHAR
STARTCHAR 215d
ENCODING 8541
SWIDTH 960 0
DWIDTH 14 0
BBX 14 14 0 -2
BITMAP
0000
0000
0000
0000
0000
0000
7ff0
0000
0000
0000
0000
0000
0000
0000
ENDCHAR
STARTCHAR 215e
ENCODING 8542
SWIDTH 960 0
DWIDTH 14 0
BBX 14 14 0 -2
BITMAP
0000
0200
0200
0200
0200
7ff0
0200
0200
0200
0200
0000
7ff0
0000
0000
ENDCHAR
STARTCHAR 215f
ENCODING 8543
SWIDTH 960 0
DWIDTH 14 0
BBX 14 14 0 -2
BITMAP
0000
4010
2020
1040
0880
0500
0200
0500
0880
1040
2020
4010
0000
0000
ENDCHAR
STARTCHAR 2160
ENCODING 8544
SWIDTH 960 0
DWIDTH 14 0
BBX 14 14 0 -2
BITMAP
0000
0200
0700
0200
0000
0000
7ff0
0000
0000
0200
0700
0200
0000
0000
ENDCHAR
STARTCHAR 2161
ENCODING 8545
SWIDTH 960 0
DWIDTH 14 0
BBX 14 14 0 -2
BITMAP
0000
0000
0000
0000
7ff0
0000
0000
0000
7ff0
0000
0000
0000
0000
0000
ENDCHAR
STARTCHAR 2162
ENCODING 8546
SWIDTH 960 0
DWIDTH 14 0
BBX 14 14 0 -2
BITMAP
0000
0100
0100
0100
7ff0
0200
0200
0200
7ff0
0400
0400
0400
0000
0000
ENDCHAR
STARTCHAR 2163
ENCODING 8547
SWIDTH 960 0
DWIDTH 14 0
BBX 14 14 0 -2
BITMAP
0010
0060
0080
0300
0400
1800
2000
1800
0400
0300
0080
0060
0010
0000
ENDCHAR
STARTCHAR 2164
ENCODING 8548
SWIDTH 960 0
DWIDTH 14 0
BBX 14 14 0 -2
BITMAP
2000
1800
0400
0300
0080
0060
0010
0060
0080
0300
0400
1800
2000
0000
ENDCHAR
STARTCHAR 2165
ENCODING 8549
SWIDTH 960 0
DWIDTH 14 0
BBX 14 14 0 -2
BITMAP
0030
00c0
0700
1800
6000
1800
0700
00c0
0030
0000
7ff0
0000
7ff0
0000
ENDCHAR
STARTCHAR 2166
ENCODING 8550
SWIDTH 960 0
DWIDTH 14 0
BBX 14 14 0 -2
BITMAP
6000
1800
0700
00c0
0030
00c0
0700
1800
6000
0000
7ff0
0000
7ff0
0000
ENDCHAR
STARTCHAR 2167
ENCODING 8551
SWIDTH 960 0
DWIDTH 14 0
BBX 14 14 0 -2
BITMAP
0000
0000
0000
0000
38e0
6db0
4710
4710
6db0
38e0
0000
0000
0000
0000
ENDCHAR
STARTCHAR 2168
ENCODING 8552
SWIDTH 960 0
DWIDTH 14 0
BBX 14 14 0 -2
BITMAP
0000
0000
0200
0700
0200
0000
0000
0000
0000
2020
7070
2020
0000
0000
ENDCHAR
STARTCHAR 2169
ENCODING 8553
SWIDTH 960 0
DWIDTH 14 0
BBX 14 14 0 -2
BITMAP
0000
03f8
0018
0028
0048
0088
1d08
2208
4100
4100
4100
2200
1c00
0000
ENDCHAR
STARTCHAR 216a
ENCODING 8554
SWIDTH 960 0
DWIDTH 14 0
BBX 14 14 0 -2
BITMAP
0000
0700
0880
1040
1040
1040
0880
0700
0200
0200
3fe0
0200
0200
0200
ENDCHAR
STARTCHAR 216b
ENCODING 8555
SWIDTH 960 0
DWIDTH 14 0
BBX 14 14 0 -2
BITMAP
0000
1800
2400
2400
1800
0000
0000
0000
0000
0000
0000
0000
0000
0000
ENDCHAR
STARTCHAR 216c
ENCODING 8556
SWIDTH 960 0
DWIDTH 14 0
BBX 14 14 0 -2
BITMAP
0000
1800
1800
1000
2000
0000
0000
0000
0000
0000
0000
0000
0000
0000
ENDCHAR
STARTCHAR 216d
ENCODING 8557
SWIDTH 960 0
DWIDTH 14 0
BBX 14 14 0 -2
BITMAP
0000
1b00
1b00
1200
2400
0000
0000
0000
0000
0000
0000
0000
0000
0000
ENDCHAR
STARTCHAR 216e
ENCODING 8558
SWIDTH 960 0
DWIDTH 14 0
BBX 14 14 0 -2
BITMAP
0000
3000
48e8
4918
3208
0400
0400
0400
0400
0400
0208
0110
00e0
0000
ENDCHAR
STARTCHAR 216f
ENCODING 8559
SWIDTH 960 0
DWIDTH 14 0
BBX 14 14 0 -2
BITMAP
0000
7070
2020
1040
0880
7ff0
0500
0200
7ff0
0200
0200
0200
0700
0000
ENDCHAR
STARTCHAR 2170
ENCODING 8560
SWIDTH 960 0
DWIDTH 14 0
BBX 14 14 0 -2
BITMAP
0000
0200
0f80
1240
2220
2220
1a00
0700
02c0
2220
2220
1240
0f80
0200
ENDCHAR
STARTCHAR 2171
ENCODING 8561
SWIDTH 960 0
DWIDTH 14 0
BBX 14 14 0 -2
BITMAP
0000
0080
0080
0380
0540
0920
1120
1100
1200
0a20
0640
0780
0400
0400
ENDCHAR
STARTCHAR 2172
ENCODING 8562
SWIDTH 960 0
DWIDTH 14 0
BBX 14 14 0 -2
BITMAP
0000
00c0
0120
0210
0200
0400
0400
3fe0
0400
3400
4c08
4b10
30e0
0000
ENDCHAR
STARTCHAR 2173
ENCODING 8563
SWIDTH 960 0
DWIDTH 14 0
BBX 14 14 0 -2
BITMAP
0000
1808
2410
4220
4240
2480
1900
0260
0490
0908
1108
2090
4060
0000
ENDCHAR
STARTCHAR 2174
ENCODING 8564
SWIDTH 960 0
DWIDTH 14 0
BBX 14 14 0 -2
BITMAP
0000
0440
0440
0440
3ff0
0880
0880
0880
0880
7fe0
1100
1100
1100
1100
ENDCHAR
STARTCHAR 2175
ENCODING 8565
SWIDTH 960 0
DWIDTH 14 0
BBX 14 14 0 -2
BITMAP
0000
1c00
2200
2200
2200
1400
0870
1420
2240
4180
4180
2240
1c30
0000
ENDCHAR
STARTCHAR 2176
ENCODING 8566
SWIDTH 960 0
DWIDTH 14 0
BBX 14 14 0 -2
BITMAP
0000
0000
0200
0700
3260
3ae0
0700
0700
3ae0
3260
0700
0200
0000
0000
ENDCHAR
STARTCHAR 2177
ENCODING 8567
SWIDTH 960 0
DWIDTH 14 0
BBX 14 14 0 -2
BITMAP
0000
0380
0c60
1010
23c8
24c8
44c8
4888
4990
2760
2008
1830
07c0
0000
ENDCHAR
STARTCHAR 2178
ENCODING 8568
SWIDTH 960 0
DWIDTH 14 0
BBX 14 14 0 -2
BITMAP
0700
0880
0880
0c00
0600
0700
0980
0c80
0700
0300
0180
0880
0880
0700
ENDCHAR
STARTCHAR 2179
ENCODING 8569
SWIDTH 960 0
DWIDTH 14 0
BBX 14 14 0 -2
BITMAP
0000
0200
0200
0500
0500
f8f8
6030
18c0
0880
1240
1540
38e0
2020
0000
ENDCHAR
STARTCHAR 217a
ENCODING 8570
SWIDTH 960 0
DWIDTH 14 0
BBX 14 14 0 -2
BITMAP
0000
0200
0200
0700
0700
fff8
7ff0
1fc0
0f80
1fc0
1dc0
38e0
2020
0000
ENDCHAR
STARTCHAR 217b
ENCODING 8571
SWIDTH 960 0
DWIDTH 14 0
BBX 14 14 0 -2
BITMAP
0000
0000
0700
18c0
2020
2020
4010
4010
4010
2020
2020
18c0
0700
0000
ENDCHAR
STARTCHAR 217c
ENCODING 8572
SWIDTH 960 0
DWIDTH 14 0
BBX 14 14 0 -2
BITMAP
0000
0000
0700
1fc0
3fe0
3fe0
7ff0
7ff0
7ff0
3fe0
3fe0
1fc0
0700
0000
ENDCHAR
STARTCHAR 217d
ENCODING 8573
SWIDTH 960 0
DWIDTH 14 0
BBX 14 14 0 -2
BITMAP
0000
0000
0700
18c0
2720
28a0
5050
5050
5050
28a0
2720
18c0
0700
0000
ENDCHAR
STARTCHAR 217e
ENCODING 8574
SWIDTH 960 0
DWIDTH 14 0
BBX 14 14 0 -2
BITMAP
0000
0200
0500
0880
1040
2020
4010
8008
4010
2020
1040
0880
0500
0200
ENDCHAR
STARTCHAR 2221
ENCODING 8737
SWIDTH 960 0
DWIDTH 14 0
BBX 14 14 0 -2
BITMAP
0000
0200
0700
0f80
1fc0
3fe0
7ff0
fff8
7ff0
3fe0
1fc0
0f80
0700
0200
ENDCHAR
STARTCHAR 2222
ENCODING 8738
SWIDTH 960 0
DWIDTH 14 0
BBX 14 14 0 -2
BITMAP
0000
7ff8
4008
4008
4008
4008
4008
4008
4008
4008
4008
4008
7ff8
0000
ENDCHAR
STARTCHAR 2223
ENCODING 8739
SWIDTH 960 0
DWIDTH 14 0
BBX 14 14 0 -2
BITMAP
0000
7ff8
7ff8
7ff8
7ff8
7ff8
7ff8
7ff8
7ff8
7ff8
7ff8
7ff8
7ff8
0000
ENDCHAR
STARTCHAR 2224
ENCODING 8740
SWIDTH 960 0
DWIDTH 14 0
BBX 14 14 0 -2
BITMAP
0000
0200
0200
0500
0500
0880
0880
1040
1040
2020
2020
7ff0
0000
0000
ENDCHAR
STARTCHAR 2225
ENCODING 8741
SWIDTH 960 0
DWIDTH 14 0
BBX 14 14 0 -2
BITMAP
0000
0200
0200
0700
0700
0f80
0f80
1fc0
1fc0
3fe0
3fe0
7ff0
0000
0000
ENDCHAR
STARTCHAR 2226
ENCODING 8742
SWIDTH 960 0
DWIDTH 14 0
BBX 14 14 0 -2
BITMAP
0000
7ff0
2020
2020
1040
1040
0880
0880
0500
0500
0200
0200
0000
0000
ENDCHAR
STARTCHAR 2227
ENCODING 8743
SWIDTH 960 0
DWIDTH 14 0
BBX 14 14 0 -2
BITMAP
0000
7ff0
3fe0
3fe0
1fc0
1fc0
0f80
0f80
0700
0700
0200
0200
0000
0000
ENDCHAR
STARTCHAR 2228
ENCODING 8744
SWIDTH 960 0
DWIDTH 14 0
BBX 14 14 0 -2
BITMAP
0000
0000
4210
2720
1240
0880
2520
7270
2520
0880
1240
2720
4210
0000
ENDCHAR
STARTCHAR 2229
ENCODING 8745
SWIDTH 960 0
DWIDTH 14 0
BBX 14 14 0 -2
BITMAP
0000
3ff0
3ff0
0000
0000
7ff8
7ff8
0300
0300
0300
0300
0300
0300
0000
ENDCHAR
STARTCHAR 222a
ENCODING 8746
SWIDTH 960 0
DWIDTH 14 0
BBX 14 14 0 -2
BITMAP
0000
0000
0000
0100
0080
0060
7ff8
0060
0080
0100
0000
0000
0000
0000
ENDCHAR
STARTCHAR 222b
ENCODING 8747
SWIDTH 960 0
DWIDTH 14 0
BBX 14 14 0 -2
BITMAP
0000
0000
0000
0200
0400
1800
7ff8
1800
0400
0200
0000
0000
0000
0000
ENDCHAR
STARTCHAR 222c
ENCODING 8748
SWIDTH 960 0
DWIDTH 14 0
BBX 14 14 0 -2
BITMAP
0000
0200
0200
0700
0700
0a80
1240
0200
0200
0200
0200
0200
0200
0000
ENDCHAR
STARTCHAR 222d
ENCODING 8749
SWIDTH 960 0
DWIDTH 14 0
BBX 14 14 0 -2
BITMAP
0000
0200
0200
0200
0200
0200
0200
1240
0a80
0700
0700
0200
0200
0000
ENDCHAR
STARTCHAR 222e
ENCODING 8750
SWIDTH 960 0
DWIDTH 14 0
BBX 14 14 0 -2
BITMAP
0000
0000
0000
0000
3ff0
3ff0
0000
0000
3ff0
3ff0
0000
0000
0000
0000
ENDCHAR
STARTCHAR 223a
ENCODING 8762
SWIDTH 960 0
DWIDTH 14 0
BBX 14 14 0 -2
BITMAP
0000
0000
03f0
0c00
1000
2000
3ff0
2000
1000
0c00
03f0
0000
0000
0000
ENDCHAR
STARTCHAR 223b
ENCODING 8763
SWIDTH 960 0
DWIDTH 14 0
BBX 14 14 0 -2
BITMAP
0000
0000
3f00
00c0
0020
0010
3ff0
0010
0020
00c0
3f00
0000
0000
0000
ENDCHAR
STARTCHAR 223c
ENCODING 8764
SWIDTH 960 0
DWIDTH 14 0
BBX 14 14 0 -2
BITMAP
0000
0000
0ff0
1000
2000
2000
2000
1000
0ff0
0000
0000
3ff0
0000
0000
ENDCHAR
STARTCHAR 223d
ENCODING 8765
SWIDTH 960 0
DWIDTH 14 0
BBX 14 14 0 -2
BITMAP
0000
0000
3fc0
0020
0010
0010
0010
0020
3fc0
0000
0000
3ff0
0000
0000
ENDCHAR
STARTCHAR 223e
ENCODING 8766
SWIDTH 960 0
DWIDTH 14 0
BBX 14 14 0 -2
BITMAP
0000
0000
03f0
0c00
1000
2000
2000
2000
2000
1000
0c00
03f0
0000
0000
ENDCHAR
STARTCHAR 223f
ENCODING 8767
SWIDTH 960 0
DWIDTH 14 0
BBX 14 14 0 -2
BITMAP
0000
0000
3f00
00c0
0020
0010
0010
0010
0010
0020
00c0
3f00
0000
0000
ENDCHAR
STARTCHAR 2240
ENCODING 8768
SWIDTH 960 0
DWIDTH 14 0
BBX 14 14 0 -2
BITMAP
0000
0000
2010
2010
2010
2010
2010
2010
1020
1020
0840
0780
0000
0000
ENDCHAR
STARTCHAR 2241
ENCODING 8769
SWIDTH 960 0
DWIDTH 14 0
BBX 14 14 0 -2
BITMAP
0000
0000
0780
0840
1020
1020
2010
2010
2010
2010
2010
2010
0000
0000
ENDCHAR
STARTCHAR 224a
ENCODING 8778
SWIDTH 960 0
DWIDTH 14 0
BBX 14 14 0 -2
BITMAP
0000
0000
0200
0200
0500
0500
0880
0880
1040
1040
2020
2020
0000
0000
ENDCHAR
STARTCHAR 224b
ENCODING 8779
SWIDTH 960 0
DWIDTH 14 0
BBX 14 14 0 -2
BITMAP
0000
0000
2020
2020
1040
1040
0880
0880
0500
0500
0200
0200
0000
0000
ENDCHAR
STARTCHAR 224c
ENCODING 8780
SWIDTH 960 0
DWIDTH 14 0
BBX 14 14 0 -2
BITMAP
0000
0000
0000
0000
0000
0000
3ff0
0010
0010
0010
0010
0010
0000
0000
ENDCHAR
STARTCHAR 224d
ENCODING 8781
SWIDTH 960 0
DWIDTH 14 0
BBX 14 14 0 -2
BITMAP
0000
0000
0000
0040
0020
7ff0
0008
7ff0
0020
0040
0000
0000
0000
0000
ENDCHAR
STARTCHAR 224e
ENCODING 8782
SWIDTH 960 0
DWIDTH 14 0
BBX 14 14 0 -2
BITMAP
0000
0000
0000
0840
1020
3ff0
4008
3ff0
1020
0840
0000
0000
0000
0000
ENDCHAR
STARTCHAR 224f
ENCODING 8783
SWIDTH 960 0
DWIDTH 14 0
BBX 14 14 0 -2
BITMAP
0000
4010
4010
2020
3fe0
1040
1040
0880
0880
0500
0500
0200
0200
0000
ENDCHAR
STARTCHAR 2250
ENCODING 8784
SWIDTH 960 0
DWIDTH 14 0
BBX 14 14 0 -2
BITMAP
0000
1fe0
0020
0020
0020
0020
1fe0
0020
0020
0020
0020
1fe0
0000
0000
ENDCHAR
STARTCHAR 225c
ENCODING 8796
SWIDTH 960 0
DWIDTH 14 0
BBX 14 14 0 -2
BITMAP
0000
0000
0010
0020
0040
0080
0100
0200
0400
0800
1000
3ff0
0000
0000
ENDCHAR
STARTCHAR 225d
ENCODING 8797
SWIDTH 960 0
DWIDTH 14 0
BBX 14 14 0 -2
BITMAP
0000
0000
0200
0200
0200
0200
0200
0200
0200
0200
0200
7ff0
0000
0000
ENDCHAR
STARTCHAR 225e
ENCODING 8798
SWIDTH 960 0
DWIDTH 14 0
BBX 14 14 0 -2
BITMAP
0000
1fc0
6030
8008
0000
0000
0000
0000
0000
0000
0000
0000
0000
0000
ENDCHAR
STARTCHAR 225f
ENCODING 8799
SWIDTH 960 0
DWIDTH 14 0
BBX 14 14 0 -2
BITMAP
0000
0380
04c0
0040
0040
0740
0cc0
08c0
18c0
1880
1980
0b00
0600
0000
ENDCHAR
STARTCHAR 2260
ENCODING 8800
SWIDTH 960 0
DWIDTH 14 0
BBX 14 14 0 -2
BITMAP
0000
0000
7ff0
3fe0
3020
1040
1840
0880
0c80
0500
0700
0200
0200
0000
ENDCHAR
STARTCHAR 2261
ENCODING 8801
SWIDTH 960 0
DWIDTH 14 0
BBX 14 14 0 -2
BITMAP
0000
0000
0000
3ff0
0000
0000
3ff0
0000
0000
3ff0
0000
0000
0000
0000
ENDCHAR
STARTCHAR 2262
ENCODING 8802
SWIDTH 960 0
DWIDTH 14 0
BBX 14 14 0 -2
BITMAP
0000
0000
0800
1c00
0800
3ff0
0000
0000
3ff0
0040
00e0
0040
0000
0000
ENDCHAR
STARTCHAR 2263
ENCODING 8803
SWIDTH 960 0
DWIDTH 14 0
BBX 14 14 0 -2
BITMAP
0000
0110
0220
0440
0880
1100
2200
1100
0880
0440
0220
0110
0000
0000
ENDCHAR
STARTCHAR 2264
ENCODING 8804
SWIDTH 960 0
DWIDTH 14 0
BBX 14 14 0 -2
BITMAP
0000
2200
1100
0880
0440
0220
0110
0220
0440
0880
1100
2200
0000
0000
ENDCHAR
STARTCHAR 2265
ENCODING 8805
SWIDTH 960 0
DWIDTH 14 0
BBX 14 14 0 -2
BITMAP
0000
01f8
0100
0100
0100
0200
0200
0200
2200
7400
1c00
0c00
0400
0000
ENDCHAR
STARTCHAR 2266
ENCODING 8806
SWIDTH 960 0
DWIDTH 14 0
BBX 14 14 0 -2
BITMAP
0000
0000
0000
0000
18c0
2120
4210
4210
2420
18c0
0000
0000
0000
0000
ENDCHAR
STARTCHAR 2267
ENCODING 8807
SWIDTH 960 0
DWIDTH 14 0
BBX 14 14 0 -2
BITMAP
0000
0000
0000
0000
0c60
1280
2100
2100
1280
0c60
0000
0000
0000
0000
ENDCHAR
STARTCHAR 2268
ENCODING 8808
SWIDTH 960 0
DWIDTH 14 0
BBX 14 14 0 -2
BITMAP
0000
0000
2020
7070
2020
0000
0000
0000
0000
0200
0700
0200
0000
0000
ENDCHAR
STARTCHAR 2269
ENCODING 8809
SWIDTH 960 0
DWIDTH 14 0
BBX 14 14 0 -2
BITMAP
0180
0200
0400
0400
0600
0600
0300
0300
0180
0180
0080
0080
0100
0600
ENDCHAR
STARTCHAR 226a
ENCODING 8810
SWIDTH 960 0
DWIDTH 14 0
BBX 14 14 0 -2
BITMAP
0660
0880
1100
1100
1980
1980
0cc0
0cc0
0660
0660
0220
0220
0440
1980
ENDCHAR
STARTCHAR 2272
ENCODING 8818
SWIDTH 960 0
DWIDTH 14 0
BBX 14 14 0 -2
BITMAP
0300
0480
0480
0300
0200
0500
0500
0880
0880
1040
1fc0
2020
7070
0000
ENDCHAR
STARTCHAR 2273
ENCODING 8819
SWIDTH 960 0
DWIDTH 14 0
BBX 14 14 0 -2
BITMAP
0000
3040
4880
cd00
cd00
4a00
3400
0620
0d50
1dd8
2dd8
2550
4220
0000
ENDCHAR
STARTCHAR 2274
ENCODING 8820
SWIDTH 960 0
DWIDTH 14 0
BBX 14 14 0 -2
BITMAP
0080
0480
04e0
07e0
1f80
1c80
0480
04e0
07e0
1f80
1c80
0480
0400
0000
ENDCHAR
STARTCHAR 2275
ENCODING 8821
SWIDTH 960 0
DWIDTH 14 0
BBX 14 14 0 -2
BITMAP
0000
0800
0800
0800
0800
0800
0b80
0cc0
08c0
0880
0900
0a00
0c00
0000
ENDCHAR
STARTCHAR 2276
ENCODING 8822
SWIDTH 960 0
DWIDTH 14 0
BBX 14 14 0 -2
BITMAP
0200
0300
0380
02c0
0240
0260
0220
0220
0220
0e40
1e00
1e00
0c00
0000
ENDCHAR
STARTCHAR 2277
ENCODING 8823
SWIDTH 960 0
DWIDTH 14 0
BBX 14 14 0 -2
BITMAP
0200
0700
0200
1240
3fe0
1240
0700
0700
0200
0200
0200
0200
0200
0200
ENDCHAR
STARTCHAR 2278
ENCODING 8824
SWIDTH 960 0
DWIDTH 14 0
BBX 14 14 0 -2
BITMAP
0200
0700
1240
3fe0
1240
0700
0200
0200
0700
1240
3fe0
1240
0700
0200
ENDCHAR
STARTCHAR 2279
ENCODING 8825
SWIDTH 960 0
DWIDTH 14 0
BBX 14 14 0 -2
BITMAP
0000
0780
0e80
0e80
0e80
0680
0280
0280
0280
0280
0280
0280
0280
0000
ENDCHAR
STARTCHAR 227e
ENCODING 8830
SWIDTH 960 0
DWIDTH 14 0
BBX 14 14 0 -2
BITMAP
0000
0f80
3060
4010
4010
8008
8008
8008
8008
8008
4010
4010
3060
0f80
ENDCHAR
STARTCHAR 2330
ENCODING 9008
SWIDTH 960 0
DWIDTH 14 0
BBX 14 14 0 -2
BITMAP
0000
0700
0880
1040
1040
1040
1040
1040
1040
1040
0880
0700
0000
0000
ENDCHAR
STARTCHAR 2331
ENCODING 9009
SWIDTH 960 0
DWIDTH 14 0
BBX 14 14 0 -2
BITMAP
0000
0100
0100
0700
0100
0100
0100
0100
0100
0100
0100
0380
0000
0000
ENDCHAR
STARTCHAR 2332
ENCODING 9010
SWIDTH 960 0
DWIDTH 14 0
BBX 14 14 0 -2
BITMAP
0000
0780
0840
1020
1020
0040
0080
0300
0400
0800
1000
1fe0
0000
0000
ENDCHAR
STARTCHAR 2333
ENCODING 9011
SWIDTH 960 0
DWIDTH 14 0
BBX 14 14 0 -2
BITMAP
0000
0780
0840
1020
1020
0040
0380
0040
1020
1020
0840
0780
0000
0000
ENDCHAR
STARTCHAR 2334
ENCODING 9012
SWIDTH 960 0
DWIDTH 14 0
BBX 14 14 0 -2
BITMAP
0000
0080
0180
0280
0480
0880
1080
2080
3fe0
0080
0080
01c0
0000
0000
ENDCHAR
STARTCHAR 2335
ENCODING 9013
SWIDTH 960 0
DWIDTH 14 0
BBX 14 14 0 -2
BITMAP
0000
0fe0
0800
0800
0800
0b80
0c40
0020
0020
0020
0840
0780
0000
0000
ENDCHAR
STARTCHAR 2336
ENCODING 9014
SWIDTH 960 0
DWIDTH 14 0
BBX 14 14 0 -2
BITMAP
0000
03c0
0420
0800
0800
13c0
1420
1810
1010
0810
0420
03c0
0000
0000
ENDCHAR
STARTCHAR 2337
ENCODING 9015
SWIDTH 960 0
DWIDTH 14 0
BBX 14 14 0 -2
BITMAP
0000
0ff0
0820
1040
0080
0080
0100
0100
0100
0100
0100
0100
0000
0000
ENDCHAR
STARTCHAR 2338
ENCODING 9016
SWIDTH 960 0
DWIDTH 14 0
BBX 14 14 0 -2
BITMAP
0000
0780
0840
1020
1020
0840
0780
0840
1020
1020
0840
0780
0000
0000
ENDCHAR
STARTCHAR 2339
ENCODING 9017
SWIDTH 960 0
DWIDTH 14 0
BBX 14 14 0 -2
BITMAP
0000
0780
0840
1020
1020
1020
0860
07a0
0020
1020
0840
0780
0000
0000
ENDCHAR
STARTCHAR 2341
ENCODING 9025
SWIDTH 960 0
DWIDTH 14 0
BBX 14 14 0 -2
BITMAP
0000
0200
0200
0500
0500
0880
0880
1040
1fc0
2020
2020
7070
0000
0000
ENDCHAR
STARTCHAR 2342
ENCODING 9026
SWIDTH 960 0
DWIDTH 14 0
BBX 14 14 0 -2
BITMAP
0000
3f00
10c0
1020
1020
10c0
1f80
1060
1010
1010
1060
3f80
0000
0000
ENDCHAR
STARTCHAR 2343
ENCODING 9027
SWIDTH 960 0
DWIDTH 14 0
BBX 14 14 0 -2
BITMAP
0000
03d0
0c30
1010
2000
2000
2000
2000
2000
1010
0c20
03c0
0000
0000
ENDCHAR
STARTCHAR 2344
ENCODING 9028
SWIDTH 960 0
DWIDTH 14 0
BBX 14 14 0 -2
BITMAP
0000
3f00
10c0
1020
1010
1010
1010
1010
1010
1020
10c0
3f00
0000
0000
ENDCHAR
STARTCHAR 2345
ENCODING 9029
SWIDTH 960 0
DWIDTH 14 0
BBX 14 14 0 -2
BITMAP
0000
3fe0
1020
1000
1000
1040
1fc0
1040
1000
1000
1020
3fe0
0000
0000
ENDCHAR
STARTCHAR 2346
ENCODING 9030
SWIDTH 960 0
DWIDTH 14 0
BBX 14 14 0 -2
BITMAP
0000
3fe0
1020
1020
1000
1080
1f80
1080
1000
1000
1000
3800
0000
0000
ENDCHAR
STARTCHAR 2347
ENCODING 9031
SWIDTH 960 0
DWIDTH 14 0
BBX 14 14 0 -2
BITMAP
0000
03a0
0c60
1020
2000
2000
20f8
2020
2020
1020
0c60
03a0
0020
0000
ENDCHAR
STARTCHAR 2348
ENCODING 9032
SWIDTH 960 0
DWIDTH 14 0
BBX 14 14 0 -2
BITMAP
0000
3870
1020
1020
1020
1020
1fe0
1020
1020
1020
1020
3870
0000
0000
ENDCHAR
STARTCHAR 2349
ENCODING 9033
SWIDTH 960 0
DWIDTH 14 0
BBX 14 14 0 -2
BITMAP
0000
0700
0200
0200
0200
0200
0200
0200
0200
0200
0200
0700
0000
0000
ENDCHAR
STARTCHAR 234a
ENCODING 9034
SWIDTH 960 0
DWIDTH 14 0
BBX 14 14 0 -2
BITMAP
0000
01c0
0080
0080
0080
0080
0080
0080
0080
1080
1100
0e00
0000
0000
ENDCHAR
STARTCHAR 234b
ENCODING 9035
SWIDTH 960 0
DWIDTH 14 0
BBX 14 14 0 -2
BITMAP
0000
38e0
1040
1080
1100
1600
1a00
1100
1080
1040
1020
3870
0000
0000
ENDCHAR
STARTCHAR 234c
ENCODING 9036
SWIDTH 960 0
DWIDTH 14 0
BBX 14 14 0 -2
BITMAP
0000
3800
1000
1000
1000
1000
1000
1000
1000
1020
1040
3fc0
0000
0000
ENDCHAR
STARTCHAR 234d
ENCODING 9037
SWIDTH 960 0
DWIDTH 14 0
BBX 14 14 0 -2
BITMAP
0000
6018
3030
3050
2850
2890
2490
2510
2210
2210
2010
7038
0000
0000
ENDCHAR
STARTCHAR 234e
ENCODING 9038
SWIDTH 960 0
DWIDTH 14 0
BBX 14 14 0 -2
BITMAP
0000
3070
1820
1820
1420
1220
1120
1120
10a0
1060
1060
3820
0000
0000
ENDCHAR
STARTCHAR 234f
ENCODING 9039
SWIDTH 960 0
DWIDTH 14 0
BBX 14 14 0 -2
BITMAP
0000
0700
18c0
2020
4010
4010
4010
4010
4010
2020
18c0
0700
0000
0000
ENDCHAR
STARTCHAR 2350
ENCODING 9040
SWIDTH 960 0
DWIDTH 14 0
BBX 14 14 0 -2
BITMAP
0000
3f00
10c0
1020
1020
10c0
1f00
1000
1000
1000
1000
3800
0000
0000
ENDCHAR
STARTCHAR 2351
ENCODING 9041
SWIDTH 960 0
DWIDTH 14 0
BBX 14 14 0 -2
BITMAP
0000
0700
18c0
2020
4010
4010
4010
4010
4e10
3120
18c0
07c0
0030
0000
ENDCHAR
STARTCHAR 2352
ENCODING 9042
SWIDTH 960 0
DWIDTH 14 0
BBX 14 14 0 -2
BITMAP
0000
3f00
10c0
1020
1020
10c0
1f00
1080
1040
1040
1020
3870
0000
0000
ENDCHAR
STARTCHAR 2353
ENCODING 9043
SWIDTH 960 0
DWIDTH 14 0
BBX 14 14 0 -2
BITMAP
0000
07a0
0860
1020
0800
0600
0180
0060
1010
1010
1820
17c0
0000
0000
ENDCHAR
STARTCHAR 2354
ENCODING 9044
SWIDTH 960 0
DWIDTH 14 0
BBX 14 14 0 -2
BITMAP
0000
3fe0
2220
4210
0200
0200
0200
0200
0200
0200
0200
0700
0000
0000
ENDCHAR
STARTCHAR 2355
ENCODING 9045
SWIDTH 960 0
DWIDTH 14 0
BBX 14 14 0 -2
BITMAP
0000
3870
1020
1020
1020
1020
1020
1020
1020
1020
0840
0780
0000
0000
ENDCHAR
STARTCHAR 2356
ENCODING 9046
SWIDTH 960 0
DWIDTH 14 0
BBX 14 14 0 -2
BITMAP
0000
7070
2020
2020
1040
1040
0880
0880
0500
0500
0200
0200
0000
0000
ENDCHAR
STARTCHAR 2357
ENCODING 9047
SWIDTH 960 0
DWIDTH 14 0
BBX 14 14 0 -2
BITMAP
0000
e238
4210
4210
4220
2520
2520
2920
28c0
18c0
1040
1040
0000
0000
ENDCHAR
STARTCHAR 2358
ENCODING 9048
SWIDTH 960 0
DWIDTH 14 0
BBX 14 14 0 -2
BITMAP
0000
3870
1020
0840
0480
0300
0200
0500
0880
1040
2020
7070
0000
0000
ENDCHAR
STARTCHAR 2359
ENCODING 9049
SWIDTH 960 0
DWIDTH 14 0
BBX 14 14 0 -2
BITMAP
0000
38e0
1040
0880
0500
0200
0200
0200
0200
0200
0200
0700
0000
0000
ENDCHAR
STARTCHAR 235a
ENCODING 9050
SWIDTH 960 0
DWIDTH 14 0
BBX 14 14 0 -2
BITMAP
0000
1ff0
1020
2040
0080
0100
0100
0200
0400
0808
1010
3ff0
0000
0000
ENDCHAR
STARTCHAR 2361
ENCODING 9057
SWIDTH 960 0
DWIDTH 14 0
BBX 14 14 0 -2
BITMAP
0000
0000
0000
0000
0780
0840
0840
03c0
0c40
1040
10c0
0f20
0000
0000
ENDCHAR
STARTCHAR 2362
ENCODING 9058
SWIDTH 960 0
DWIDTH 14 0
BBX 14 14 0 -2
BITMAP
0000
1800
0800
0800
09c0
0a20
0c20
0820
0820
0820
0c40
1b80
0000
0000
ENDCHAR
STARTCHAR 2365
ENCODING 9059
SWIDTH 960 0
DWIDTH 14 0
BBX 14 14 0 -2
BITMAP
0000
0000
0000
0000
0780
0840
1020
1000
1000
1020
0840
0780
0000
0000
ENDCHAR
STARTCHAR 2364
ENCODING 9060
SWIDTH 960 0
DWIDTH 14 0
BBX 14 14 0 -2
BITMAP
0000
0060
0040
0040
0740
08c0
1040
1040
1040
1040
08c0
0760
0000
0000
ENDCHAR
STARTCHAR 2365
ENCODING 9061
SWIDTH 960 0
DWIDTH 14 0
BBX 14 14 0 -2
BITMAP
0000
0000
0000
0000
0780
0840
1020
1fe0
1000
1020
0c40
0380
0000
0000
ENDCHAR
STARTCHAR 2366
ENCODING 9062
SWIDTH 960 0
DWIDTH 14 0
BBX 14 14 0 -2
BITMAP
0000
0180
0240
0400
0400
1fc0
0400
0400
0400
0400
0400
0e00
0000
0000
ENDCHAR
STARTCHAR 2367
ENCODING 9063
SWIDTH 960 0
DWIDTH 14 0
BBX 14 14 0 -2
BITMAP
0000
0000
0000
0000
0720
08c0
0840
0880
0700
0800
0f80
1060
1020
0fc0
ENDCHAR
STARTCHAR 2368
ENCODING 9064
SWIDTH 960 0
DWIDTH 14 0
BBX 14 14 0 -2
BITMAP
0000
1800
0800
0800
0980
0a40
0c20
0820
0820
0820
0820
1c70
0000
0000
ENDCHAR
STARTCHAR 2369
ENCODING 9065
SWIDTH 960 0
DWIDTH 14 0
BBX 14 14 0 -2
BITMAP
0000
0200
0200
0000
0600
0200
0200
0200
0200
0200
0200
0700
0000
0000
ENDCHAR
STARTCHAR 236a
ENCODING 9066
SWIDTH 960 0
DWIDTH 14 0
BBX 14 14 0 -2
BITMAP
0000
0100
0100
0000
0300
0100
0100
0100
0100
0100
0100
0100
1100
0e00
ENDCHAR
STARTCHAR 236b
ENCODING 9067
SWIDTH 960 0
DWIDTH 14 0
BBX 14 14 0 -2
BITMAP
0000
1c00
0800
0870
0840
0880
0900
0b00
0c80
0840
0820
1c70
0000
0000
ENDCHAR
STARTCHAR 236c
ENCODING 9068
SWIDTH 960 0
DWIDTH 14 0
BBX 14 14 0 -2
BITMAP
0000
0600
0200
0200
0200
0200
0200
0200
0200
0200
0200
0700
0000
0000
ENDCHAR
STARTCHAR 236d
ENCODING 9069
SWIDTH 960 0
DWIDTH 14 0
BBX 14 14 0 -2
BITMAP
0000
0000
0000
0000
6cc0
3320
2220
2220
2220
2220
2220
7770
0000
0000
ENDCHAR
STARTCHAR 236e
ENCODING 9070
SWIDTH 960 0
DWIDTH 14 0
BBX 14 14 0 -2
BITMAP
0000
0000
0000
0000
19c0
0a20
0c20
0820
0820
0820
0820
1c70
0000
0000
ENDCHAR
STARTCHAR 236f
ENCODING 9071
SWIDTH 960 0
DWIDTH 14 0
BBX 14 14 0 -2
BITMAP
0000
0000
0000
0000
0780
0840
1020
1020
1020
1020
0840
0780
0000
0000
ENDCHAR
STARTCHAR 2370
ENCODING 9072
SWIDTH 960 0
DWIDTH 14 0
BBX 14 14 0 -2
BITMAP
0000
0000
0000
0000
0b80
0c40
0820
0820
0820
0820
0c40
0b80
0800
1c00
ENDCHAR
STARTCHAR 2371
ENCODING 9073
SWIDTH 960 0
DWIDTH 14 0
BBX 14 14 0 -2
BITMAP
0000
0000
0000
0000
0740
08c0
1040
1040
1040
1040
08c0
0740
0040
00e0
ENDCHAR
STARTCHAR 2372
ENCODING 9074
SWIDTH 960 0
DWIDTH 14 0
BBX 14 14 0 -2
BITMAP
0000
0000
0000
0000
0980
0a40
0c40
0800
0800
0800
0800
1c00
0000
0000
ENDCHAR
STARTCHAR 2373
ENCODING 9075
SWIDTH 960 0
DWIDTH 14 0
BBX 14 14 0 -2
BITMAP
0000
0000
0000
0000
0f40
10c0
1000
0c00
0380
0040
3040
0f80
0000
0000
ENDCHAR
STARTCHAR 2374
ENCODING 9076
SWIDTH 960 0
DWIDTH 14 0
BBX 14 14 0 -2
BITMAP
0000
0000
0400
0400
0400
1fc0
0400
0400
0400
0400
0440
0380
0000
0000
ENDCHAR
STARTCHAR 2375
ENCODING 9077
SWIDTH 960 0
DWIDTH 14 0
BBX 14 14 0 -2
BITMAP
0000
0000
0000
0000
38e0
1040
1040
1040
1040
1040
08c0
0760
0000
0000
ENDCHAR
STARTCHAR 2376
ENCODING 9078
SWIDTH 960 0
DWIDTH 14 0
BBX 14 14 0 -2
BITMAP
0000
0000
0000
0000
3870
1020
0840
0840
0480
0480
0300
0300
0000
0000
ENDCHAR
STARTCHAR 2377
ENCODING 9079
SWIDTH 960 0
DWIDTH 14 0
BBX 14 14 0 -2
BITMAP
0000
0000
0000
0000
7070
2220
2220
1520
1540
1540
0880
0880
0000
0000
ENDCHAR
STARTCHAR 2378
ENCODING 9080
SWIDTH 960 0
DWIDTH 14 0
BBX 14 14 0 -2
BITMAP
0000
0000
0000
0000
1860
0840
0480
0300
0300
0480
0840
1860
0000
0000
ENDCHAR
STARTCHAR 2379
ENCODING 9081
SWIDTH 960 0
DWIDTH 14 0
BBX 14 14 0 -2
BITMAP
0000
0000
0000
0000
38e0
1040
0840
0880
0480
0500
0300
0200
0400
1800
ENDCHAR
STARTCHAR 237a
ENCODING 9082
SWIDTH 960 0
DWIDTH 14 0
BBX 14 14 0 -2
BITMAP
0000
0000
0000
0000
0fc0
1080
0100
0200
0400
0820
1040
1fc0
0000
0000
ENDCHAR
STARTCHAR 2421
ENCODING 9249
SWIDTH 960 0
DWIDTH 14 0
BBX 14 14 0 -2
BITMAP
0000
0000
0000
0000
0400
1f80
0400
07c0
0920
1910
2a10
2420
1c40
0180
ENDCHAR
STARTCHAR 2422
ENCODING 9250
SWIDTH 960 0
DWIDTH 14 0
BBX 14 14 0 -2
BITMAP
0400
04c0
1f00
0400
0500
07e0
0d10
1908
2a08
2608
2410
1a20
00c0
0000
ENDCHAR
STARTCHAR 2423
ENCODING 9251
SWIDTH 960 0
DWIDTH 14 0
BBX 14 14 0 -2
BITMAP
0000
0000
0000
0000
0000
0000
0800
0820
1020
1010
1010
0a00
0400
0000
ENDCHAR
STARTCHAR 2424
ENCODING 9252
SWIDTH 960 0
DWIDTH 14 0
BBX 14 14 0 -2
BITMAP
0000
0000
1000
1000
1020
2010
2010
2008
2008
2008
1200
0c00
0000
0000
ENDCHAR
STARTCHAR 2425
ENCODING 9253
SWIDTH 960 0
DWIDTH 14 0
BBX 14 14 0 -2
BITMAP
0000
0000
0000
0000
0200
0180
0000
0780
0840
0040
0040
0080
0080
0300
ENDCHAR
STARTCHAR 2426
ENCODING 9254
SWIDTH 960 0
DWIDTH 14 0
BBX 14 14 0 -2
BITMAP
0600
0180
0000
0780
3840
0020
0020
0020
0040
0040
0080
0300
0c00
0000
ENDCHAR
STARTCHAR 2427
ENCODING 9255
SWIDTH 960 0
DWIDTH 14 0
BBX 14 14 0 -2
BITMAP
0000
0000
0000
0000
0600
0100
0000
0fc0
0080
0100
0200
0700
0900
10f0
ENDCHAR
STARTCHAR 2428
ENCODING 9256
SWIDTH 960 0
DWIDTH 14 0
BBX 14 14 0 -2
BITMAP
0600
0180
0000
0000
1fe0
0080
0100
0200
0400
0e00
1100
2100
20f8
0000
ENDCHAR
STARTCHAR 2429
ENCODING 9257
SWIDTH 960 0
DWIDTH 14 0
BBX 14 14 0 -2
BITMAP
0000
0000
0000
0000
0800
0840
3e20
0800
0f80
1840
2840
3080
0300
0000
ENDCHAR
STARTCHAR 242a
ENCODING 9258
SWIDTH 960 0
DWIDTH 14 0
BBX 14 14 0 -2
BITMAP
0000
0800
0860
0f10
7808
0800
0fc0
1820
2810
4810
4810
3060
0180
0000
ENDCHAR
STARTCHAR 242b
ENCODING 9259
SWIDTH 960 0
DWIDTH 14 0
BBX 14 14 0 -2
BITMAP
0000
0800
0840
0820
7f10
0890
0888
1088
1080
2080
2100
4900
0600
0000
ENDCHAR
STARTCHAR 242c
ENCODING 9260
SWIDTH 960 0
DWIDTH 14 0
BBX 14 14 0 -2
BITMAP
0000
1028
10a8
1040
fe20
1120
1110
2110
2100
4100
4200
9200
0c00
0000
ENDCHAR
STARTCHAR 242d
ENCODING 9261
SWIDTH 960 0
DWIDTH 14 0
BBX 14 14 0 -2
BITMAP
0200
0200
02c0
1f00
0100
01e0
3e80
0040
0fa0
1060
1000
0c00
0380
0000
ENDCHAR
STARTCHAR 242e
ENCODING 9262
SWIDTH 960 0
DWIDTH 14 0
BBX 14 14 0 -2
BITMAP
0200
0228
02e8
1f28
0100
01e0
3e80
0040
0fa0
1060
1000
0c00
0380
0000
ENDCHAR
STARTCHAR 242f
ENCODING 9263
SWIDTH 960 0
DWIDTH 14 0
BBX 14 14 0 -2
BITMAP
0080
0080
0100
0200
0400
0800
1000
0800
0400
0200
0100
0080
0080
0000
ENDCHAR
STARTCHAR 2430
ENCODING 9264
SWIDTH 960 0
DWIDTH 14 0
BBX 14 14 0 -2
BITMAP
0080
0080
0150
0250
0450
0800
1000
0800
0400
0200
0100
0080
0080
0000
ENDCHAR
STARTCHAR 2431
ENCODING 9265
SWIDTH 960 0
DWIDTH 14 0
BBX 14 14 0 -2
BITMAP
0040
2040
2040
2078
47c0
4040
4040
4040
4040
5040
2040
0080
0300
0000
ENDCHAR
STARTCHAR 2432
ENCODING 9266
SWIDTH 960 0
DWIDTH 14 0
BBX 14 14 0 -2
BITMAP
00a8
20a8
2080
2070
47c0
4040
4040
4040
4040
5040
2040
0080
0300
0000
ENDCHAR
STARTCHAR 2433
ENCODING 9267
SWIDTH 960 0
DWIDTH 14 0
BBX 14 14 0 -2
BITMAP
0000
0000
1c00
03c0
0000
0000
0000
0000
0000
2000
2020
1fc0
0000
0000
ENDCHAR
STARTCHAR 2434
ENCODING 9268
SWIDTH 960 0
DWIDTH 14 0
BBX 14 14 0 -2
BITMAP
0000
0028
1c28
03e8
0000
0000
0000
0000
0000
2000
2020
1fc0
0000
0000
ENDCHAR
STARTCHAR 2435
ENCODING 9269
SWIDTH 960 0
DWIDTH 14 0
BBX 14 14 0 -2
BITMAP
0400
0400
02e0
3f00
0100
0100
0080
0f40
10c0
2000
2000
1800
0780
0000
ENDCHAR
STARTCHAR 2436
ENCODING 9270
SWIDTH 960 0
DWIDTH 14 0
BBX 14 14 0 -2
BITMAP
0400
0428
02e8
3f28
0100
0100
0080
0f40
10c0
2000
2000
1800
0780
0000
ENDCHAR
STARTCHAR 2437
ENCODING 9271
SWIDTH 960 0
DWIDTH 14 0
BBX 14 14 0 -2
BITMAP
0000
0800
0800
0800
0800
0800
0800
0800
0810
0810
0820
0440
0380
0000
ENDCHAR
STARTCHAR 2438
ENCODING 9272
SWIDTH 960 0
DWIDTH 14 0
BBX 14 14 0 -2
BITMAP
0000
10a0
10a0
10a0
1000
1000
1000
1000
1000
1020
1040
0880
0700
0000
ENDCHAR
STARTCHAR 2439
ENCODING 9273
SWIDTH 960 0
DWIDTH 14 0
BBX 14 14 0 -2
BITMAP
0100
0100
01f0
7f00
0100
0d00
1300
1100
1100
0f00
0100
0100
0200
0c00
ENDCHAR
STARTCHAR 243a
ENCODING 9274
SWIDTH 960 0
DWIDTH 14 0
BBX 14 14 0 -2
BITMAP
0128
0128
01f8
7f00
0100
0d00
1300
1100
1100
0f00
0100
0100
0200
0c00
ENDCHAR
STARTCHAR 243b
ENCODING 9275
SWIDTH 960 0
DWIDTH 14 0
BBX 14 14 0 -2
BITMAP
0000
0040
0840
0878
0bc0
7c40
0840
0840
0880
0800
0400
03e0
0000
0000
ENDCHAR
STARTCHAR 243c
ENCODING 9276
SWIDTH 960 0
DWIDTH 14 0
BBX 14 14 0 -2
BITMAP
0028
00a8
10a8
10f0
1780
f880
1080
1080
1100
1000
0800
07c0
0000
0000
ENDCHAR
STARTCHAR 243d
ENCODING 9277
SWIDTH 960 0
DWIDTH 14 0
BBX 14 14 0 -2
BITMAP
0000
0fc0
0080
0100
0200
04f0
3f80
0100
0200
0400
0400
0200
01c0
0000
ENDCHAR
STARTCHAR 243e
ENCODING 9278
SWIDTH 960 0
DWIDTH 14 0
BBX 14 14 0 -2
BITMAP
0028
1fa8
0128
0200
0400
09e0
7f00
0200
0400
0800
0800
0400
0380
0000
ENDCHAR
STARTCHAR 243f
ENCODING 9279
SWIDTH 960 0
DWIDTH 14 0
BBX 14 14 0 -2
BITMAP
0000
0800
0800
7f00
0800
1030
11c0
1000
2000
2000
2200
4200
41f0
0000
ENDCHAR
STARTCHAR 2440
ENCODING 9280
SWIDTH 960 0
DWIDTH 14 0
BBX 14 14 0 -2
BITMAP
0000
0828
0828
7f28
0800
1030
11c0
1000
2000
2000
2200
4200
41f0
0000
ENDCHAR
STARTCHAR 2441
ENCODING 9281
SWIDTH 960 0
DWIDTH 14 0
BBX 14 14 0 -2
BITMAP
0400
0400
0400
3fc0
0400
0800
09c0
0a20
1c10
1010
0010
0060
0780
0000
ENDCHAR
STARTCHAR 2442
ENCODING 9282
SWIDTH 960 0
DWIDTH 14 0
BBX 14 14 0 -2
BITMAP
0800
0828
0828
7fa8
0800
1000
1380
1440
3820
2020
0020
00c0
0f00
0000
ENDCHAR
STARTCHAR 2443
ENCODING 9283
SWIDTH 960 0
DWIDTH 14 0
BBX 14 14 0 -2
BITMAP
0000
0000
0000
0000
0000
0000
03c0
3c20
0010
0010
0020
00c0
0700
0000
ENDCHAR
STARTCHAR 2444
ENCODING 9284
SWIDTH 960 0
DWIDTH 14 0
BBX 14 14 0 -2
BITMAP
0000
0000
0000
03e0
0c10
7008
0008
0008
0010
0060
0380
0000
0000
0000
ENDCHAR
STARTCHAR 2445
ENCODING 9285
SWIDTH 960 0
DWIDTH 14 0
BBX 14 14 0 -2
BITMAP
0000
0028
0028
07e8
1820
e010
0010
0010
0020
00c0
0700
0000
0000
0000
ENDCHAR
STARTCHAR 2446
ENCODING 9286
SWIDTH 960 0
DWIDTH 14 0
BBX 14 14 0 -2
BITMAP
0000
0038
07e0
7880
0100
0100
0200
0200
0200
0200
0200
0100
00e0
0000
ENDCHAR
STARTCHAR 2447
ENCODING 9287
SWIDTH 960 0
DWIDTH 14 0
BBX 14 14 0 -2
BITMAP
0000
0070
0f80
f128
0228
0228
0400
0400
0400
0400
0400
0200
01c0
0000
ENDCHAR
STARTCHAR 2448
ENCODING 9288
SWIDTH 960 0
DWIDTH 14 0
BBX 14 14 0 -2
BITMAP
0000
0400
0400
0400
0200
0270
0380
0600
0800
1000
1000
0800
07f0
0000
ENDCHAR
STARTCHAR 2449
ENCODING 9289
SWIDTH 960 0
DWIDTH 14 0
BBX 14 14 0 -2
BITMAP
0000
0800
0828
0828
0428
04e0
0700
0c00
1000
2000
2000
1000
0fe0
0000
ENDCHAR
STARTCHAR 244a
ENCODING 9290
SWIDTH 960 0
DWIDTH 14 0
BBX 14 14 0 -2
BITMAP
0800
0800
7f00
0860
1010
1080
2080
2080
4080
0780
08c0
08a0
0700
0000
ENDCHAR
STARTCHAR 244b
ENCODING 9291
SWIDTH 960 0
DWIDTH 14 0
BBX 14 14 0 -2
BITMAP
0000
1000
1000
1070
1380
2000
2000
2000
2000
2200
2100
28f8
1000
0000
ENDCHAR
STARTCHAR 244c
ENCODING 9292
SWIDTH 960 0
DWIDTH 14 0
BBX 14 14 0 -2
BITMAP
0000
0080
1080
1080
17e0
1910
3108
3208
2a08
4c08
4c68
3490
0068
0000
ENDCHAR
STARTCHAR 244d
ENCODING 9293
SWIDTH 960 0
DWIDTH 14 0
BBX 14 14 0 -2
BITMAP
0800
0800
0800
0800
7ce0
0b10
0c10
0810
1810
1810
28f0
4918
08e0
0000
ENDCHAR
STARTCHAR 244e
ENCODING 9294
SWIDTH 960 0
DWIDTH 14 0
BBX 14 14 0 -2
BITMAP
0000
0000
0780
1a40
2220
2210
4410
4410
4810
4820
3020
00c0
0300
0000
ENDCHAR
STARTCHAR 244f
ENCODING 9295
SWIDTH 960 0
DWIDTH 14 0
BBX 14 14 0 -2
BITMAP
0040
2040
2040
2070
27c0
4040
4040
4040
4040
43c0
4470
5448
2380
0000
ENDCHAR
STARTCHAR 2450
ENCODING 9296
SWIDTH 960 0
DWIDTH 14 0
BBX 14 14 0 -2
BITMAP
00a8
40a8
4088
40e0
4f80
8080
8080
8080
8080
8780
88e0
a890
4700
0000
ENDCHAR
STARTCHAR 2451
ENCODING 9297
SWIDTH 960 0
DWIDTH 14 0
BBX 14 14 0 -2
BITMAP
00b0
40c8
40c8
40f0
4f80
8080
8080
8080
8080
8780
88e0
a890
4700
0000
ENDCHAR
STARTCHAR 2452
ENCODING 9298
SWIDTH 960 0
DWIDTH 14 0
BBX 14 14 0 -2
BITMAP
0000
0100
0600
3c00
0820
1020
1030
2028
2020
2040
2040
1080
0f00
0000
ENDCHAR
STARTCHAR 2453
ENCODING 9299
SWIDTH 960 0
DWIDTH 14 0
BBX 14 14 0 -2
BITMAP
0000
0228
0c28
7828
1040
2040
2060
4050
4040
4080
4080
2100
1e00
0000
ENDCHAR
STARTCHAR 2454
ENCODING 9300
SWIDTH 960 0
DWIDTH 14 0
BBX 14 14 0 -2
BITMAP
0030
0248
0c48
7830
1040
2040
2060
4050
4040
4080
4080
2100
1e00
0000
ENDCHAR
STARTCHAR 2455
ENCODING 9301
SWIDTH 960 0
DWIDTH 14 0
BBX 14 14 0 -2
BITMAP
0000
0800
0700
0100
0200
0400
0200
2120
2090
4088
8088
1100
0e00
0000
ENDCHAR
STARTCHAR 2456
ENCODING 9302
SWIDTH 960 0
DWIDTH 14 0
BBX 14 14 0 -2
BITMAP
0000
0850
0750
0150
0200
0400
0200
2120
2090
4088
8088
1100
0e00
0000
ENDCHAR
STARTCHAR 2457
ENCODING 9303
SWIDTH 960 0
DWIDTH 14 0
BBX 14 14 0 -2
BITMAP
0000
0860
0790
0190
0260
0400
0200
2120
2090
4088
8088
1100
0e00
0000
ENDCHAR
STARTCHAR 2458
ENCODING 9304
SWIDTH 960 0
DWIDTH 14 0
BBX 14 14 0 -2
BITMAP
0000
0000
0000
0000
0c00
1200
2100
4080
8060
0018
0000
0000
0000
0000
ENDCHAR
STARTCHAR 2459
ENCODING 9305
SWIDTH 960 0
DWIDTH 14 0
BBX 14 14 0 -2
BITMAP
0000
0000
0050
0050
0c50
1200
2100
4080
8060
0018
0000
0000
0000
0000
ENDCHAR
STARTCHAR 245a
ENCODING 9306
SWIDTH 960 0
DWIDTH 14 0
BBX 14 14 0 -2
BITMAP
0000
0060
0090
0090
0c60
1200
2100
4080
8060
0018
0000
0000
0000
0000
ENDCHAR
STARTCHAR 245b
ENCODING 9307
SWIDTH 960 0
DWIDTH 14 0
BBX 14 14 0 -2
BITMAP
0000
27f0
2040
2040
2070
47c0
4040
4040
4040
43c0
4470
5448
2380
0000
ENDCHAR
STARTCHAR 245c
ENCODING 9308
SWIDTH 960 0
DWIDTH 14 0
BBX 14 14 0 -2
BITMAP
0028
4fe8
40a8
4080
40f0
8f80
8080
8080
8080
8780
88e0
a890
4700
0000
ENDCHAR
STARTCHAR 245d
ENCODING 9309
SWIDTH 960 0
DWIDTH 14 0
BBX 14 14 0 -2
BITMAP
0030
4fc8
40c8
40b0
40e0
8f80
8080
8080
8080
8780
88e0
a890
4700
0000
ENDCHAR
STARTCHAR 245e
ENCODING 9310
SWIDTH 960 0
DWIDTH 14 0
BBX 14 14 0 -2
BITMAP
0100
0100
3fe0
0100
0100
01c0
3f00
0100
0100
1f00
21c0
2120
1e00
0000
ENDCHAR
STARTCHAR 245f
ENCODING 9311
SWIDTH 960 0
DWIDTH 14 0
BBX 14 14 0 -2
BITMAP
0000
0000
3e00
0200
0200
0420
0420
1fe0
6830
8848
9040
6080
0100
0000
ENDCHAR
STARTCHAR 2460
ENCODING 9312
SWIDTH 960 0
DWIDTH 14 0
BBX 14 14 0 -2
BITMAP
0800
0800
7e00
0860
0810
3808
4800
4800
5840
3020
1020
1020
0fc0
0000
ENDCHAR
STARTCHAR 2461
ENCODING 9313
SWIDTH 960 0
DWIDTH 14 0
BBX 14 14 0 -2
BITMAP
0000
0080
1080
1080
13c0
1ca0
1110
2908
2a08
4608
4408
4a10
3060
0000
ENDCHAR
STARTCHAR 2462
ENCODING 9314
SWIDTH 960 0
DWIDTH 14 0
BBX 14 14 0 -2
BITMAP
0200
0200
0200
1f80
0200
0240
3f80
0400
0408
0408
0410
0220
01c0
0000
ENDCHAR
STARTCHAR 2463
ENCODING 9315
SWIDTH 960 0
DWIDTH 14 0
BBX 14 14 0 -2
BITMAP
0000
0000
0000
0000
0100
0880
09e0
0e10
3c10
0460
0200
0200
0100
0100
ENDCHAR
STARTCHAR 2464
ENCODING 9316
SWIDTH 960 0
DWIDTH 14 0
BBX 14 14 0 -2
BITMAP
0100
0080
0040
1000
10f0
0b08
1c08
6408
0270
0200
0100
0100
0080
0080
ENDCHAR
STARTCHAR 2465
ENCODING 9317
SWIDTH 960 0
DWIDTH 14 0
BBX 14 14 0 -2
BITMAP
0000
0000
0000
0000
0100
0100
21e0
2710
2910
3110
2320
21c0
0100
0200
ENDCHAR
STARTCHAR 2466
ENCODING 9318
SWIDTH 960 0
DWIDTH 14 0
BBX 14 14 0 -2
BITMAP
0000
0100
2080
21e0
2290
2488
2888
3088
3488
2290
21e0
0080
0100
0200
ENDCHAR
STARTCHAR 2467
ENCODING 9319
SWIDTH 960 0
DWIDTH 14 0
BBX 14 14 0 -2
BITMAP
0000
0000
0000
0100
0100
01e0
0100
0100
0100
0f00
11c0
1120
0e00
0000
ENDCHAR
STARTCHAR 2468
ENCODING 9320
SWIDTH 960 0
DWIDTH 14 0
BBX 14 14 0 -2
BITMAP
0100
0100
0100
0130
01c0
0100
0100
0100
0100
1f80
2160
2110
1e00
0000
ENDCHAR
STARTCHAR 2469
ENCODING 9321
SWIDTH 960 0
DWIDTH 14 0
BBX 14 14 0 -2
BITMAP
0200
0100
00c0
0000
1000
1000
11e0
1610
1810
1010
0020
00c0
0300
0000
ENDCHAR
STARTCHAR 246a
ENCODING 9322
SWIDTH 960 0
DWIDTH 14 0
BBX 14 14 0 -2
BITMAP
0080
0840
0840
0840
1040
1040
1040
1440
0840
0080
0080
0100
0600
0000
ENDCHAR
STARTCHAR 246b
ENCODING 9323
SWIDTH 960 0
DWIDTH 14 0
BBX 14 14 0 -2
BITMAP
0000
0f80
0100
0200
0400
0f80
1840
2020
4020
0720
08c0
0880
0700
0000
ENDCHAR
STARTCHAR 246c
ENCODING 9324
SWIDTH 960 0
DWIDTH 14 0
BBX 14 14 0 -2
BITMAP
0000
1000
1000
1380
1440
f840
1840
1040
3040
3040
5040
9048
1030
1000
ENDCHAR
STARTCHAR 246d
ENCODING 9325
SWIDTH 960 0
DWIDTH 14 0
BBX 14 14 0 -2
BITMAP
0000
0f80
0080
0100
0200
07c0
0820
1010
2010
0010
0020
00c0
0700
0000
ENDCHAR
STARTCHAR 246e
ENCODING 9326
SWIDTH 960 0
DWIDTH 14 0
BBX 14 14 0 -2
BITMAP
0000
0000
0000
0400
0400
0400
1ee0
0510
0610
0c10
0c10
1420
0440
0000
ENDCHAR
STARTCHAR 246f
ENCODING 9327
SWIDTH 960 0
DWIDTH 14 0
BBX 14 14 0 -2
BITMAP
0800
0800
0800
1ce0
6f10
0c08
0808
1808
1808
2810
4820
08c0
0800
0000
ENDCHAR
STARTCHAR 2470
ENCODING 9328
SWIDTH 960 0
DWIDTH 14 0
BBX 14 14 0 -2
BITMAP
0000
0f80
0080
0100
0100
03e0
0e10
1208
2408
2408
28c8
1930
00e0
0000
ENDCHAR
STARTCHAR 2471
ENCODING 9329
SWIDTH 960 0
DWIDTH 14 0
BBX 14 14 0 -2
BITMAP
0000
0f80
0100
07c0
0820
1020
0620
09c0
0700
0800
1ce0
2310
4038
0000
ENDCHAR
STARTCHAR 2472
ENCODING 9330
SWIDTH 960 0
DWIDTH 14 0
BBX 14 14 0 -2
BITMAP
0200
0200
03c0
1c00
0418
0f20
18c0
2180
0280
0480
0800
0800
07e0
0000
ENDCHAR
STARTCHAR 2473
ENCODING 9331
SWIDTH 960 0
DWIDTH 14 0
BBX 14 14 0 -2
BITMAP
0100
0100
0100
0200
0200
0400
0400
0f00
0880
1080
1088
2090
2060
0000
ENDCHAR
STARTCHAR 2521
ENCODING 9505
SWIDTH 960 0
DWIDTH 14 0
BBX 14 14 0 -2
BITMAP
0000
0000
0000
0000
0000
0000
1fe0
0020
0240
0380
0200
0400
0800
0000
ENDCHAR
STARTCHAR 2522
ENCODING 9506
SWIDTH 960 0
DWIDTH 14 0
BBX 14 14 0 -2
BITMAP
0000
0000
7ff0
0010
0220
0240
0380
0200
0200
0400
0400
0800
3000
0000
ENDCHAR
STARTCHAR 2523
ENCODING 9507
SWIDTH 960 0
DWIDTH 14 0
BBX 14 14 0 -2
BITMAP
0000
0000
0000
0000
0020
0040
0080
0300
1d00
0100
0100
0100
0100
0000
ENDCHAR
STARTCHAR 2524
ENCODING 9508
SWIDTH 960 0
DWIDTH 14 0
BBX 14 14 0 -2
BITMAP
0000
0020
0020
0040
0080
0300
0d00
3100
0100
0100
0100
0100
0100
0000
ENDCHAR
STARTCHAR 2525
ENCODING 9509
SWIDTH 960 0
DWIDTH 14 0
BBX 14 14 0 -2
BITMAP
0000
0000
0000
0000
0100
0100
1fe0
1020
1020
0020
0040
0080
0300
0000
ENDCHAR
STARTCHAR 2526
ENCODING 9510
SWIDTH 960 0
DWIDTH 14 0
BBX 14 14 0 -2
BITMAP
0000
0100
0100
0100
3ff0
2010
2010
2010
0020
0020
0040
0180
0600
0000
ENDCHAR
STARTCHAR 2527
ENCODING 9511
SWIDTH 960 0
DWIDTH 14 0
BBX 14 14 0 -2
BITMAP
0000
0000
0000
0000
0000
0000
1fc0
0200
0200
0200
0200
0200
3fe0
0000
ENDCHAR
STARTCHAR 2528
ENCODING 9512
SWIDTH 960 0
DWIDTH 14 0
BBX 14 14 0 -2
BITMAP
0000
0000
0000
3fe0
0200
0200
0200
0200
0200
0200
7ff0
0000
0000
0000
ENDCHAR
STARTCHAR 2529
ENCODING 9513
SWIDTH 960 0
DWIDTH 14 0
BBX 14 14 0 -2
BITMAP
0000
0000
0000
0000
0080
0080
1fe0
0080
0180
0280
0480
1880
0080
0000
ENDCHAR
STARTCHAR 252a
ENCODING 9514
SWIDTH 960 0
DWIDTH 14 0
BBX 14 14 0 -2
BITMAP
0000
0040
0040
0040
3ff8
00c0
00c0
0140
0240
0440
0840
3040
00c0
0000
ENDCHAR
STARTCHAR 252b
ENCODING 9515
SWIDTH 960 0
DWIDTH 14 0
BBX 14 14 0 -2
BITMAP
0000
0200
0200
0200
3ff0
0210
0210
0210
0410
0410
0810
1020
20c0
0000
ENDCHAR
STARTCHAR 252c
ENCODING 9516
SWIDTH 960 0
DWIDTH 14 0
BBX 14 14 0 -2
BITMAP
0000
0428
0428
0428
7fe0
0420
0420
0420
0820
0820
1020
2040
4180
0000
ENDCHAR
STARTCHAR 252d
ENCODING 9517
SWIDTH 960 0
DWIDTH 14 0
BBX 14 14 0 -2
BITMAP
0000
0400
0400
04e0
0700
3a00
0200
02f0
0700
7900
0100
0080
0080
0080
ENDCHAR
STARTCHAR 252e
ENCODING 9518
SWIDTH 960 0
DWIDTH 14 0
BBX 14 14 0 -2
BITMAP
0000
0428
0428
04e8
0700
3a00
0200
02f0
0700
7900
0100
0080
0080
0080
ENDCHAR
STARTCHAR 252f
ENCODING 9519
SWIDTH 960 0
DWIDTH 14 0
BBX 14 14 0 -2
BITMAP
0000
0200
0200
03e0
0420
0820
1040
2040
0080
0100
0200
0c00
3000
0000
ENDCHAR
STARTCHAR 2530
ENCODING 9520
SWIDTH 960 0
DWIDTH 14 0
BBX 14 14 0 -2
BITMAP
0000
0428
0428
07e8
0840
1040
2080
4080
0100
0200
0400
1800
6000
0000
ENDCHAR
STARTCHAR 2531
ENCODING 9521
SWIDTH 960 0
DWIDTH 14 0
BBX 14 14 0 -2
BITMAP
0000
1000
1000
1000
1ff0
1080
1080
2080
4100
0100
0200
0400
1800
0000
ENDCHAR
STARTCHAR 2532
ENCODING 9522
SWIDTH 960 0
DWIDTH 14 0
BBX 14 14 0 -2
BITMAP
0028
1028
1028
1000
1ff0
1080
1080
2080
4100
0100
0200
0400
1800
0000
ENDCHAR
STARTCHAR 2533
ENCODING 9523
SWIDTH 960 0
DWIDTH 14 0
BBX 14 14 0 -2
BITMAP
0000
0000
0000
3ff0
0010
0010
0010
0010
0010
0010
3ff0
0010
0000
0000
ENDCHAR
STARTCHAR 2534
ENCODING 9524
SWIDTH 960 0
DWIDTH 14 0
BBX 14 14 0 -2
BITMAP
0028
0028
0028
7fe0
0020
0020
0020
0020
0020
0020
7fe0
0020
0000
0000
ENDCHAR
STARTCHAR 2535
ENCODING 9525
SWIDTH 960 0
DWIDTH 14 0
BBX 14 14 0 -2
BITMAP
0000
0840
0840
0840
0840
7ff8
0840
0840
0840
0840
0080
0100
0600
0000
ENDCHAR
STARTCHAR 2536
ENCODING 9526
SWIDTH 960 0
DWIDTH 14 0
BBX 14 14 0 -2
BITMAP
0000
0028
10a8
10a8
1080
fff0
1080
1080
1080
1080
0100
0200
0c00
0000
ENDCHAR
STARTCHAR 2537
ENCODING 9527
SWIDTH 960 0
DWIDTH 14 0
BBX 14 14 0 -2
BITMAP
0000
0000
0c00
0200
0008
1808
0410
0010
0020
0040
0080
0300
1c00
0000
ENDCHAR
STARTCHAR 2538
ENCODING 9528
SWIDTH 960 0
DWIDTH 14 0
BBX 14 14 0 -2
BITMAP
0000
0028
1828
0428
0000
3010
0810
0020
0040
0080
0100
0600
3800
0000
ENDCHAR
STARTCHAR 2539
ENCODING 9529
SWIDTH 960 0
DWIDTH 14 0
BBX 14 14 0 -2
BITMAP
0000
0000
0000
3fc0
0040
0040
0080
0080
0180
0240
0420
1810
6010
0000
ENDCHAR
STARTCHAR 253a
ENCODING 9530
SWIDTH 960 0
DWIDTH 14 0
BBX 14 14 0 -2
BITMAP
0000
0028
0028
7fa8
0080
0080
0100
0100
0300
0480
0840
3020
c020
0000
ENDCHAR
STARTCHAR 253b
ENCODING 9531
SWIDTH 960 0
DWIDTH 14 0
BBX 14 14 0 -2
BITMAP
0000
0800
0800
0800
08f0
0f10
7820
0840
0880
0800
0800
0400
03e0
0000
ENDCHAR
STARTCHAR 253c
ENCODING 9532
SWIDTH 960 0
DWIDTH 14 0
BBX 14 14 0 -2
BITMAP
0000
0828
0828
0828
08f0
0f10
7820
0840
0880
0800
0800
0400
03f0
0000
ENDCHAR
STARTCHAR 253d
ENCODING 9533
SWIDTH 960 0
DWIDTH 14 0
BBX 14 14 0 -2
BITMAP
0000
0000
0020
2020
1020
0820
0840
0040
0080
0100
0200
0c00
3000
0000
ENDCHAR
STARTCHAR 253e
ENCODING 9534
SWIDTH 960 0
DWIDTH 14 0
BBX 14 14 0 -2
BITMAP
0000
0028
0028
2028
1040
0840
0840
0080
0080
0100
0200
0c00
3000
0000
ENDCHAR
STARTCHAR 253f
ENCODING 9535
SWIDTH 960 0
DWIDTH 14 0
BBX 14 14 0 -2
BITMAP
0000
0100
0100
03f0
0410
0810
3320
00a0
0040
0080
0100
0600
1800
0000
ENDCHAR
STARTCHAR 2540
ENCODING 9536
SWIDTH 960 0
DWIDTH 14 0
BBX 14 14 0 -2
BITMAP
0028
0228
0228
07e0
0820
1020
6640
0140
0080
0100
0200
0c00
3000
0000
ENDCHAR
STARTCHAR 2541
ENCODING 9537
SWIDTH 960 0
DWIDTH 14 0
BBX 14 14 0 -2
BITMAP
0000
0040
0180
1f00
0100
0100
7ff0
0100
0100
0100
0200
0400
1800
0000
ENDCHAR
STARTCHAR 2542
ENCODING 9538
SWIDTH 960 0
DWIDTH 14 0
BBX 14 14 0 -2
BITMAP
0028
00e8
0328
3e00
0200
0200
ffe0
0200
0200
0200
0400
0800
3000
0000
ENDCHAR
STARTCHAR 2543
ENCODING 9539
SWIDTH 960 0
DWIDTH 14 0
BBX 14 14 0 -2
BITMAP
0000
0000
0000
0000
0000
0000
0420
1220
0a20
0840
0040
0080
0300
0000
ENDCHAR
STARTCHAR 2544
ENCODING 9540
SWIDTH 960 0
DWIDTH 14 0
BBX 14 14 0 -2
BITMAP
0000
0000
0410
2410
2210
1210
1020
0020
0040
0040
0080
0300
0c00
0000
ENDCHAR
STARTCHAR 2545
ENCODING 9541
SWIDTH 960 0
DWIDTH 14 0
BBX 14 14 0 -2
BITMAP
0000
0028
0828
4828
4440
2440
2080
0080
0100
0100
0200
0c00
3000
0000
ENDCHAR
STARTCHAR 2546
ENCODING 9542
SWIDTH 960 0
DWIDTH 14 0
BBX 14 14 0 -2
BITMAP
0000
0000
1fe0
0000
0000
0000
7ff0
0100
0100
0100
0200
0400
1800
0000
ENDCHAR
STARTCHAR 2547
ENCODING 9543
SWIDTH 960 0
DWIDTH 14 0
BBX 14 14 0 -2
BITMAP
0028
0028
1fe8
0000
0000
0000
7ff0
0100
0100
0100
0200
0400
1800
0000
ENDCHAR
STARTCHAR 2548
ENCODING 9544
SWIDTH 960 0
DWIDTH 14 0
BBX 14 14 0 -2
BITMAP
0000
0400
0400
0400
0400
0400
0700
04c0
0420
0400
0400
0400
0400
0400
ENDCHAR
STARTCHAR 2549
ENCODING 9545
SWIDTH 960 0
DWIDTH 14 0
BBX 14 14 0 -2
BITMAP
0000
0850
0850
0850
0800
0800
0e00
0980
0840
0800
0800
0800
0800
0800
ENDCHAR
STARTCHAR 254a
ENCODING 9546
SWIDTH 960 0
DWIDTH 14 0
BBX 14 14 0 -2
BITMAP
0000
0100
0100
0100
7ff0
0100
0100
0100
0200
0200
0400
0800
3000
0000
ENDCHAR
STARTCHAR 254b
ENCODING 9547
SWIDTH 960 0
DWIDTH 14 0
BBX 14 14 0 -2
BITMAP
0000
0000
0000
1fe0
0000
0000
0000
0000
0000
7ff8
0000
0000
0000
0000
ENDCHAR
STARTCHAR 254c
ENCODING 9548
SWIDTH 960 0
DWIDTH 14 0
BBX 14 14 0 -2
BITMAP
0000
0000
1fe0
0020
0020
0c40
0340
0080
0140
0220
0410
1800
6000
0000
ENDCHAR
STARTCHAR 254d
ENCODING 9549
SWIDTH 960 0
DWIDTH 14 0
BBX 14 14 0 -2
BITMAP
0000
0400
0200
3fc0
0040
0080
0100
0200
0680
1a60
6210
0200
0200
0000
ENDCHAR
STARTCHAR 254e
ENCODING 9550
SWIDTH 960 0
DWIDTH 14 0
BBX 14 14 0 -2
BITMAP
0000
0020
0020
0020
0020
0040
0040
0080
0080
0100
0200
0c00
3000
0000
ENDCHAR
STARTCHAR 254f
ENCODING 9551
SWIDTH 960 0
DWIDTH 14 0
BBX 14 14 0 -2
BITMAP
0000
0000
0000
0000
0880
0840
0820
0810
1010
1008
2008
4008
0000
0000
ENDCHAR
STARTCHAR 2550
ENCODING 9552
SWIDTH 960 0
DWIDTH 14 0
BBX 14 14 0 -2
BITMAP
0000
0028
0028
0028
1100
1080
1040
1020
2020
2010
4010
8010
0000
0000
ENDCHAR
STARTCHAR 2551
ENCODING 9553
SWIDTH 960 0
DWIDTH 14 0
BBX 14 14 0 -2
BITMAP
0030
0048
0048
0030
1100
1080
1040
1020
2020
2010
4010
8010
0000
0000
ENDCHAR
STARTCHAR 2552
ENCODING 9554
SWIDTH 960 0
DWIDTH 14 0
BBX 14 14 0 -2
BITMAP
0000
0000
1000
1000
1000
10e0
1f00
1000
1000
1000
1000
0ff0
0000
0000
ENDCHAR
STARTCHAR 2553
ENCODING 9555
SWIDTH 960 0
DWIDTH 14 0
BBX 14 14 0 -2
BITMAP
0000
0000
1028
1028
1028
11e0
1e00
1000
1000
1000
1000
0ff0
0000
0000
ENDCHAR
STARTCHAR 2554
ENCODING 9556
SWIDTH 960 0
DWIDTH 14 0
BBX 14 14 0 -2
BITMAP
0000
0030
1048
1048
1030
11e0
1e00
1000
1000
1000
1000
0ff0
0000
0000
ENDCHAR
STARTCHAR 2555
ENCODING 9557
SWIDTH 960 0
DWIDTH 14 0
BBX 14 14 0 -2
BITMAP
0000
0000
0000
3ff0
0010
0010
0020
0020
0040
0080
0100
0600
1800
0000
ENDCHAR
STARTCHAR 2556
ENCODING 9558
SWIDTH 960 0
DWIDTH 14 0
BBX 14 14 0 -2
BITMAP
0000
0028
0028
ffe8
0040
0040
0080
0080
0100
0200
0400
1800
6000
0000
ENDCHAR
STARTCHAR 2557
ENCODING 9559
SWIDTH 960 0
DWIDTH 14 0
BBX 14 14 0 -2
BITMAP
0000
0030
0048
ffc8
0070
0040
0080
0080
0100
0200
0400
1800
6000
0000
ENDCHAR
STARTCHAR 2558
ENCODING 9560
SWIDTH 960 0
DWIDTH 14 0
BBX 14 14 0 -2
BITMAP
0000
0000
0000
0000
0c00
1200
2100
4080
8040
0020
0018
0000
0000
0000
ENDCHAR
STARTCHAR 2559
ENCODING 9561
SWIDTH 960 0
DWIDTH 14 0
BBX 14 14 0 -2
BITMAP
0000
0000
0050
0050
0c50
1200
2100
4080
8040
0020
0018
0000
0000
0000
ENDCHAR
STARTCHAR 255a
ENCODING 9562
SWIDTH 960 0
DWIDTH 14 0
BBX 14 14 0 -2
BITMAP
0000
0060
0090
0090
0c60
1200
2100
4080
8040
0020
0018
0000
0000
0000
ENDCHAR
STARTCHAR 255b
ENCODING 9563
SWIDTH 960 0
DWIDTH 14 0
BBX 14 14 0 -2
BITMAP
0000
0200
0200
0200
7ff0
0200
0200
1240
1220
1220
2210
2210
4200
0600
ENDCHAR
STARTCHAR 255c
ENCODING 9564
SWIDTH 960 0
DWIDTH 14 0
BBX 14 14 0 -2
BITMAP
0000
0228
0228
0228
7ff0
0200
0200
1240
1220
1220
2210
2210
4200
0600
ENDCHAR
STARTCHAR 255d
ENCODING 9565
SWIDTH 960 0
DWIDTH 14 0
BBX 14 14 0 -2
BITMAP
0000
0230
0248
0248
7ff0
0200
0200
1240
1220
1220
2210
2210
4200
0600
ENDCHAR
STARTCHAR 255e
ENCODING 9566
SWIDTH 960 0
DWIDTH 14 0
BBX 14 14 0 -2
BITMAP
0000
0000
0000
7ff0
0020
0020
0040
0080
1900
0600
0100
0080
0000
0000
ENDCHAR
STARTCHAR 255f
ENCODING 9567
SWIDTH 960 0
DWIDTH 14 0
BBX 14 14 0 -2
BITMAP
0000
0400
0300
00c0
0020
0800
0600
0180
0040
1000
0c00
0300
00c0
0020
ENDCHAR
STARTCHAR 2560
ENCODING 9568
SWIDTH 960 0
DWIDTH 14 0
BBX 14 14 0 -2
BITMAP
0000
0200
0200
0200
0400
0400
0440
0840
0820
1060
1790
7810
0010
0000
ENDCHAR
STARTCHAR 2561
ENCODING 9569
SWIDTH 960 0
DWIDTH 14 0
BBX 14 14 0 -2
BITMAP
0000
0040
0040
0040
1840
0680
0180
0140
0120
0200
0400
1800
6000
0000
ENDCHAR
STARTCHAR 2562
ENCODING 9570
SWIDTH 960 0
DWIDTH 14 0
BBX 14 14 0 -2
BITMAP
0000
0000
3fc0
0400
0400
0400
7ff0
0400
0400
0400
0400
03e0
0000
0000
ENDCHAR
STARTCHAR 2563
ENCODING 9571
SWIDTH 960 0
DWIDTH 14 0
BBX 14 14 0 -2
BITMAP
0000
0000
0000
0000
0000
0400
04e0
0720
3c40
0280
0200
0100
0100
0100
ENDCHAR
STARTCHAR 2564
ENCODING 9572
SWIDTH 960 0
DWIDTH 14 0
BBX 14 14 0 -2
BITMAP
0000
0800
0800
04f0
0f10
7420
0440
0280
0200
0200
0100
0100
0100
0000
ENDCHAR
STARTCHAR 2565
ENCODING 9573
SWIDTH 960 0
DWIDTH 14 0
BBX 14 14 0 -2
BITMAP
0000
0000
0000
0000
0000
0000
1f80
0080
0080
0100
0100
3fe0
0000
0000
ENDCHAR
STARTCHAR 2566
ENCODING 9574
SWIDTH 960 0
DWIDTH 14 0
BBX 14 14 0 -2
BITMAP
0000
0000
0000
0000
3fc0
0040
0040
0080
0080
0080
7ff8
0000
0000
0000
ENDCHAR
STARTCHAR 2567
ENCODING 9575
SWIDTH 960 0
DWIDTH 14 0
BBX 14 14 0 -2
BITMAP
0000
0000
0000
0000
0000
0fc0
0040
0040
0fc0
0040
0040
0040
0fc0
0000
ENDCHAR
STARTCHAR 2568
ENCODING 9576
SWIDTH 960 0
DWIDTH 14 0
BBX 14 14 0 -2
BITMAP
0000
0000
3fe0
0020
0020
0020
1fe0
0020
0020
0020
0020
3fe0
0020
0000
ENDCHAR
STARTCHAR 2569
ENCODING 9577
SWIDTH 960 0
DWIDTH 14 0
BBX 14 14 0 -2
BITMAP
0000
0000
1fe0
0000
0000
3ff0
0010
0010
0020
0040
0080
0300
1c00
0000
ENDCHAR
STARTCHAR 256a
ENCODING 9578
SWIDTH 960 0
DWIDTH 14 0
BBX 14 14 0 -2
BITMAP
0000
1040
1040
1040
1040
1040
1040
1040
0080
0080
0100
0200
0c00
0000
ENDCHAR
STARTCHAR 256b
ENCODING 9579
SWIDTH 960 0
DWIDTH 14 0
BBX 14 14 0 -2
BITMAP
0000
0000
0100
0900
0900
0900
0910
0910
0920
1120
1140
2180
4000
0000
ENDCHAR
STARTCHAR 256c
ENCODING 9580
SWIDTH 960 0
DWIDTH 14 0
BBX 14 14 0 -2
BITMAP
0000
0800
0800
0800
0800
0800
0800
0810
0810
0820
0840
0980
0e00
0000
ENDCHAR
STARTCHAR 256d
ENCODING 9581
SWIDTH 960 0
DWIDTH 14 0
BBX 14 14 0 -2
BITMAP
0000
0000
0000
3ff0
2010
2010
2010
2010
2010
2010
3ff0
2010
0000
0000
ENDCHAR
STARTCHAR 256e
ENCODING 9582
SWIDTH 960 0
DWIDTH 14 0
BBX 14 14 0 -2
BITMAP
0000
0000
0000
0000
0000
0000
1fe0
1020
1020
1040
0040
0180
0600
0000
ENDCHAR
STARTCHAR 256f
ENCODING 9583
SWIDTH 960 0
DWIDTH 14 0
BBX 14 14 0 -2
BITMAP
0000
0000
3ff0
2010
2010
2010
2010
0020
0020
0040
0080
0300
0c00
0000
ENDCHAR
STARTCHAR 2570
ENCODING 9584
SWIDTH 960 0
DWIDTH 14 0
BBX 14 14 0 -2
BITMAP
0000
0100
0100
0100
3fe0
1100
1100
1100
1100
7ff0
0100
0100
0100
0000
ENDCHAR
STARTCHAR 2571
ENCODING 9585
SWIDTH 960 0
DWIDTH 14 0
BBX 14 14 0 -2
BITMAP
0000
0000
0000
3fe0
0220
0240
0280
0200
0200
0200
7ff8
0000
0000
0000
ENDCHAR
STARTCHAR 2572
ENCODING 9586
SWIDTH 960 0
DWIDTH 14 0
BBX 14 14 0 -2
BITMAP
0000
0000
3fe0
0020
0020
0020
1fc0
0040
0080
0100
0200
0c00
3000
0000
ENDCHAR
STARTCHAR 2573
ENCODING 9587
SWIDTH 960 0
DWIDTH 14 0
BBX 14 14 0 -2
BITMAP
0000
0000
0000
3000
0c10
0010
0020
0020
0040
0080
0100
0600
3800
0000
ENDCHAR
STARTCHAR 2574
ENCODING 9588
SWIDTH 960 0
DWIDTH 14 0
BBX 14 14 0 -2
BITMAP
0000
0228
0228
0228
7fe0
4020
4020
4020
0040
0040
0080
0300
0c00
0000
ENDCHAR
STARTCHAR 2575
ENCODING 9589
SWIDTH 960 0
DWIDTH 14 0
BBX 14 14 0 -2
BITMAP
0000
0000
0000
0000
0200
0200
1fe0
0220
0220
0420
0420
0820
10c0
0000
ENDCHAR
STARTCHAR 2576
ENCODING 9590
SWIDTH 960 0
DWIDTH 14 0
BBX 14 14 0 -2
BITMAP
0000
0000
0000
0000
0000
0800
0800
0fe0
0880
1080
2080
0100
0600
0000
ENDCHAR
STARTCHAR 2621
ENCODING 9761
SWIDTH 960 0
DWIDTH 14 0
BBX 14 14 0 -2
BITMAP
0000
0200
0200
0500
0500
0880
0880
1040
1fc0
2020
2020
7070
0000
0000
ENDCHAR
STARTCHAR 2622
ENCODING 9762
SWIDTH 960 0
DWIDTH 14 0
BBX 14 14 0 -2
BITMAP
0000
3f00
10c0
1020
1020
10c0
1f80
1060
1010
1010
1060
3f80
0000
0000
ENDCHAR
STARTCHAR 2623
ENCODING 9763
SWIDTH 960 0
DWIDTH 14 0
BBX 14 14 0 -2
BITMAP
0000
1fe0
0820
0810
0800
0800
0800
0800
0800
0800
0800
1c00
0000
0000
ENDCHAR
STARTCHAR 2624
ENCODING 9764
SWIDTH 960 0
DWIDTH 14 0
BBX 14 14 0 -2
BITMAP
0000
0200
0200
0500
0500
0880
0880
1040
1040
2020
2020
7ff0
0000
0000
ENDCHAR
STARTCHAR 2625
ENCODING 9765
SWIDTH 960 0
DWIDTH 14 0
BBX 14 14 0 -2
BITMAP
0000
3fc0
1040
1020
1000
1040
1fc0
1040
1000
1000
1020
3fe0
0000
0000
ENDCHAR
STARTCHAR 2626
ENCODING 9766
SWIDTH 960 0
DWIDTH 14 0
BBX 14 14 0 -2
BITMAP
0000
1ff0
1020
2040
0080
0100
0100
0200
0400
0808
1010
3ff0
0000
0000
ENDCHAR
STARTCHAR 2627
ENCODING 9767
SWIDTH 960 0
DWIDTH 14 0
BBX 14 14 0 -2
BITMAP
0000
3870
1020
1020
1020
1020
1fe0
1020
1020
1020
1020
3870
0000
0000
ENDCHAR
STARTCHAR 2628
ENCODING 9768
SWIDTH 960 0
DWIDTH 14 0
BBX 14 14 0 -2
BITMAP
0000
0700
18c0
2020
4010
4890
4f90
4890
4010
2020
18c0
0700
0000
0000
ENDCHAR
STARTCHAR 2629
ENCODING 9769
SWIDTH 960 0
DWIDTH 14 0
BBX 14 14 0 -2
BITMAP
0000
0700
0200
0200
0200
0200
0200
0200
0200
0200
0200
0700
0000
0000
ENDCHAR
STARTCHAR 262a
ENCODING 9770
SWIDTH 960 0
DWIDTH 14 0
BBX 14 14 0 -2
BITMAP
0000
38e0
1040
1080
1100
1600
1a00
1100
1080
1040
1020
3870
0000
0000
ENDCHAR
STARTCHAR 262b
ENCODING 9771
SWIDTH 960 0
DWIDTH 14 0
BBX 14 14 0 -2
BITMAP
0000
0200
0200
0500
0500
0880
0880
1040
1040
2020
2020
7070
0000
0000
ENDCHAR
STARTCHAR 262c
ENCODING 9772
SWIDTH 960 0
DWIDTH 14 0
BBX 14 14 0 -2
BITMAP
0000
6018
3030
3050
2850
2890
2490
2510
2210
2210
2010
7038
0000
0000
ENDCHAR
STARTCHAR 262d
ENCODING 9773
SWIDTH 960 0
DWIDTH 14 0
BBX 14 14 0 -2
BITMAP
0000
3070
1820
1820
1420
1220
1120
1120
10a0
1060
1060
3820
0000
0000
ENDCHAR
STARTCHAR 262e
ENCODING 9774
SWIDTH 960 0
DWIDTH 14 0
BBX 14 14 0 -2
BITMAP
0000
1ff0
1020
2020
0000
1020
1fe0
1020
0000
0000
1010
1020
3fe0
0000
ENDCHAR
STARTCHAR 262f
ENCODING 9775
SWIDTH 960 0
DWIDTH 14 0
BBX 14 14 0 -2
BITMAP
0000
0700
18c0
2020
4010
4010
4010
4010
4010
2020
18c0
0700
0000
0000
ENDCHAR
STARTCHAR 2630
ENCODING 9776
SWIDTH 960 0
DWIDTH 14 0
BBX 14 14 0 -2
BITMAP
0000
3ff0
1020
1020
1020
1020
1020
1020
1020
1020
1020
3870
0000
0000
ENDCHAR
STARTCHAR 2631
ENCODING 9777
SWIDTH 960 0
DWIDTH 14 0
BBX 14 14 0 -2
BITMAP
0000
3f00
10c0
1020
1020
10c0
1f00
1000
1000
1000
1000
3800
0000
0000
ENDCHAR
STARTCHAR 2632
ENCODING 9778
SWIDTH 960 0
DWIDTH 14 0
BBX 14 14 0 -2
BITMAP
0000
3fc0
1040
0820
0400
0200
0100
0100
0200
0410
0820
3fe0
0000
0000
ENDCHAR
STARTCHAR 2633
ENCODING 9779
SWIDTH 960 0
DWIDTH 14 0
BBX 14 14 0 -2
BITMAP
0000
3fe0
2220
4210
0200
0200
0200
0200
0200
0200
0200
0700
0000
0000
ENDCHAR
STARTCHAR 2634
ENCODING 9780
SWIDTH 960 0
DWIDTH 14 0
BBX 14 14 0 -2
BITMAP
0000
38e0
4510
4210
0200
0200
0200
0200
0200
0200
0200
0700
0000
0000
ENDCHAR
STARTCHAR 2736
ENCODING 9781
SWIDTH 960 0
DWIDTH 14 0
BBX 14 14 0 -2
BITMAP
0000
0700
0200
0f80
3260
4210
4210
4210
3260
0f80
0200
0700
0000
0000
ENDCHAR
STARTCHAR 2636
ENCODING 9782
SWIDTH 960 0
DWIDTH 14 0
BBX 14 14 0 -2
BITMAP
0000
3870
1020
0840
0480
0300
0200
0500
0880
1040
2020
7070
0000
0000
ENDCHAR
STARTCHAR 2637
ENCODING 9783
SWIDTH 960 0
DWIDTH 14 0
BBX 14 14 0 -2
BITMAP
0000
0700
4210
2220
1240
1240
1240
0a80
0700
0200
0200
0700
0000
0000
ENDCHAR
STARTCHAR 2638
ENCODING 9784
SWIDTH 960 0
DWIDTH 14 0
BBX 14 14 0 -2
BITMAP
0000
0300
0cc0
1020
2010
2010
2010
1020
0840
0480
2490
3cf0
0000
0000
ENDCHAR
STARTCHAR 2641
ENCODING 9793
SWIDTH 960 0
DWIDTH 14 0
BBX 14 14 0 -2
BITMAP
0000
0000
0000
0040
0640
0940
1080
2080
2080
2180
1280
0c60
0000
0000
ENDCHAR
STARTCHAR 2642
ENCODING 9794
SWIDTH 960 0
DWIDTH 14 0
BBX 14 14 0 -2
BITMAP
0000
01c0
0220
0420
0420
0840
0b80
0840
0840
1040
1880
1700
2000
2000
ENDCHAR
STARTCHAR 2643
ENCODING 9795
SWIDTH 960 0
DWIDTH 14 0
BBX 14 14 0 -2
BITMAP
0000
0000
0000
0000
0c60
1280
0300
0200
0200
0400
0400
0400
0400
0000
ENDCHAR
STARTCHAR 2644
ENCODING 9796
SWIDTH 960 0
DWIDTH 14 0
BBX 14 14 0 -2
BITMAP
0000
0700
08c0
0820
0400
0700
0880
1080
1080
1100
1200
0c00
0000
0000
ENDCHAR
STARTCHAR 2645
ENCODING 9797
SWIDTH 960 0
DWIDTH 14 0
BBX 14 14 0 -2
BITMAP
0000
0000
0000
0000
0380
0440
0400
0380
0400
0800
0840
0780
0000
0000
ENDCHAR
STARTCHAR 2646
ENCODING 9798
SWIDTH 960 0
DWIDTH 14 0
BBX 14 14 0 -2
BITMAP
0000
0400
08c0
0700
0200
0400
0400
0800
0800
0600
0180
0040
0640
0380
ENDCHAR
STARTCHAR 2647
ENCODING 9799
SWIDTH 960 0
DWIDTH 14 0
BBX 14 14 0 -2
BITMAP
0000
0000
0000
0000
0cc0
1320
0220
0420
0420
0440
0840
0880
0080
0080
ENDCHAR
STARTCHAR 2648
ENCODING 9800
SWIDTH 960 0
DWIDTH 14 0
BBX 14 14 0 -2
BITMAP
0000
01c0
0220
0420
0820
0840
1fc0
1040
1080
1080
1100
0e00
0000
0000
ENDCHAR
STARTCHAR 2649
ENCODING 9801
SWIDTH 960 0
DWIDTH 14 0
BBX 14 14 0 -2
BITMAP
0000
0000
0000
0000
0100
0200
0200
0400
0400
0400
0480
0300
0000
0000
ENDCHAR
STARTCHAR 264a
ENCODING 9802
SWIDTH 960 0
DWIDTH 14 0
BBX 14 14 0 -2
BITMAP
0000
0000
0000
0000
0430
04c0
0500
0e00
0900
0900
1120
10c0
0000
0000
ENDCHAR
STARTCHAR 264b
ENCODING 9803
SWIDTH 960 0
DWIDTH 14 0
BBX 14 14 0 -2
BITMAP
0000
0700
0080
0080
0180
0280
0280
0480
0880
0880
1080
1060
0000
0000
ENDCHAR
STARTCHAR 264c
ENCODING 9804
SWIDTH 960 0
DWIDTH 14 0
BBX 14 14 0 -2
BITMAP
0000
0000
0000
0000
0840
0840
0880
0880
1080
1080
1990
1660
2000
2000
ENDCHAR
STARTCHAR 264d
ENCODING 9805
SWIDTH 960 0
DWIDTH 14 0
BBX 14 14 0 -2
BITMAP
0000
0000
0000
0000
0820
0420
0440
0440
0480
0500
0600
0800
0000
0000
ENDCHAR
STARTCHAR 264e
ENCODING 9806
SWIDTH 960 0
DWIDTH 14 0
BBX 14 14 0 -2
BITMAP
0300
0460
0380
0200
0400
0400
0380
0440
0800
0800
0600
0180
0040
0780
ENDCHAR
STARTCHAR 264f
ENCODING 9807
SWIDTH 960 0
DWIDTH 14 0
BBX 14 14 0 -2
BITMAP
0000
0000
0000
0000
0180
0640
0820
1020
1040
1040
0980
0600
0000
0000
ENDCHAR
STARTCHAR 2650
ENCODING 9808
SWIDTH 960 0
DWIDTH 14 0
BBX 14 14 0 -2
BITMAP
0000
0000
0000
1810
27e0
4480
0880
0900
1100
1100
1100
60c0
0000
0000
ENDCHAR
STARTCHAR 2651
ENCODING 9809
SWIDTH 960 0
DWIDTH 14 0
BBX 14 14 0 -2
BITMAP
0000
0000
0000
0000
01c0
0220
0420
0820
0840
1840
1880
1700
2000
2000
ENDCHAR
STARTCHAR 2652
ENCODING 9810
SWIDTH 960 0
DWIDTH 14 0
BBX 14 14 0 -2
BITMAP
0000
0000
0000
0000
01f0
0680
0840
1040
1040
1080
1100
0e00
0000
0000
ENDCHAR
STARTCHAR 2653
ENCODING 9811
SWIDTH 960 0
DWIDTH 14 0
BBX 14 14 0 -2
BITMAP
0000
0000
0000
0000
0630
09c0
1100
0200
0200
0400
0480
0300
0000
0000
ENDCHAR
STARTCHAR 2654
ENCODING 9812
SWIDTH 960 0
DWIDTH 14 0
BBX 14 14 0 -2
BITMAP
0000
0000
0000
0000
0880
0840
1040
1040
1080
1080
1100
0e00
0000
0000
ENDCHAR
STARTCHAR 2655
ENCODING 9813
SWIDTH 960 0
DWIDTH 14 0
BBX 14 14 0 -2
BITMAP
0000
0080
0080
0080
0380
0d40
1120
1120
1220
1240
0a80
0700
0400
0400
ENDCHAR
STARTCHAR 2656
ENCODING 9814
SWIDTH 960 0
DWIDTH 14 0
BBX 14 14 0 -2
BITMAP
0000
0610
0910
0120
0140
0180
0100
0300
0500
0500
0900
1100
2120
20c0
ENDCHAR
STARTCHAR 2657
ENCODING 9815
SWIDTH 960 0
DWIDTH 14 0
BBX 14 14 0 -2
BITMAP
0000
0080
0080
0080
30a0
4910
0910
0910
1220
1240
1380
0e00
0400
0400
ENDCHAR
STARTCHAR 2658
ENCODING 9816
SWIDTH 960 0
DWIDTH 14 0
BBX 14 14 0 -2
BITMAP
0000
0000
0000
0000
0820
1010
1110
2210
2220
2220
2640
1980
0000
0000
ENDCHAR
STARTCHAR 2721
ENCODING 10017
SWIDTH 960 0
DWIDTH 14 0
BBX 14 14 0 -2
BITMAP
0000
0200
0200
0500
0500
0880
0880
1040
1fc0
2020
2020
7070
0000
0000
ENDCHAR
STARTCHAR 2723
ENCODING 10018
SWIDTH 960 0
DWIDTH 14 0
BBX 14 14 0 -2
BITMAP
0000
3fc0
1040
1020
1000
1000
1f80
1060
1010
1010
1060
3f80
0000
0000
ENDCHAR
STARTCHAR 2723
ENCODING 10019
SWIDTH 960 0
DWIDTH 14 0
BBX 14 14 0 -2
BITMAP
0000
3f00
10c0
1020
1020
10c0
1f80
1060
1010
1010
1060
3f80
0000
0000
ENDCHAR
STARTCHAR 2623
ENCODING 10020
SWIDTH 960 0
DWIDTH 14 0
BBX 14 14 0 -2
BITMAP
0000
1fe0
0820
0810
0800
0800
0800
0800
0800
0800
0800
1c00
0000
0000
ENDCHAR
STARTCHAR 2725
ENCODING 10021
SWIDTH 960 0
DWIDTH 14 0
BBX 14 14 0 -2
BITMAP
0000
1fe0
0840
0840
0840
0840
0840
0840
0840
1040
1040
7ff0
4010
4010
ENDCHAR
STARTCHAR 2345
ENCODING 10022
SWIDTH 960 0
DWIDTH 14 0
BBX 14 14 0 -2
BITMAP
0000
3fc0
1040
1020
1000
1040
1fc0
1040
1000
1000
1020
3fe0
0000
0000
ENDCHAR
STARTCHAR 2345
ENCODING 10023
SWIDTH 960 0
DWIDTH 14 0
BBX 14 14 0 -2
BITMAP
0900
0900
3fc0
1020
1000
1080
1f80
1080
1000
1000
1020
3fe0
0000
0000
ENDCHAR
STARTCHAR 2728
ENCODING 10024
SWIDTH 960 0
DWIDTH 14 0
BBX 14 14 0 -2
BITMAP
0000
6730
5250
1240
1240
1240
0f80
0a80
1240
2220
2220
6730
0000
0000
ENDCHAR
STARTCHAR 2729
ENCODING 10025
SWIDTH 960 0
DWIDTH 14 0
BBX 14 14 0 -2
BITMAP
0000
0700
18c0
2020
0020
00c0
0780
00c0
0020
2020
18c0
0700
0000
0000
ENDCHAR
STARTCHAR 262d
ENCODING 10026
SWIDTH 960 0
DWIDTH 14 0
BBX 14 14 0 -2
BITMAP
0000
3830
1060
1060
10a0
1120
1220
1220
1420
1820
1820
1070
0000
0000
ENDCHAR
STARTCHAR 262d
ENCODING 10027
SWIDTH 960 0
DWIDTH 14 0
BBX 14 14 0 -2
BITMAP
0480
0300
3830
1060
10a0
10a0
1120
1220
1420
1820
1820
1070
0000
0000
ENDCHAR
STARTCHAR 262a
ENCODING 10028
SWIDTH 960 0
DWIDTH 14 0
BBX 14 14 0 -2
BITMAP
0000
3860
1090
1100
1200
1600
1a00
1100
1080
1040
1020
3870
0000
0000
ENDCHAR
STARTCHAR 272d
ENCODING 10029
SWIDTH 960 0
DWIDTH 14 0
BBX 14 14 0 -2
BITMAP
0000
07f0
0420
0420
0420
0420
0420
0420
0420
4820
4820
3070
0000
0000
ENDCHAR
STARTCHAR 234d
ENCODING 10030
SWIDTH 960 0
DWIDTH 14 0
BBX 14 14 0 -2
BITMAP
0000
3030
1020
1860
18a0
14a0
1520
2310
2210
2210
2010
7038
0000
0000
ENDCHAR
STARTCHAR 2627
ENCODING 10031
SWIDTH 960 0
DWIDTH 14 0
BBX 14 14 0 -2
BITMAP
0000
3870
1020
1020
1020
1020
1fe0
1020
1020
1020
1020
3870
0000
0000
ENDCHAR
STARTCHAR 2730
ENCODING 10032
SWIDTH 960 0
DWIDTH 14 0
BBX 14 14 0 -2
BITMAP
0000
0700
18c0
2020
4010
4010
4010
4010
4010
2020
18c0
0700
0000
0000
ENDCHAR
STARTCHAR 2731
ENCODING 10033
SWIDTH 960 0
DWIDTH 14 0
BBX 14 14 0 -2
BITMAP
0000
3ff0
1020
1020
1020
1020
1020
1020
1020
1020
1020
3870
0000
0000
ENDCHAR
STARTCHAR 2631
ENCODING 10034
SWIDTH 960 0
DWIDTH 14 0
BBX 14 14 0 -2
BITMAP
0000
3f00
10c0
1020
1020
10c0
1f00
1000
1000
1000
1000
3800
0000
0000
ENDCHAR
STARTCHAR 2343
ENCODING 10035
SWIDTH 960 0
DWIDTH 14 0
BBX 14 14 0 -2
BITMAP
0000
03d0
0c30
1010
2000
2000
2000
2000
2000
1010
0c20
03c0
0000
0000
ENDCHAR
STARTCHAR 2354
ENCODING 10036
SWIDTH 960 0
DWIDTH 14 0
BBX 14 14 0 -2
BITMAP
0000
3fe0
2220
4210
0200
0200
0200
0200
0200
0200
0200
0700
0000
0000
ENDCHAR
STARTCHAR 2735
ENCODING 10037
SWIDTH 960 0
DWIDTH 14 0
BBX 14 14 0 -2
BITMAP
0000
7070
2020
1020
1040
0840
0480
0480
0300
0100
0200
0200
0400
1800
ENDCHAR
STARTCHAR 2736
ENCODING 10038
SWIDTH 960 0
DWIDTH 14 0
BBX 14 14 0 -2
BITMAP
0000
0700
0200
0f80
3260
4210
4210
4210
3260
0f80
0200
0700
0000
0000
ENDCHAR
STARTCHAR 2636
ENCODING 10039
SWIDTH 960 0
DWIDTH 14 0
BBX 14 14 0 -2
BITMAP
0000
3870
1020
0840
0480
0300
0200
0500
0880
1040
2020
7070
0000
0000
ENDCHAR
STARTCHAR 2738
ENCODING 10040
SWIDTH 960 0
DWIDTH 14 0
BBX 14 14 0 -2
BITMAP
0000
70e0
2040
2040
2040
2040
2040
2040
2040
2040
2040
7ff0
0010
0010
ENDCHAR
STARTCHAR 2739
ENCODING 10041
SWIDTH 960 0
DWIDTH 14 0
BBX 14 14 0 -2
BITMAP
0000
70e0
2040
2040
2040
2040
20c0
1140
0e40
0040
0040
00e0
0000
0000
ENDCHAR
STARTCHAR 2738
ENCODING 10042
SWIDTH 960 0
DWIDTH 14 0
BBX 14 14 0 -2
BITMAP
0000
7770
2220
2220
2220
2220
2220
2220
2220
2220
2220
7ff0
0000
0000
ENDCHAR
STARTCHAR 2738
ENCODING 10043
SWIDTH 960 0
DWIDTH 14 0
BBX 14 14 0 -2
BITMAP
0000
7770
2220
2220
2220
2220
2220
2220
2220
2220
2220
7ff0
0010
0010
ENDCHAR
STARTCHAR 2631
ENCODING 10044
SWIDTH 960 0
DWIDTH 14 0
BBX 14 14 0 -2
BITMAP
0000
3e00
2400
4400
0400
0780
0460
0410
0410
0410
0460
0f80
0000
0000
ENDCHAR
STARTCHAR 2631
ENCODING 10045
SWIDTH 960 0
DWIDTH 14 0
BBX 14 14 0 -2
BITMAP
0000
3870
1020
1020
1020
1e20
1120
10a0
10a0
10a0
1320
3c70
0000
0000
ENDCHAR
STARTCHAR 2631
ENCODING 10046
SWIDTH 960 0
DWIDTH 14 0
BBX 14 14 0 -2
BITMAP
0000
1c00
0800
0800
0800
0f00
08c0
0820
0820
0820
08c0
1f00
0000
0000
ENDCHAR
STARTCHAR 273f
ENCODING 10047
SWIDTH 960 0
DWIDTH 14 0
BBX 14 14 0 -2
BITMAP
0000
0700
18c0
2020
0020
0c10
1270
0190
0020
2020
18c0
0700
0000
0000
ENDCHAR
STARTCHAR 2740
ENCODING 10048
SWIDTH 960 0
DWIDTH 14 0
BBX 14 14 0 -2
BITMAP
0000
71c0
2220
2220
2410
2410
3c10
2410
2410
2220
2220
71c0
0000
0000
ENDCHAR
STARTCHAR 2352
ENCODING 10049
SWIDTH 960 0
DWIDTH 14 0
BBX 14 14 0 -2
BITMAP
0000
03f0
0c20
1020
1020
0c20
03e0
0420
0820
0820
1020
3870
0000
0000
ENDCHAR
STARTCHAR 2361
ENCODING 10065
SWIDTH 960 0
DWIDTH 14 0
BBX 14 14 0 -2
BITMAP
0000
0000
0000
0000
0780
0840
0840
03c0
0c40
1040
10c0
0f20
0000
0000
ENDCHAR
STARTCHAR 2752
ENCODING 10066
SWIDTH 960 0
DWIDTH 14 0
BBX 14 14 0 -2
BITMAP
0020
01c0
0600
0800
0b00
1cc0
1020
1020
1020
1020
0cc0
0300
0000
0000
ENDCHAR
STARTCHAR 2753
ENCODING 10067
SWIDTH 960 0
DWIDTH 14 0
BBX 14 14 0 -2
BITMAP
0000
0000
0000
0000
1f80
0840
0840
0f80
0840
0820
0820
1fc0
0000
0000
ENDCHAR
STARTCHAR 2754
ENCODING 10068
SWIDTH 960 0
DWIDTH 14 0
BBX 14 14 0 -2
BITMAP
0000
0000
0000
0000
1fc0
0840
0820
0800
0800
0800
0800
1c00
0000
0000
ENDCHAR
STARTCHAR 2755
ENCODING 10069
SWIDTH 960 0
DWIDTH 14 0
BBX 14 14 0 -2
BITMAP
0000
0000
0000
0000
07f0
0420
0420
0420
0420
0420
0820
3fe0
2020
2020
ENDCHAR
STARTCHAR 2365
ENCODING 10070
SWIDTH 960 0
DWIDTH 14 0
BBX 14 14 0 -2
BITMAP
0000
0000
0000
0000
0780
0840
1020
1fe0
1000
1020
0c40
0380
0000
0000
ENDCHAR
STARTCHAR 2365
ENCODING 10071
SWIDTH 960 0
DWIDTH 14 0
BBX 14 14 0 -2
BITMAP
0000
0480
0480
0000
0780
0840
1020
1fe0
1000
1020
0c40
0380
0000
0000
ENDCHAR
STARTCHAR 2758
ENCODING 10072
SWIDTH 960 0
DWIDTH 14 0
BBX 14 14 0 -2
BITMAP
0000
0000
0000
0000
6730
1240
0a80
0700
0a80
1240
1240
6730
0000
0000
ENDCHAR
STARTCHAR 2759
ENCODING 10073
SWIDTH 960 0
DWIDTH 14 0
BBX 14 14 0 -2
BITMAP
0000
0000
0000
0000
0780
0860
1020
03c0
0060
1020
0840
0780
0000
0000
ENDCHAR
STARTCHAR 275a
ENCODING 10074
SWIDTH 960 0
DWIDTH 14 0
BBX 14 14 0 -2
BITMAP
0000
0000
0000
0000
3870
1060
10a0
1120
1220
1420
1820
3870
0000
0000
ENDCHAR
STARTCHAR 275a
ENCODING 10075
SWIDTH 960 0
DWIDTH 14 0
BBX 14 14 0 -2
BITMAP
0000
0000
0480
0300
3870
1060
10a0
1120
1220
1420
1820
3870
0000
0000
ENDCHAR
STARTCHAR 275c
ENCODING 10076
SWIDTH 960 0
DWIDTH 14 0
BBX 14 14 0 -2
BITMAP
0000
0000
0000
0000
38c0
1140
1200
1e00
1100
1080
1040
38e0
0000
0000
ENDCHAR
STARTCHAR 275d
ENCODING 10077
SWIDTH 960 0
DWIDTH 14 0
BBX 14 14 0 -2
BITMAP
0000
0000
0000
0000
07f0
0220
0220
0220
0220
2420
2420
1870
0000
0000
ENDCHAR
STARTCHAR 275e
ENCODING 10078
SWIDTH 960 0
DWIDTH 14 0
BBX 14 14 0 -2
BITMAP
0000
0000
0000
0000
7070
3060
28a0
28a0
2520
2520
2220
7070
0000
0000
ENDCHAR
STARTCHAR 275f
ENCODING 10079
SWIDTH 960 0
DWIDTH 14 0
BBX 14 14 0 -2
BITMAP
0000
0000
0000
0000
38e0
1040
1040
1fc0
1040
1040
1040
38e0
0000
0000
ENDCHAR
STARTCHAR 236f
ENCODING 10080
SWIDTH 960 0
DWIDTH 14 0
BBX 14 14 0 -2
BITMAP
0000
0000
0000
0000
0780
0840
1020
1020
1020
1020
0840
0780
0000
0000
ENDCHAR
STARTCHAR 2761
ENCODING 10081
SWIDTH 960 0
DWIDTH 14 0
BBX 14 14 0 -2
BITMAP
0000
0000
0000
0000
3fe0
1040
1040
1040
1040
1040
1040
38e0
0000
0000
ENDCHAR
STARTCHAR 2370
ENCODING 10082
SWIDTH 960 0
DWIDTH 14 0
BBX 14 14 0 -2
BITMAP
0000
0000
0000
0000
0b80
0c40
0820
0820
0820
0820
0c40
0b80
0800
1c00
ENDCHAR
STARTCHAR 2365
ENCODING 10083
SWIDTH 960 0
DWIDTH 14 0
BBX 14 14 0 -2
BITMAP
0000
0000
0000
0000
0780
0840
1020
1000
1000
1020
0840
0780
0000
0000
ENDCHAR
STARTCHAR 2764
ENCODING 10084
SWIDTH 960 0
DWIDTH 14 0
BBX 14 14 0 -2
BITMAP
0000
0000
0000
0000
1fc0
1240
2220
0200
0200
0200
0200
0700
0000
0000
ENDCHAR
STARTCHAR 2379
ENCODING 10085
SWIDTH 960 0
DWIDTH 14 0
BBX 14 14 0 -2
BITMAP
0000
0000
0000
0000
38e0
1040
0840
0880
0480
0500
0300
0200
0400
1800
ENDCHAR
STARTCHAR 2766
ENCODING 10086
SWIDTH 960 0
DWIDTH 14 0
BBX 14 14 0 -2
BITMAP
0000
0700
0200
0200
1ac0
2720
4210
4210
4210
4210
2720
1ac0
0200
0700
ENDCHAR
STARTCHAR 2378
ENCODING 10087
SWIDTH 960 0
DWIDTH 14 0
BBX 14 14 0 -2
BITMAP
0000
0000
0000
0000
1860
0840
0480
0300
0300
0480
0840
1860
0000
0000
ENDCHAR
STARTCHAR 2768
ENCODING 10088
SWIDTH 960 0
DWIDTH 14 0
BBX 14 14 0 -2
BITMAP
0000
0000
0000
0000
38e0
1040
1040
1040
1040
1040
1040
3fe0
0020
0020
ENDCHAR
STARTCHAR 2769
ENCODING 10089
SWIDTH 960 0
DWIDTH 14 0
BBX 14 14 0 -2
BITMAP
0000
0000
0000
0000
38e0
1040
1040
10c0
0f40
0040
0040
00e0
0000
0000
ENDCHAR
STARTCHAR 276a
ENCODING 10090
SWIDTH 960 0
DWIDTH 14 0
BBX 14 14 0 -2
BITMAP
0000
0000
0000
0000
7770
2220
2220
2220
2220
2220
2220
3ff0
0000
0000
ENDCHAR
STARTCHAR 276a
ENCODING 10091
SWIDTH 960 0
DWIDTH 14 0
BBX 14 14 0 -2
BITMAP
0000
0000
0000
0000
7770
2220
2220
2220
2220
2220
2220
3ff0
0010
0010
ENDCHAR
STARTCHAR 276e
ENCODING 10092
SWIDTH 960 0
DWIDTH 14 0
BBX 14 14 0 -2
BITMAP
0000
0000
0000
0000
3e00
2400
4400
0780
0460
0420
0460
0f80
0000
0000
ENDCHAR
STARTCHAR 276e
ENCODING 10093
SWIDTH 960 0
DWIDTH 14 0
BBX 14 14 0 -2
BITMAP
0000
0000
0000
0000
38e0
1040
1040
1c40
1340
1140
1340
3ce0
0000
0000
ENDCHAR
STARTCHAR 276e
ENCODING 10094
SWIDTH 960 0
DWIDTH 14 0
BBX 14 14 0 -2
BITMAP
0000
0000
0000
0000
0e00
0400
0400
0780
0460
0420
0460
0f80
0000
0000
ENDCHAR
STARTCHAR 276f
ENCODING 10095
SWIDTH 960 0
DWIDTH 14 0
BBX 14 14 0 -2
BITMAP
0000
0000
0000
0000
0780
0860
1020
0370
0490
1020
0840
0780
0000
0000
ENDCHAR
STARTCHAR 2770
ENCODING 10096
SWIDTH 960 0
DWIDTH 14 0
BBX 14 14 0 -2
BITMAP
0000
0000
0000
0000
38c0
1120
1210
1e10
1210
1210
1120
38c0
0000
0000
ENDCHAR
STARTCHAR 2771
ENCODING 10097
SWIDTH 960 0
DWIDTH 14 0
BBX 14 14 0 -2
BITMAP
0000
0000
0000
0000
07e0
0840
0840
0840
07c0
0440
0840
1ce0
0000
0000
ENDCHAR
STARTCHAR 2821
ENCODING 10273
SWIDTH 960 0
DWIDTH 14 0
BBX 14 14 0 -2
BITMAP
0000
0000
0000
0000
0000
0000
fffc
0000
0000
0000
0000
0000
0000
0000
ENDCHAR
STARTCHAR 2822
ENCODING 10274
SWIDTH 960 0
DWIDTH 14 0
BBX 14 14 0 -2
BITMAP
0200
0200
0200
0200
0200
0200
0200
0200
0200
0200
0200
0200
0200
0200
ENDCHAR
STARTCHAR 2823
ENCODING 10275
SWIDTH 960 0
DWIDTH 14 0
BBX 14 14 0 -2
BITMAP
0000
0000
0000
0000
0000
0000
03fc
0200
0200
0200
0200
0200
0200
0200
ENDCHAR
STARTCHAR 2824
ENCODING 10276
SWIDTH 960 0
DWIDTH 14 0
BBX 14 14 0 -2
BITMAP
0000
0000
0000
0000
0000
0000
fe00
0200
0200
0200
0200
0200
0200
0200
ENDCHAR
STARTCHAR 2825
ENCODING 10277
SWIDTH 960 0
DWIDTH 14 0
BBX 14 14 0 -2
BITMAP
0200
0200
0200
0200
0200
0200
fe00
0000
0000
0000
0000
0000
0000
0000
ENDCHAR
STARTCHAR 2826
ENCODING 10278
SWIDTH 960 0
DWIDTH 14 0
BBX 14 14 0 -2
BITMAP
0200
0200
0200
0200
0200
0200
03fc
0000
0000
0000
0000
0000
0000
0000
ENDCHAR
STARTCHAR 2827
ENCODING 10279
SWIDTH 960 0
DWIDTH 14 0
BBX 14 14 0 -2
BITMAP
0200
0200
0200
0200
0200
0200
03fc
0200
0200
0200
0200
0200
0200
0200
ENDCHAR
STARTCHAR 2828
ENCODING 10280
SWIDTH 960 0
DWIDTH 14 0
BBX 14 14 0 -2
BITMAP
0000
0000
0000
0000
0000
0000
fffc
0200
0200
0200
0200
0200
0200
0200
ENDCHAR
STARTCHAR 2829
ENCODING 10281
SWIDTH 960 0
DWIDTH 14 0
BBX 14 14 0 -2
BITMAP
0200
0200
0200
0200
0200
0200
fe00
0200
0200
0200
0200
0200
0200
0200
ENDCHAR
STARTCHAR 282a
ENCODING 10282
SWIDTH 960 0
DWIDTH 14 0
BBX 14 14 0 -2
BITMAP
0200
0200
0200
0200
0200
0200
fffc
0000
0000
0000
0000
0000
0000
0000
ENDCHAR
STARTCHAR 282b
ENCODING 10283
SWIDTH 960 0
DWIDTH 14 0
BBX 14 14 0 -2
BITMAP
0200
0200
0200
0200
0200
0200
fffc
0200
0200
0200
0200
0200
0200
0200
ENDCHAR
STARTCHAR 282c
ENCODING 10284
SWIDTH 960 0
DWIDTH 14 0
BBX 14 14 0 -2
BITMAP
0000
0000
0000
0000
0000
0000
fffc
fffc
0000
0000
0000
0000
0000
0000
ENDCHAR
STARTCHAR 282d
ENCODING 10285
SWIDTH 960 0
DWIDTH 14 0
BBX 14 14 0 -2
BITMAP
0300
0300
0300
0300
0300
0300
0300
0300
0300
0300
0300
0300
0300
0300
ENDCHAR
STARTCHAR 282e
ENCODING 10286
SWIDTH 960 0
DWIDTH 14 0
BBX 14 14 0 -2
BITMAP
0000
0000
0000
0000
0000
0000
03fc
03fc
0300
0300
0300
0300
0300
0300
ENDCHAR
STARTCHAR 282f
ENCODING 10287
SWIDTH 960 0
DWIDTH 14 0
BBX 14 14 0 -2
BITMAP
0000
0000
0000
0000
0000
0000
ff00
ff00
0300
0300
0300
0300
0300
0300
ENDCHAR
STARTCHAR 2830
ENCODING 10288
SWIDTH 960 0
DWIDTH 14 0
BBX 14 14 0 -2
BITMAP
0300
0300
0300
0300
0300
0300
ff00
ff00
0000
0000
0000
0000
0000
0000
ENDCHAR
STARTCHAR 2831
ENCODING 10289
SWIDTH 960 0
DWIDTH 14 0
BBX 14 14 0 -2
BITMAP
0300
0300
0300
0300
0300
0300
03fc
03fc
0000
0000
0000
0000
0000
0000
ENDCHAR
STARTCHAR 2832
ENCODING 10290
SWIDTH 960 0
DWIDTH 14 0
BBX 14 14 0 -2
BITMAP
0300
0300
0300
0300
0300
0300
03fc
03fc
0300
0300
0300
0300
0300
0300
ENDCHAR
STARTCHAR 2833
ENCODING 10291
SWIDTH 960 0
DWIDTH 14 0
BBX 14 14 0 -2
BITMAP
0000
0000
0000
0000
0000
0000
fffc
fffc
0300
0300
0300
0300
0300
0300
ENDCHAR
STARTCHAR 2834
ENCODING 10292
SWIDTH 960 0
DWIDTH 14 0
BBX 14 14 0 -2
BITMAP
0300
0300
0300
0300
0300
0300
ff00
ff00
0300
0300
0300
0300
0300
0300
ENDCHAR
STARTCHAR 2835
ENCODING 10293
SWIDTH 960 0
DWIDTH 14 0
BBX 14 14 0 -2
BITMAP
0300
0300
0300
0300
0300
0300
fffc
fffc
0000
0000
0000
0000
0000
0000
ENDCHAR
STARTCHAR 2836
ENCODING 10294
SWIDTH 960 0
DWIDTH 14 0
BBX 14 14 0 -2
BITMAP
0300
0300
0300
0300
0300
0300
fffc
fffc
0300
0300
0300
0300
0300
0300
ENDCHAR
STARTCHAR 2837
ENCODING 10295
SWIDTH 960 0
DWIDTH 14 0
BBX 14 14 0 -2
BITMAP
0300
0300
0300
0300
0300
0300
03fc
0300
0300
0300
0300
0300
0300
0300
ENDCHAR
STARTCHAR 2838
ENCODING 10296
SWIDTH 960 0
DWIDTH 14 0
BBX 14 14 0 -2
BITMAP
0000
0000
0000
0000
0000
0000
fffc
fffc
0200
0200
0200
0200
0200
0200
ENDCHAR
STARTCHAR 2839
ENCODING 10297
SWIDTH 960 0
DWIDTH 14 0
BBX 14 14 0 -2
BITMAP
0300
0300
0300
0300
0300
0300
ff00
0300
0300
0300
0300
0300
0300
0300
ENDCHAR
STARTCHAR 283a
ENCODING 10298
SWIDTH 960 0
DWIDTH 14 0
BBX 14 14 0 -2
BITMAP
0200
0200
0200
0200
0200
0200
fffc
fffc
0000
0000
0000
0000
0000
0000
ENDCHAR
STARTCHAR 283b
ENCODING 10299
SWIDTH 960 0
DWIDTH 14 0
BBX 14 14 0 -2
BITMAP
0200
0200
0200
0200
0200
0200
fffc
fffc
0200
0200
0200
0200
0200
0200
ENDCHAR
STARTCHAR 283c
ENCODING 10300
SWIDTH 960 0
DWIDTH 14 0
BBX 14 14 0 -2
BITMAP
0200
0200
0200
0200
0200
0200
03fc
03fc
0200
0200
0200
0200
0200
0200
ENDCHAR
STARTCHAR 283d
ENCODING 10301
SWIDTH 960 0
DWIDTH 14 0
BBX 14 14 0 -2
BITMAP
0000
0000
0000
0000
0000
0000
fffc
0300
0300
0300
0300
0300
0300
0300
ENDCHAR
STARTCHAR 283e
ENCODING 10302
SWIDTH 960 0
DWIDTH 14 0
BBX 14 14 0 -2
BITMAP
0200
0200
0200
0200
0200
0200
fe00
fe00
0200
0200
0200
0200
0200
0200
ENDCHAR
STARTCHAR 283f
ENCODING 10303
SWIDTH 960 0
DWIDTH 14 0
BBX 14 14 0 -2
BITMAP
0300
0300
0300
0300
0300
0300
fffc
0000
0000
0000
0000
0000
0000
0000
ENDCHAR
STARTCHAR 2840
ENCODING 10304
SWIDTH 960 0
DWIDTH 14 0
BBX 14 14 0 -2
BITMAP
0300
0300
0300
0300
0300
0300
fffc
0300
0300
0300
0300
0300
0300
0300
ENDCHAR
STARTCHAR 3021
ENCODING 12321
SWIDTH 960 0
DWIDTH 14 0
BBX 14 14 0 -2
BITMAP
0000
7ff8
0480
0480
3ff0
2490
2490
2490
3ff0
0480
0480
0480
7ff8
0000
ENDCHAR
STARTCHAR 3022
ENCODING 12322
SWIDTH 960 0
DWIDTH 14 0
BBX 14 14 0 -2
BITMAP
0000
0ff8
f140
9140
97f0
9550
9550
9550
97f0
9140
f140
0140
1ff8
0000
ENDCHAR
STARTCHAR 3023
ENCODING 12323
SWIDTH 960 0
DWIDTH 14 0
BBX 14 14 0 -2
BITMAP
1040
1040
1040
11f0
fc40
2440
27f8
2440
7840
49f0
0c40
1440
23f8
4000
ENDCHAR
STARTCHAR 3024
ENCODING 12324
SWIDTH 960 0
DWIDTH 14 0
BBX 14 14 0 -2
BITMAP
0000
7ff8
4810
5010
63d0
5250
4a50
4a50
4bd0
4810
7010
4010
4010
4030
ENDCHAR
STARTCHAR 3025
ENCODING 12325
SWIDTH 960 0
DWIDTH 14 0
BBX 14 14 0 -2
BITMAP
0200
0200
fff8
0000
1fc0
1040
1040
1fd0
0610
1920
e940
0880
0e60
7018
ENDCHAR
STARTCHAR 3026
ENCODING 12326
SWIDTH 960 0
DWIDTH 14 0
BBX 14 14 0 -2
BITMAP
0060
7fa0
2420
1240
fff8
8b08
a8a8
2790
4410
0fc0
7480
0300
0dc0
f038
ENDCHAR
STARTCHAR 3027
ENCODING 12327
SWIDTH 960 0
DWIDTH 14 0
BBX 14 14 0 -2
BITMAP
2100
2140
2120
f270
2f90
2200
23f0
3480
e880
2ff8
2080
2140
2620
7818
ENDCHAR
STARTCHAR 3028
ENCODING 12328
SWIDTH 960 0
DWIDTH 14 0
BBX 14 14 0 -2
BITMAP
1040
1040
1040
10a0
fca0
2510
27f8
2400
65f0
5910
0910
1510
21f0
c000
ENDCHAR
STARTCHAR 3029
ENCODING 12329
SWIDTH 960 0
DWIDTH 14 0
BBX 14 14 0 -2
BITMAP
0100
43f0
2d20
20c0
03e0
1c98
e7f0
2080
27f0
2080
2ff8
3080
4c80
83f8
ENDCHAR
STARTCHAR 302a
ENCODING 12330
SWIDTH 960 0
DWIDTH 14 0
BBX 14 14 0 -2
BITMAP
0880
fff8
0880
0e40
2250
1590
08a0
3fe0
c218
3fe0
0200
0500
18c0
6030
ENDCHAR
STARTCHAR 302b
ENCODING 12331
SWIDTH 960 0
DWIDTH 14 0
BBX 14 14 0 -2
BITMAP
0880
0880
fff8
0880
fff8
0900
7ff0
4910
4910
50f0
6010
4010
7ff0
0000
ENDCHAR
STARTCHAR 302c
ENCODING 12332
SWIDTH 960 0
DWIDTH 14 0
BBX 14 14 0 -2
BITMAP
0880
33e0
ec40
23e0
22a0
fbe0
22a0
37f0
6c90
6ff0
a490
27f8
2088
2078
ENDCHAR
STARTCHAR 302d
ENCODING 12333
SWIDTH 960 0
DWIDTH 14 0
BBX 14 14 0 -2
BITMAP
0000
7ff0
0500
3fe0
2520
3fe0
0500
fff8
0200
2920
2910
4848
8848
07c0
ENDCHAR
STARTCHAR 302e
ENCODING 12334
SWIDTH 960 0
DWIDTH 14 0
BBX 14 14 0 -2
BITMAP
2000
27f0
2410
fff0
2400
27f0
24c0
3520
e7d0
2880
2ff0
3080
2ff8
6000
ENDCHAR
STARTCHAR 302f
ENCODING 12335
SWIDTH 960 0
DWIDTH 14 0
BBX 14 14 0 -2
BITMAP
2000
17f0
1410
87f0
4400
47f8
04a0
0530
27c8
2480
4bf0
4880
9ff8
8000
ENDCHAR
STARTCHAR 3030
ENCODING 12336
SWIDTH 960 0
DWIDTH 14 0
BBX 14 14 0 -2
BITMAP
1000
11f0
1110
1110
fd10
15f0
1510
1510
1510
15f0
2500
2408
4408
83f8
ENDCHAR
STARTCHAR 3031
ENCODING 12337
SWIDTH 960 0
DWIDTH 14 0
BBX 14 14 0 -2
BITMAP
0880
fff8
0a80
1fc0
0440
fff8
1040
1fc0
0080
1fe0
1080
fff8
0080
0080
ENDCHAR
STARTCHAR 3032
ENCODING 12338
SWIDTH 960 0
DWIDTH 14 0
BBX 14 14 0 -2
BITMAP
0880
0880
fff8
0880
7ff0
0000
3fe0
2020
2020
3fe0
2000
2000
4000
8000
ENDCHAR
STARTCHAR 3033
ENCODING 12339
SWIDTH 960 0
DWIDTH 14 0
BBX 14 14 0 -2
BITMAP
1040
1060
3c90
4be8
fc40
57f8
7ca0
5530
7ec8
0820
64c8
5410
5060
8380
ENDCHAR
STARTCHAR 3034
ENCODING 12340
SWIDTH 960 0
DWIDTH 14 0
BBX 14 14 0 -2
BITMAP
1040
1040
13f8
fd10
1090
38a0
37f8
3440
5040
53f8
9040
1040
1040
1040
ENDCHAR
STARTCHAR 3035
ENCODING 12341
SWIDTH 960 0
DWIDTH 14 0
BBX 14 14 0 -2
BITMAP
0000
3ff8
2100
2100
2100
2100
2ff0
2100
2100
2100
4100
4100
9ff8
0000
ENDCHAR
STARTCHAR 3036
ENCODING 12342
SWIDTH 960 0
DWIDTH 14 0
BBX 14 14 0 -2
BITMAP
1040
1040
fea0
1110
7ea8
4460
7d20
44a0
7ca0
1038
ffe0
1020
1020
1020
ENDCHAR
STARTCHAR 3037
ENCODING 12343
SWIDTH 960 0
DWIDTH 14 0
BBX 14 14 0 -2
BITMAP
2000
27e0
2220
fa40
2240
23f0
2310
3b10
e4a0
24a0
2440
28a0
2b10
7c08
ENDCHAR
STARTCHAR 3038
ENCODING 12344
SWIDTH 960 0
DWIDTH 14 0
BBX 14 14 0 -2
BITMAP
0200
0200
fff8
9008
9008
1df0
2510
2510
5510
8960
0900
1108
2108
c0f8
ENDCHAR
STARTCHAR 3039
ENCODING 12345
SWIDTH 960 0
DWIDTH 14 0
BBX 14 14 0 -2
BITMAP
1000
11f0
1110
1110
fd10
25f0
2510
2510
79f0
4910
0d10
1110
27f8
c000
ENDCHAR
STARTCHAR 303a
ENCODING 12346
SWIDTH 960 0
DWIDTH 14 0
BBX 14 14 0 -2
BITMAP
1040
1040
1040
7c40
57f8
5500
5500
7d00
5100
1900
1500
1f00
e300
00f0
ENDCHAR
STARTCHAR 303b
ENCODING 12347
SWIDTH 960 0
DWIDTH 14 0
BBX 14 14 0 -2
BITMAP
1040
1040
2840
54a0
9090
7d38
47c8
7c00
45f0
7d10
5110
4910
75f0
c400
ENDCHAR
STARTCHAR 303c
ENCODING 12348
SWIDTH 960 0
DWIDTH 14 0
BBX 14 14 0 -2
BITMAP
1100
1100
1500
65f8
1a08
13e8
2928
7de8
1528
1928
35e8
3408
5008
1030
ENDCHAR
STARTCHAR 303d
ENCODING 12349
SWIDTH 960 0
DWIDTH 14 0
BBX 14 14 0 -2
BITMAP
2080
2080
4bf0
d080
37f8
2140
5248
fd38
21e0
b320
ad40
a880
a360
2c18
ENDCHAR
STARTCHAR 303e
ENCODING 12350
SWIDTH 960 0
DWIDTH 14 0
BBX 14 14 0 -2
BITMAP
1040
1040
3c40
4878
fc40
5440
7c40
55f0
7d10
0910
6510
5510
51f0
8000
ENDCHAR
STARTCHAR 303f
ENCODING 12351
SWIDTH 960 0
DWIDTH 14 0
BBX 14 14 0 -2
BITMAP
0120
0110
0110
fff8
0100
3d10
2510
2490
3ca0
2060
0648
18a8
e318
0c08
ENDCHAR
STARTCHAR 3040
ENCODING 12352
SWIDTH 960 0
DWIDTH 14 0
BBX 14 14 0 -2
BITMAP
0000
fff8
0500
3fe0
2520
2520
3fe0
1240
0a80
fff8
0700
1ac0
e238
0200
ENDCHAR
STARTCHAR 3041
ENCODING 12353
SWIDTH 960 0
DWIDTH 14 0
BBX 14 14 0 -2
BITMAP
2080
2080
2140
f940
1220
17f0
2408
7800
abe0
2620
2220
2220
23e0
2000
ENDCHAR
STARTCHAR 3042
ENCODING 12354
SWIDTH 960 0
DWIDTH 14 0
BBX 14 14 0 -2
BITMAP
0200
0200
fff8
8408
8408
0400
fff8
0880
0880
1e80
1180
0240
0c20
7010
ENDCHAR
STARTCHAR 3043
ENCODING 12355
SWIDTH 960 0
DWIDTH 14 0
BBX 14 14 0 -2
BITMAP
0100
0100
3ff8
2200
3ff8
2540
2920
3ff8
2920
2fe0
4920
4fe0
8108
00f8
ENDCHAR
STARTCHAR 3044
ENCODING 12356
SWIDTH 960 0
DWIDTH 14 0
BBX 14 14 0 -2
BITMAP
2080
2080
2ff8
f808
2888
2080
2ff8
3120
e120
2320
22c0
2060
2190
6e08
ENDCHAR
STARTCHAR 3045
ENCODING 12357
SWIDTH 960 0
DWIDTH 14 0
BBX 14 14 0 -2
BITMAP
0080
0080
f7f0
9220
9140
9ff8
f000
93e0
9220
93e0
9220
f220
03e0
0000
ENDCHAR
STARTCHAR 3046
ENCODING 12358
SWIDTH 960 0
DWIDTH 14 0
BBX 14 14 0 -2
BITMAP
0200
0200
fff8
8408
bfe8
0880
1f00
06c0
3a20
fff8
0700
1ac0
e238
0200
ENDCHAR
STARTCHAR 3047
ENCODING 12359
SWIDTH 960 0
DWIDTH 14 0
BBX 14 14 0 -2
BITMAP
0000
7df0
4510
7df0
7df0
4210
5fd0
4510
7ff0
4890
4f90
4890
4f90
4030
ENDCHAR
STARTCHAR 3048
ENCODING 12360
SWIDTH 960 0
DWIDTH 14 0
BBX 14 14 0 -2
BITMAP
2840
2840
fff8
2a08
3a48
1040
7ff8
5490
7c90
11e0
fd20
1050
1088
1308
ENDCHAR
STARTCHAR 3049
ENCODING 12361
SWIDTH 960 0
DWIDTH 14 0
BBX 14 14 0 -2
BITMAP
0200
0200
fff8
0700
0a80
3260
c218
0200
3fe0
2020
2020
2020
3fe0
0000
ENDCHAR
STARTCHAR 304a
ENCODING 12362
SWIDTH 960 0
DWIDTH 14 0
BBX 14 14 0 -2
BITMAP
2020
2020
2420
2220
2120
2120
2020
2020
2020
2060
2c50
3090
c308
0c08
ENDCHAR
STARTCHAR 304b
ENCODING 12363
SWIDTH 960 0
DWIDTH 14 0
BBX 14 14 0 -2
BITMAP
1000
17f0
1090
2090
2ff8
6090
a090
27f0
2080
2080
2100
2100
2200
2400
ENDCHAR
STARTCHAR 304c
ENCODING 12364
SWIDTH 960 0
DWIDTH 14 0
BBX 14 14 0 -2
BITMAP
1100
1100
1100
2100
3ff8
6020
a420
2220
2220
2240
2240
2080
3ff8
2000
ENDCHAR
STARTCHAR 304d
ENCODING 12365
SWIDTH 960 0
DWIDTH 14 0
BBX 14 14 0 -2
BITMAP
1080
1080
1080
2ff8
2100
6190
a290
26a0
2a40
2240
2220
22a0
2310
2c08
ENDCHAR
STARTCHAR 304e
ENCODING 12366
SWIDTH 960 0
DWIDTH 14 0
BBX 14 14 0 -2
BITMAP
1080
17e0
1120
2ff8
2000
67e0
a420
27e0
2040
27f0
2440
3ff8
2040
2040
ENDCHAR
STARTCHAR 304f
ENCODING 12367
SWIDTH 960 0
DWIDTH 14 0
BBX 14 14 0 -2
BITMAP
0000
7ff0
4010
4490
4490
5fd0
4490
4490
7ff0
4490
4890
5090
7ff0
0000
ENDCHAR
STARTCHAR 3050
ENCODING 12368
SWIDTH 960 0
DWIDTH 14 0
BBX 14 14 0 -2
BITMAP
0200
0200
fff8
0200
7fe0
0220
7fe0
4200
7ff8
4608
0508
08b0
3060
c018
ENDCHAR
STARTCHAR 3051
ENCODING 12369
SWIDTH 960 0
DWIDTH 14 0
BBX 14 14 0 -2
BITMAP
0060
3f80
0200
fff8
0700
1ac0
e238
0400
fff8
0880
1e80
2180
0660
7810
ENDCHAR
STARTCHAR 3052
ENCODING 12370
SWIDTH 960 0
DWIDTH 14 0
BBX 14 14 0 -2
BITMAP
00a0
0090
3ff8
2080
3f90
2490
3f90
29a0
2960
3e60
2248
45a8
5918
8008
ENDCHAR
STARTCHAR 3053
ENCODING 12371
SWIDTH 960 0
DWIDTH 14 0
BBX 14 14 0 -2
BITMAP
0010
7e10
4210
7e10
41f8
7c10
4090
7e50
4850
5c10
5a10
6a10
8810
1830
ENDCHAR
STARTCHAR 3054
ENCODING 12372
SWIDTH 960 0
DWIDTH 14 0
BBX 14 14 0 -2
BITMAP
2120
2120
2240
33f8
6e40
6a40
63f0
a240
2240
23f0
2240
2240
23f8
2000
ENDCHAR
STARTCHAR 3055
ENCODING 12373
SWIDTH 960 0
DWIDTH 14 0
BBX 14 14 0 -2
BITMAP
0200
7ff0
0880
fff8
0000
1fc0
1040
1fc0
1040
1fc0
4a10
4908
8848
07c0
ENDCHAR
STARTCHAR 3056
ENCODING 12374
SWIDTH 960 0
DWIDTH 14 0
BBX 14 14 0 -2
BITMAP
0020
7e20
4220
7ff8
5d20
40a0
7ea0
ac20
4a20
9a60
0910
4948
4848
87c0
ENDCHAR
STARTCHAR 3057
ENCODING 12375
SWIDTH 960 0
DWIDTH 14 0
BBX 14 14 0 -2
BITMAP
0000
1fc0
1040
1fc0
1040
1fc0
0400
0ff0
3250
c490
1910
6210
0c20
01c0
ENDCHAR
STARTCHAR 3058
ENCODING 12376
SWIDTH 960 0
DWIDTH 14 0
BBX 14 14 0 -2
BITMAP
1040
1040
13f8
fcc0
10a0
3910
37f8
3410
53d0
5250
93d0
1010
1010
1030
ENDCHAR
STARTCHAR 3059
ENCODING 12377
SWIDTH 960 0
DWIDTH 14 0
BBX 14 14 0 -2
BITMAP
2200
1200
1200
7fc0
0440
0480
0fe0
0820
1ff8
1008
2a88
6548
9548
1030
ENDCHAR
STARTCHAR 305a
ENCODING 12378
SWIDTH 960 0
DWIDTH 14 0
BBX 14 14 0 -2
BITMAP
0000
3fe0
2220
3fe0
2220
3fe0
0000
fff8
1220
1120
1140
1680
1860
e018
ENDCHAR
STARTCHAR 305b
ENCODING 12379
SWIDTH 960 0
DWIDTH 14 0
BBX 14 14 0 -2
BITMAP
0000
3fe0
2220
3fe0
2220
3fe0
0880
7ff0
0880
0880
fff8
0480
1860
6010
ENDCHAR
STARTCHAR 305c
ENCODING 12380
SWIDTH 960 0
DWIDTH 14 0
BBX 14 14 0 -2
BITMAP
0480
18f0
7110
12a0
1040
fc80
1340
3878
3488
5550
9230
1020
10c0
1700
ENDCHAR
STARTCHAR 305d
ENCODING 12381
SWIDTH 960 0
DWIDTH 14 0
BBX 14 14 0 -2
BITMAP
1090
1090
1520
e5f8
2b20
1120
29f0
fd20
1520
59f0
5520
5520
91f8
1000
ENDCHAR
STARTCHAR 305e
ENCODING 12382
SWIDTH 960 0
DWIDTH 14 0
BBX 14 14 0 -2
BITMAP
1040
13f0
1490
e7f8
2800
19f0
2510
fdf0
1020
59f0
5520
57f8
9020
1020
ENDCHAR
STARTCHAR 305f
ENCODING 12383
SWIDTH 960 0
DWIDTH 14 0
BBX 14 14 0 -2
BITMAP
0000
7ff0
4210
7ff0
4210
7ff0
0000
3fe0
2020
3fe0
2020
3fe0
2020
2060
ENDCHAR
STARTCHAR 3060
ENCODING 12384
SWIDTH 960 0
DWIDTH 14 0
BBX 14 14 0 -2
BITMAP
0880
fff8
08c0
3f80
0200
fff8
0a80
3260
c418
7ff0
0880
1f00
06c0
7820
ENDCHAR
STARTCHAR 3061
ENCODING 12385
SWIDTH 960 0
DWIDTH 14 0
BBX 14 14 0 -2
BITMAP
0200
0200
0200
fff8
0200
0610
0910
3920
c8c0
0880
0840
0b20
0c10
7008
ENDCHAR
STARTCHAR 3062
ENCODING 12386
SWIDTH 960 0
DWIDTH 14 0
BBX 14 14 0 -2
BITMAP
0000
7bf8
0248
fff8
0248
7bf8
0000
79f0
0110
79f0
4910
49f0
7910
0130
ENDCHAR
STARTCHAR 3063
ENCODING 12387
SWIDTH 960 0
DWIDTH 14 0
BBX 14 14 0 -2
BITMAP
0080
47e0
2120
2ff8
03e0
0220
e3e0
2040
23f0
2240
2ff8
3040
4c40
83f8
ENDCHAR
STARTCHAR 3064
ENCODING 12388
SWIDTH 960 0
DWIDTH 14 0
BBX 14 14 0 -2
BITMAP
0080
47e0
24a0
27e0
1ff8
0420
e7e0
2420
27e0
2420
27e0
3620
4c10
83f8
ENDCHAR
STARTCHAR 3065
ENCODING 12389
SWIDTH 960 0
DWIDTH 14 0
BBX 14 14 0 -2
BITMAP
0000
7ff0
4400
4400
4fe0
4900
5100
7ff0
4280
4240
4420
5820
4000
7ff8
ENDCHAR
STARTCHAR 3066
ENCODING 12390
SWIDTH 960 0
DWIDTH 14 0
BBX 14 14 0 -2
BITMAP
0880
0880
0880
0880
7ff0
0880
0880
0880
fff8
0880
1080
1080
2080
4080
ENDCHAR
STARTCHAR 3067
ENCODING 12391
SWIDTH 960 0
DWIDTH 14 0
BBX 14 14 0 -2
BITMAP
0200
0200
fff8
0200
0480
3480
0920
0640
0480
1980
2240
0c20
3010
c010
ENDCHAR
STARTCHAR 3068
ENCODING 12392
SWIDTH 960 0
DWIDTH 14 0
BBX 14 14 0 -2
BITMAP
0080
20a0
2090
2ff8
2080
ff90
2590
2550
2750
2c60
3128
c668
1898
0108
ENDCHAR
STARTCHAR 3069
ENCODING 12393
SWIDTH 960 0
DWIDTH 14 0
BBX 14 14 0 -2
BITMAP
0200
0200
fff8
0440
08e0
7f10
1fc0
1040
1fc0
1040
1fc0
1040
1040
10c0
ENDCHAR
STARTCHAR 306a
ENCODING 12394
SWIDTH 960 0
DWIDTH 14 0
BBX 14 14 0 -2
BITMAP
0800
08f0
ff90
10a0
10a0
3ec0
22a0
7e90
a288
3e88
22c8
22b0
2280
2680
ENDCHAR
STARTCHAR 306b
ENCODING 12395
SWIDTH 960 0
DWIDTH 14 0
BBX 14 14 0 -2
BITMAP
02a0
faa0
24d0
2db0
22a0
75d0
5ee8
d0a0
57f8
5450
7650
0528
0858
1188
ENDCHAR
STARTCHAR 306c
ENCODING 12396
SWIDTH 960 0
DWIDTH 14 0
BBX 14 14 0 -2
BITMAP
0000
0000
0000
0000
0000
0000
fff8
0000
0000
0000
0000
0000
0000
0000
ENDCHAR
STARTCHAR 306d
ENCODING 12397
SWIDTH 960 0
DWIDTH 14 0
BBX 14 14 0 -2
BITMAP
0200
0200
fff8
0200
3fe0
0000
fff8
8808
88c8
0f00
0800
0810
0810
07f0
ENDCHAR
STARTCHAR 306e
ENCODING 12398
SWIDTH 960 0
DWIDTH 14 0
BBX 14 14 0 -2
BITMAP
4820
2420
2440
1ff8
8440
4440
4820
1ff0
2aa8
2aa0
4aa0
4aa0
bff8
8000
ENDCHAR
STARTCHAR 306f
ENCODING 12399
SWIDTH 960 0
DWIDTH 14 0
BBX 14 14 0 -2
BITMAP
0100
41e0
2240
2480
0ff0
0490
e490
27f0
2180
2180
2288
3478
4c00
83f8
ENDCHAR
STARTCHAR 3070
ENCODING 12400
SWIDTH 960 0
DWIDTH 14 0
BBX 14 14 0 -2
BITMAP
0430
1fc8
7488
1250
1260
fc00
32f0
3a90
5690
56f0
9290
1290
12f0
1200
ENDCHAR
STARTCHAR 3071
ENCODING 12401
SWIDTH 960 0
DWIDTH 14 0
BBX 14 14 0 -2
BITMAP
0880
0880
fff8
0880
0a80
4200
23f8
2290
04a0
0880
3140
c220
0c10
3008
ENDCHAR
STARTCHAR 3072
ENCODING 12402
SWIDTH 960 0
DWIDTH 14 0
BBX 14 14 0 -2
BITMAP
0880
0880
fff8
0880
0000
3fe0
0200
0200
fff8
0200
0200
0200
0200
0600
ENDCHAR
STARTCHAR 3073
ENCODING 12403
SWIDTH 960 0
DWIDTH 14 0
BBX 14 14 0 -2
BITMAP
0800
09f8
1e48
2448
7ff8
2b20
3ff8
2a48
3f68
04d8
32d8
2b68
2848
41b0
ENDCHAR
STARTCHAR 3074
ENCODING 12404
SWIDTH 960 0
DWIDTH 14 0
BBX 14 14 0 -2
BITMAP
0400
0480
0860
10d0
ff08
0900
0900
0900
1100
1100
2100
2108
4108
80f8
ENDCHAR
STARTCHAR 3075
ENCODING 12405
SWIDTH 960 0
DWIDTH 14 0
BBX 14 14 0 -2
BITMAP
0200
0c00
71f0
4110
4110
7d10
4110
4110
4110
7d10
41e0
0100
0100
0100
ENDCHAR
STARTCHAR 3076
ENCODING 12406
SWIDTH 960 0
DWIDTH 14 0
BBX 14 14 0 -2
BITMAP
0000
03f8
7a48
4a48
4a48
4bf8
4a48
4a48
4aa8
4a98
7b18
0208
03f8
0000
ENDCHAR
STARTCHAR 3077
ENCODING 12407
SWIDTH 960 0
DWIDTH 14 0
BBX 14 14 0 -2
BITMAP
0000
1fc0
1040
1fc0
0000
3fe0
2020
3fe0
2020
3fe0
2020
3fe0
0cc0
7030
ENDCHAR
STARTCHAR 3078
ENCODING 12408
SWIDTH 960 0
DWIDTH 14 0
BBX 14 14 0 -2
BITMAP
0000
7ff8
4208
4208
4208
7ff8
4208
4208
4508
4888
5068
4008
4008
7ff8
ENDCHAR
STARTCHAR 3079
ENCODING 12409
SWIDTH 960 0
DWIDTH 14 0
BBX 14 14 0 -2
BITMAP
1000
11f8
1148
1148
7d48
25f8
2548
2548
7968
4998
0d98
1508
21f8
4000
ENDCHAR
STARTCHAR 307a
ENCODING 12410
SWIDTH 960 0
DWIDTH 14 0
BBX 14 14 0 -2
BITMAP
0020
fe20
0220
0220
7e20
4020
4020
7e20
0220
0220
0220
0220
0420
3820
ENDCHAR
STARTCHAR 307b
ENCODING 12411
SWIDTH 960 0
DWIDTH 14 0
BBX 14 14 0 -2
BITMAP
1080
1080
2880
3480
53f8
fd48
4650
7c40
4440
7cc0
50a0
4920
7610
c408
ENDCHAR
STARTCHAR 307c
ENCODING 12412
SWIDTH 960 0
DWIDTH 14 0
BBX 14 14 0 -2
BITMAP
2018
10e8
1f08
8910
44a0
4470
0780
2080
2080
27f0
4080
4080
9ff8
8000
ENDCHAR
STARTCHAR 307d
ENCODING 12413
SWIDTH 960 0
DWIDTH 14 0
BBX 14 14 0 -2
BITMAP
2220
22a0
3ca0
2520
22a0
3fe0
2060
2fa0
28a0
2fa0
28a0
4fa8
48a8
8998
ENDCHAR
STARTCHAR 307e
ENCODING 12414
SWIDTH 960 0
DWIDTH 14 0
BBX 14 14 0 -2
BITMAP
0880
fff8
0880
7940
4fe0
5818
63e0
5040
4bf0
4800
4ff8
7140
4260
4790
ENDCHAR
STARTCHAR 3121
ENCODING 12577
SWIDTH 960 0
DWIDTH 14 0
BBX 14 14 0 -2
BITMAP
0080
7880
4ff8
5408
6408
57f0
4800
4ff8
4940
4940
7240
4248
4448
4838
ENDCHAR
STARTCHAR 3122
ENCODING 12578
SWIDTH 960 0
DWIDTH 14 0
BBX 14 14 0 -2
BITMAP
0080
7880
4940
5220
65d0
5008
4be0
4840
4be0
4800
7ff8
4140
4260
4f90
ENDCHAR
STARTCHAR 3123
ENCODING 12579
SWIDTH 960 0
DWIDTH 14 0
BBX 14 14 0 -2
BITMAP
0030
7fc8
4c88
5250
63f0
5010
4bf0
4810
4bf0
4880
7550
4548
4928
40e0
ENDCHAR
STARTCHAR 3124
ENCODING 12580
SWIDTH 960 0
DWIDTH 14 0
BBX 14 14 0 -2
BITMAP
1000
11f0
ff10
45f0
2800
fff0
0110
79f0
4910
79f0
4910
49f0
7990
0608
ENDCHAR
STARTCHAR 3125
ENCODING 12581
SWIDTH 960 0
DWIDTH 14 0
BBX 14 14 0 -2
BITMAP
0020
0020
f020
9020
9ff8
9020
9220
9120
9120
9020
f020
0020
0020
0060
ENDCHAR
STARTCHAR 3126
ENCODING 12582
SWIDTH 960 0
DWIDTH 14 0
BBX 14 14 0 -2
BITMAP
0400
0400
0400
fff8
0800
0800
1000
1fe0
3020
3020
5020
9020
1fe0
0000
ENDCHAR
STARTCHAR 3127
ENCODING 12583
SWIDTH 960 0
DWIDTH 14 0
BBX 14 14 0 -2
BITMAP
0200
0200
fff8
8008
8008
3fe0
0200
0200
fff8
0200
0200
0200
0200
0600
ENDCHAR
STARTCHAR 3128
ENCODING 12584
SWIDTH 960 0
DWIDTH 14 0
BBX 14 14 0 -2
BITMAP
0200
0400
1fc0
1040
1040
1fc0
1000
1ff8
1000
1ff0
5290
4950
4810
8060
ENDCHAR
STARTCHAR 3129
ENCODING 12585
SWIDTH 960 0
DWIDTH 14 0
BBX 14 14 0 -2
BITMAP
0000
7ff8
0208
0208
2288
1248
1248
0208
0618
1a68
6388
0208
0208
0618
ENDCHAR
STARTCHAR 312a
ENCODING 12586
SWIDTH 960 0
DWIDTH 14 0
BBX 14 14 0 -2
BITMAP
0000
47f0
2080
2080
0080
0ff8
e080
2080
2080
2080
2080
3180
4c00
83f8
ENDCHAR
STARTCHAR 312b
ENCODING 12587
SWIDTH 960 0
DWIDTH 14 0
BBX 14 14 0 -2
BITMAP
0000
fff8
0200
0200
7ff0
5290
4a50
4a50
4210
5290
4a50
4a50
4210
4230
ENDCHAR
STARTCHAR 312c
ENCODING 12588
SWIDTH 960 0
DWIDTH 14 0
BBX 14 14 0 -2
BITMAP
0400
1800
61f0
4510
4510
4510
4510
4510
4510
7d10
c9e0
0900
1100
2100
ENDCHAR
STARTCHAR 312d
ENCODING 12589
SWIDTH 960 0
DWIDTH 14 0
BBX 14 14 0 -2
BITMAP
4840
2880
31f0
fd10
15f0
7d10
51f0
7df8
7500
35f8
5ca8
9358
1288
1430
ENDCHAR
STARTCHAR 312e
ENCODING 12590
SWIDTH 960 0
DWIDTH 14 0
BBX 14 14 0 -2
BITMAP
0200
fff8
8908
90f0
33e0
1220
7fe0
1220
ffe0
1220
2be0
2948
4248
8c38
ENDCHAR
STARTCHAR 312f
ENCODING 12591
SWIDTH 960 0
DWIDTH 14 0
BBX 14 14 0 -2
BITMAP
0000
3fc0
0440
0440
0440
0440
7ff0
0840
0840
0840
0840
0840
fff8
0000
ENDCHAR
STARTCHAR 3130
ENCODING 12592
SWIDTH 960 0
DWIDTH 14 0
BBX 14 14 0 -2
BITMAP
0120
fd20
2140
23f8
2240
7e40
4bf0
ca40
4a40
4bf0
4a40
7a40
03f8
0000
ENDCHAR
STARTCHAR 3131
ENCODING 12593
SWIDTH 960 0
DWIDTH 14 0
BBX 14 14 0 -2
BITMAP
0200
0c00
71f0
4010
4010
4010
4010
7df0
4010
4010
4010
4010
7ff0
0000
ENDCHAR
STARTCHAR 3132
ENCODING 12594
SWIDTH 960 0
DWIDTH 14 0
BBX 14 14 0 -2
BITMAP
1000
0bf0
0a10
42f0
2290
2290
07f8
1408
15e8
1528
2528
25e8
4408
4418
ENDCHAR
STARTCHAR 3133
ENCODING 12595
SWIDTH 960 0
DWIDTH 14 0
BBX 14 14 0 -2
BITMAP
0100
01f0
e100
aff8
a9f0
af10
a8f0
a940
ad50
eb50
1360
1140
2ff8
0000
ENDCHAR
STARTCHAR 3134
ENCODING 12596
SWIDTH 960 0
DWIDTH 14 0
BBX 14 14 0 -2
BITMAP
0000
03f0
7a10
4a10
4bf0
4a10
4a10
4bf0
4a10
4a10
7bf0
0120
0610
1808
ENDCHAR
STARTCHAR 3135
ENCODING 12597
SWIDTH 960 0
DWIDTH 14 0
BBX 14 14 0 -2
BITMAP
2520
fbf8
7570
aba8
3fe0
2520
3fe0
7c20
47f8
7d20
7ca0
48a0
7c20
c060
ENDCHAR
STARTCHAR 3136
ENCODING 12598
SWIDTH 960 0
DWIDTH 14 0
BBX 14 14 0 -2
BITMAP
0880
fff8
0880
7e10
4210
7ff8
4010
5c90
4050
7e50
5c10
5a10
aa10
1830
ENDCHAR
STARTCHAR 3137
ENCODING 12599
SWIDTH 960 0
DWIDTH 14 0
BBX 14 14 0 -2
BITMAP
1000
11f0
3d10
49f0
fd10
57f8
7ea8
57f8
7c00
09f0
64a0
5440
51a0
8618
ENDCHAR
STARTCHAR 3138
ENCODING 12600
SWIDTH 960 0
DWIDTH 14 0
BBX 14 14 0 -2
BITMAP
2080
2090
23f0
20a0
f8a0
4ff8
4840
4980
f130
93c0
1d00
2908
4108
80f8
ENDCHAR
STARTCHAR 3139
ENCODING 12601
SWIDTH 960 0
DWIDTH 14 0
BBX 14 14 0 -2
BITMAP
0000
7ff8
4000
5ef0
52a0
5ea0
52a0
5ff8
5060
5460
52a0
56a8
9928
6218
ENDCHAR
STARTCHAR 313a
ENCODING 12602
SWIDTH 960 0
DWIDTH 14 0
BBX 14 14 0 -2
BITMAP
20a0
1090
1ff8
8080
47f0
4490
0490
17f0
1490
1490
27f0
2490
4490
44b0
ENDCHAR
STARTCHAR 313b
ENCODING 12603
SWIDTH 960 0
DWIDTH 14 0
BBX 14 14 0 -2
BITMAP
0020
01c0
1e40
1240
1240
1240
1240
1240
1220
1320
22a0
23d0
5c50
8008
ENDCHAR
STARTCHAR 313c
ENCODING 12604
SWIDTH 960 0
DWIDTH 14 0
BBX 14 14 0 -2
BITMAP
0000
7df0
4510
7df0
4510
7df0
4010
5fd0
4210
4f90
4210
5fd0
4010
4030
ENDCHAR
STARTCHAR 313d
ENCODING 12605
SWIDTH 960 0
DWIDTH 14 0
BBX 14 14 0 -2
BITMAP
0220
0140
fff8
9140
97f0
9550
9670
97f0
97f0
9020
fff8
0220
0120
0060
ENDCHAR
STARTCHAR 313e
ENCODING 12606
SWIDTH 960 0
DWIDTH 14 0
BBX 14 14 0 -2
BITMAP
0000
3fe0
0000
0000
0000
fff8
0200
0200
0280
0440
0420
08e0
7f10
0010
ENDCHAR
STARTCHAR 313f
ENCODING 12607
SWIDTH 960 0
DWIDTH 14 0
BBX 14 14 0 -2
BITMAP
0000
4ff8
2888
3fe8
0080
07f0
e490
27f0
2490
27f0
2080
2ff8
5880
87f8
ENDCHAR
STARTCHAR 3140
ENCODING 12608
SWIDTH 960 0
DWIDTH 14 0
BBX 14 14 0 -2
BITMAP
0000
3fe0
0200
fff8
8208
f2e8
3a70
0000
3fe0
0000
fff8
0440
09e0
7e10
ENDCHAR
STARTCHAR 3141
ENCODING 12609
SWIDTH 960 0
DWIDTH 14 0
BBX 14 14 0 -2
BITMAP
0880
0880
fff8
0880
1030
17c0
2080
2080
6ff8
a080
2080
2080
27f0
2000
ENDCHAR
STARTCHAR 3142
ENCODING 12610
SWIDTH 960 0
DWIDTH 14 0
BBX 14 14 0 -2
BITMAP
1000
1bf8
2490
5490
90f0
7c90
4490
7cf0
4490
7c98
48f0
4f10
7410
c010
ENDCHAR
STARTCHAR 3143
ENCODING 12611
SWIDTH 960 0
DWIDTH 14 0
BBX 14 14 0 -2
BITMAP
1c00
11f0
fe10
ba90
b490
5aa0
a4a0
3e60
6440
bc60
24a0
3c90
2510
3e08
ENDCHAR
STARTCHAR 3144
ENCODING 12612
SWIDTH 960 0
DWIDTH 14 0
BBX 14 14 0 -2
BITMAP
2420
1240
fff8
8008
9fc8
1040
1040
1fc0
0400
3fe0
2020
2020
2020
3fe0
ENDCHAR
STARTCHAR 3145
ENCODING 12613
SWIDTH 960 0
DWIDTH 14 0
BBX 14 14 0 -2
BITMAP
0000
7df0
4510
7df0
4510
7df0
4510
7df0
2aa0
fff8
0840
1e80
03c0
7c30
ENDCHAR
STARTCHAR 3146
ENCODING 12614
SWIDTH 960 0
DWIDTH 14 0
BBX 14 14 0 -2
BITMAP
0020
3e20
2240
3e40
2290
3e10
0820
ff20
2248
3e08
2a10
2910
4920
1840
ENDCHAR
STARTCHAR 3147
ENCODING 12615
SWIDTH 960 0
DWIDTH 14 0
BBX 14 14 0 -2
BITMAP
0080
0080
f080
97f0
9490
9490
f490
9ff8
9080
9140
f140
0220
0410
1808
ENDCHAR
STARTCHAR 3148
ENCODING 12616
SWIDTH 960 0
DWIDTH 14 0
BBX 14 14 0 -2
BITMAP
0200
3fe0
2220
2220
3fe0
2220
2220
3ff0
0220
0140
0180
0688
7868
0018
ENDCHAR
STARTCHAR 3149
ENCODING 12617
SWIDTH 960 0
DWIDTH 14 0
BBX 14 14 0 -2
BITMAP
2420
1220
1240
fff8
8008
8208
0200
fff8
0700
0a80
3260
c218
0200
0200
ENDCHAR
STARTCHAR 314a
ENCODING 12618
SWIDTH 960 0
DWIDTH 14 0
BBX 14 14 0 -2
BITMAP
0600
0100
0000
1e00
0210
0310
ff20
0ac0
0a80
1240
2220
c218
0200
0600
ENDCHAR
STARTCHAR 314b
ENCODING 12619
SWIDTH 960 0
DWIDTH 14 0
BBX 14 14 0 -2
BITMAP
2180
1040
1000
8780
4090
4090
0fe0
21c0
22a0
22a0
4490
4888
8080
8180
ENDCHAR
STARTCHAR 314c
ENCODING 12620
SWIDTH 960 0
DWIDTH 14 0
BBX 14 14 0 -2
BITMAP
2080
1080
17f0
8490
4490
47f0
0490
17f0
1090
1060
2040
21a8
4e18
4008
ENDCHAR
STARTCHAR 314d
ENCODING 12621
SWIDTH 960 0
DWIDTH 14 0
BBX 14 14 0 -2
BITMAP
0220
0220
fff8
2220
2080
27f0
fc90
2490
2ff8
2080
38c0
c120
0610
1808
ENDCHAR
STARTCHAR 314e
ENCODING 12622
SWIDTH 960 0
DWIDTH 14 0
BBX 14 14 0 -2
BITMAP
0000
3f80
0880
0880
1ff0
1910
2610
4510
98e0
3fe0
2520
2520
fff8
0000
ENDCHAR
STARTCHAR 314f
ENCODING 12623
SWIDTH 960 0
DWIDTH 14 0
BBX 14 14 0 -2
BITMAP
4000
4bf8
7040
4480
39f0
0510
79f0
1110
fdf0
3110
39f0
54a0
9110
1608
ENDCHAR
STARTCHAR 3150
ENCODING 12624
SWIDTH 960 0
DWIDTH 14 0
BBX 14 14 0 -2
BITMAP
4000
4bf8
7040
4480
3df0
0110
7df0
0110
fff0
1910
55f0
54a0
9110
3608
ENDCHAR
STARTCHAR 3151
ENCODING 12625
SWIDTH 960 0
DWIDTH 14 0
BBX 14 14 0 -2
BITMAP
0880
0880
fff8
0880
0200
3fe0
2220
2220
2220
fff8
0500
0880
3060
c018
ENDCHAR
STARTCHAR 3152
ENCODING 12626
SWIDTH 960 0
DWIDTH 14 0
BBX 14 14 0 -2
BITMAP
2200
2f70
4500
9f80
10f8
2f20
2920
6f20
a220
2f20
2a20
3fa0
2220
2260
ENDCHAR
STARTCHAR 3153
ENCODING 12627
SWIDTH 960 0
DWIDTH 14 0
BBX 14 14 0 -2
BITMAP
0080
7840
0040
fdc0
0050
7850
03e0
78e0
0160
7950
4a50
4c48
7840
00c0
ENDCHAR
STARTCHAR 3154
ENCODING 12628
SWIDTH 960 0
DWIDTH 14 0
BBX 14 14 0 -2
BITMAP
1110
1090
28a0
25f0
4510
b910
1110
fdf0
10a0
54a0
3920
3128
1e28
e418
ENDCHAR
STARTCHAR 3155
ENCODING 12629
SWIDTH 960 0
DWIDTH 14 0
BBX 14 14 0 -2
BITMAP
2080
1080
1ff8
8280
42f0
4490
0550
2d30
36a0
24a0
4440
44a0
8510
8608
ENDCHAR
STARTCHAR 3156
ENCODING 12630
SWIDTH 960 0
DWIDTH 14 0
BBX 14 14 0 -2
BITMAP
0100
0100
1ff8
9000
53c0
5248
1248
3438
5fe0
9220
2140
2080
4360
9c18
ENDCHAR
STARTCHAR 3157
ENCODING 12631
SWIDTH 960 0
DWIDTH 14 0
BBX 14 14 0 -2
BITMAP
1040
0840
0880
fff8
1040
1040
2020
3fe0
5550
9548
1540
1540
fff8
0000
ENDCHAR
STARTCHAR 3158
ENCODING 12632
SWIDTH 960 0
DWIDTH 14 0
BBX 14 14 0 -2
BITMAP
0000
7ff0
5110
7d10
5110
7df0
5140
7d40
0540
5520
5520
5610
8a10
3408
ENDCHAR
STARTCHAR 3159
ENCODING 12633
SWIDTH 960 0
DWIDTH 14 0
BBX 14 14 0 -2
BITMAP
2220
2120
2140
37f0
6c10
6c10
67f0
a140
2140
2240
2240
2448
2848
3038
ENDCHAR
STARTCHAR 315a
ENCODING 12634
SWIDTH 960 0
DWIDTH 14 0
BBX 14 14 0 -2
BITMAP
0000
7be0
0220
ffe0
0220
7be0
0100
7bf0
0650
7b90
4a50
49d0
7810
0060
ENDCHAR
STARTCHAR 315b
ENCODING 12635
SWIDTH 960 0
DWIDTH 14 0
BBX 14 14 0 -2
BITMAP
1040
1050
7c48
13f8
1240
fe50
1250
5260
5ea0
5328
7658
5088
8c00
83f8
ENDCHAR
STARTCHAR 315c
ENCODING 12636
SWIDTH 960 0
DWIDTH 14 0
BBX 14 14 0 -2
BITMAP
0000
7cf8
4488
7cf8
4488
7cf8
4848
4488
4fc8
4848
4fc8
4488
48a8
5078
ENDCHAR
STARTCHAR 315d
ENCODING 12637
SWIDTH 960 0
DWIDTH 14 0
BBX 14 14 0 -2
BITMAP
1000
17f8
1080
fff0
1210
3bf0
3610
37f0
5210
53f0
9720
10c0
1360
1c18
ENDCHAR
STARTCHAR 315e
ENCODING 12638
SWIDTH 960 0
DWIDTH 14 0
BBX 14 14 0 -2
BITMAP
0000
7ff8
4000
5e50
5248
5e40
41f8
5e40
5240
5e40
52e0
5ea0
5310
9608
ENDCHAR
STARTCHAR 315f
ENCODING 12639
SWIDTH 960 0
DWIDTH 14 0
BBX 14 14 0 -2
BITMAP
0000
7ff0
4210
4210
4210
4210
4210
7ff0
4010
4010
4010
4010
4010
4030
ENDCHAR
STARTCHAR 3160
ENCODING 12640
SWIDTH 960 0
DWIDTH 14 0
BBX 14 14 0 -2
BITMAP
0000
7ff0
4210
5fd0
4210
7ff0
4f90
4890
4fd0
4750
5a90
4250
7ff0
0000
ENDCHAR
STARTCHAR 3161
ENCODING 12641
SWIDTH 960 0
DWIDTH 14 0
BBX 14 14 0 -2
BITMAP
0000
27f8
2400
25f0
fd10
25f0
2510
25f0
2c40
37f8
c5a0
0460
0590
07f8
ENDCHAR
STARTCHAR 3162
ENCODING 12642
SWIDTH 960 0
DWIDTH 14 0
BBX 14 14 0 -2
BITMAP
0200
0200
fff8
0500
1ac0
e238
3fe0
2220
3fe0
2220
3fe0
0208
0208
01f8
ENDCHAR
STARTCHAR 3163
ENCODING 12643
SWIDTH 960 0
DWIDTH 14 0
BBX 14 14 0 -2
BITMAP
0200
fff8
8008
9fc8
1040
1fc0
1040
1fc0
0200
fff8
0880
1d00
0780
7860
ENDCHAR
STARTCHAR 3164
ENCODING 12644
SWIDTH 960 0
DWIDTH 14 0
BBX 14 14 0 -2
BITMAP
0000
f038
17c0
2040
2040
7a40
0a70
4a40
4a40
2a40
37f8
3000
4c00
83f8
ENDCHAR
STARTCHAR 3165
ENCODING 12645
SWIDTH 960 0
DWIDTH 14 0
BBX 14 14 0 -2
BITMAP
1000
1000
3ff0
2310
5510
8d60
0908
30f8
c200
2920
2910
4848
8848
07c0
ENDCHAR
STARTCHAR 3166
ENCODING 12646
SWIDTH 960 0
DWIDTH 14 0
BBX 14 14 0 -2
BITMAP
2080
2080
27f8
f940
22a0
2490
3ff8
2490
67f0
a490
27f0
2080
2088
6078
ENDCHAR
STARTCHAR 3167
ENCODING 12647
SWIDTH 960 0
DWIDTH 14 0
BBX 14 14 0 -2
BITMAP
2010
2060
2790
fc90
2220
27f0
2100
3ff8
e200
23f0
2520
28c0
31e0
6618
ENDCHAR
STARTCHAR 3168
ENCODING 12648
SWIDTH 960 0
DWIDTH 14 0
BBX 14 14 0 -2
BITMAP
21c0
1040
1240
8240
4220
4420
0410
2fe8
2420
2420
4420
4420
87e0
8000
ENDCHAR
STARTCHAR 3169
ENCODING 12649
SWIDTH 960 0
DWIDTH 14 0
BBX 14 14 0 -2
BITMAP
2080
1080
1ff8
8808
5ff0
4080
07f0
2490
27f0
2490
47f0
4120
8610
9808
ENDCHAR
STARTCHAR 316a
ENCODING 12650
SWIDTH 960 0
DWIDTH 14 0
BBX 14 14 0 -2
BITMAP
0220
1220
1240
2600
0580
1860
6210
0220
2220
2640
4500
0880
3060
c018
ENDCHAR
STARTCHAR 316b
ENCODING 12651
SWIDTH 960 0
DWIDTH 14 0
BBX 14 14 0 -2
BITMAP
0840
0840
0a78
0a88
2b10
2c20
2978
4948
0948
0d78
1348
1348
2178
4100
ENDCHAR
STARTCHAR 316c
ENCODING 12652
SWIDTH 960 0
DWIDTH 14 0
BBX 14 14 0 -2
BITMAP
2000
2ff8
2140
2ff0
6d50
7550
67f0
a080
3080
2ff0
4880
4080
8ff8
0000
ENDCHAR
STARTCHAR 316d
ENCODING 12653
SWIDTH 960 0
DWIDTH 14 0
BBX 14 14 0 -2
BITMAP
0880
0880
fff8
0880
1fc8
f050
1760
3540
d548
1738
2920
2490
4488
8008
ENDCHAR
STARTCHAR 316e
ENCODING 12654
SWIDTH 960 0
DWIDTH 14 0
BBX 14 14 0 -2
BITMAP
1080
97f0
6080
2ff8
6000
93e0
1220
33e0
5190
9e90
1260
1220
6390
2c08
ENDCHAR
STARTCHAR 316f
ENCODING 12655
SWIDTH 960 0
DWIDTH 14 0
BBX 14 14 0 -2
BITMAP
2000
23e0
2820
cbe0
3020
37f8
4880
f9c8
26d0
7160
6ee0
6950
a648
2180
ENDCHAR
STARTCHAR 3170
ENCODING 12656
SWIDTH 960 0
DWIDTH 14 0
BBX 14 14 0 -2
BITMAP
2840
fe40
aaf0
ff20
aa40
fff0
0150
ff50
7df0
4500
7d00
4908
3d08
c0f8
ENDCHAR
STARTCHAR 3171
ENCODING 12657
SWIDTH 960 0
DWIDTH 14 0
BBX 14 14 0 -2
BITMAP
0880
0880
fff8
0880
1000
11f0
3d10
2510
4510
a960
1900
1108
2108
40f8
ENDCHAR
STARTCHAR 3172
ENCODING 12658
SWIDTH 960 0
DWIDTH 14 0
BBX 14 14 0 -2
BITMAP
0880
fff8
0880
7ff0
4210
4f90
7ff0
4890
4fd0
4750
5c90
4450
7ff0
0000
ENDCHAR
STARTCHAR 3173
ENCODING 12659
SWIDTH 960 0
DWIDTH 14 0
BBX 14 14 0 -2
BITMAP
0080
47f0
2080
2ff8
0000
07f0
e410
27f0
2110
23a0
3d60
3110
4d00
83f8
ENDCHAR
STARTCHAR 3174
ENCODING 12660
SWIDTH 960 0
DWIDTH 14 0
BBX 14 14 0 -2
BITMAP
10e0
1020
2920
2520
4510
ba10
1208
fdf0
1110
5510
3910
3110
1df0
e000
ENDCHAR
STARTCHAR 3175
ENCODING 12661
SWIDTH 960 0
DWIDTH 14 0
BBX 14 14 0 -2
BITMAP
1000
3ff0
e510
1960
3108
c4f8
1f80
1080
1ff0
1000
1ff0
2a90
4a50
8060
ENDCHAR
STARTCHAR 3176
ENCODING 12662
SWIDTH 960 0
DWIDTH 14 0
BBX 14 14 0 -2
BITMAP
0200
2200
23f8
2400
ffe0
2a20
23e0
2000
2ff0
3550
c550
0550
1ff8
0000
ENDCHAR
STARTCHAR 3177
ENCODING 12663
SWIDTH 960 0
DWIDTH 14 0
BBX 14 14 0 -2
BITMAP
1040
1040
1040
fea0
10a0
1110
1e88
1440
1440
2400
2480
4440
8420
1820
ENDCHAR
STARTCHAR 3178
ENCODING 12664
SWIDTH 960 0
DWIDTH 14 0
BBX 14 14 0 -2
BITMAP
2000
17f0
1080
8080
4ff8
4100
0100
13f0
1010
1010
2010
2010
4010
40e0
ENDCHAR
STARTCHAR 3179
ENCODING 12665
SWIDTH 960 0
DWIDTH 14 0
BBX 14 14 0 -2
BITMAP
0800
2bf8
2a48
3e48
2bf8
4a48
0a48
3ff8
0840
0bf8
0c48
1888
6108
0630
ENDCHAR
STARTCHAR 317a
ENCODING 12666
SWIDTH 960 0
DWIDTH 14 0
BBX 14 14 0 -2
BITMAP
0000
78f0
4890
4890
4890
4890
4890
4f90
4010
4010
4010
4010
7ff0
0000
ENDCHAR
STARTCHAR 317b
ENCODING 12667
SWIDTH 960 0
DWIDTH 14 0
BBX 14 14 0 -2
BITMAP
0200
0200
0200
3fe0
2220
2220
2220
2220
fff8
0600
0500
0880
3060
c018
ENDCHAR
STARTCHAR 317c
ENCODING 12668
SWIDTH 960 0
DWIDTH 14 0
BBX 14 14 0 -2
BITMAP
0200
0400
3fe0
32a0
2aa0
2b20
3fe0
2720
2aa0
3260
fff8
0500
18c0
6030
ENDCHAR
STARTCHAR 317d
ENCODING 12669
SWIDTH 960 0
DWIDTH 14 0
BBX 14 14 0 -2
BITMAP
1100
1080
2080
4ff8
8880
1080
1080
37f0
5080
9080
1080
1080
1ff8
1000
ENDCHAR
STARTCHAR 317e
ENCODING 12670
SWIDTH 960 0
DWIDTH 14 0
BBX 14 14 0 -2
BITMAP
0100
0100
3ff8
2100
2080
2240
2240
2a10
2a08
2a08
5208
5220
8220
01e0
ENDCHAR
STARTCHAR 3221
ENCODING 12833
SWIDTH 960 0
DWIDTH 14 0
BBX 14 14 0 -2
BITMAP
1000
13f8
1248
7e48
13f8
1248
1248
1ff8
7040
1040
1040
1040
1040
3040
ENDCHAR
STARTCHAR 3222
ENCODING 12834
SWIDTH 960 0
DWIDTH 14 0
BBX 14 14 0 -2
BITMAP
0000
fff8
8880
8880
8880
f880
8ff0
8880
8880
8880
f880
0080
0ff8
0000
ENDCHAR
STARTCHAR 3223
ENCODING 12835
SWIDTH 960 0
DWIDTH 14 0
BBX 14 14 0 -2
BITMAP
2140
2140
27f0
f940
2ff8
2080
77f0
6c90
6ff0
a490
a7f0
2140
2220
2c10
ENDCHAR
STARTCHAR 3224
ENCODING 12836
SWIDTH 960 0
DWIDTH 14 0
BBX 14 14 0 -2
BITMAP
0080
7e80
4480
45f8
6548
5650
4860
4c40
5440
52c0
62a0
4120
7e10
0408
ENDCHAR
STARTCHAR 3225
ENCODING 12837
SWIDTH 960 0
DWIDTH 14 0
BBX 14 14 0 -2
BITMAP
0000
7ee0
44a0
44a0
64a8
5528
4a18
49f0
5490
54a0
6060
4060
7d90
0608
ENDCHAR
STARTCHAR 3226
ENCODING 12838
SWIDTH 960 0
DWIDTH 14 0
BBX 14 14 0 -2
BITMAP
0000
7ff0
0200
0200
0200
0200
3fe0
0200
0200
0200
0200
0200
fff8
0000
ENDCHAR
STARTCHAR 3227
ENCODING 12839
SWIDTH 960 0
DWIDTH 14 0
BBX 14 14 0 -2
BITMAP
0bc0
0840
3220
c398
04c0
7f20
0000
fff0
4510
2490
0c30
34d0
c710
0c30
ENDCHAR
STARTCHAR 3228
ENCODING 12840
SWIDTH 960 0
DWIDTH 14 0
BBX 14 14 0 -2
BITMAP
2080
2100
27f0
feb0
15d0
17f0
2dd0
36b0
6c90
aff8
2080
2140
2620
3818
ENDCHAR
STARTCHAR 3229
ENCODING 12841
SWIDTH 960 0
DWIDTH 14 0
BBX 14 14 0 -2
BITMAP
2420
1240
fff8
8408
9fc8
1040
1fc0
1040
1ff8
1000
1ff0
5290
4950
8060
ENDCHAR
STARTCHAR 322a
ENCODING 12842
SWIDTH 960 0
DWIDTH 14 0
BBX 14 14 0 -2
BITMAP
0040
7e80
41f0
4510
45f0
6510
59f0
49f8
4d00
55f8
60a8
4358
7e88
4430
ENDCHAR
STARTCHAR 322b
ENCODING 12843
SWIDTH 960 0
DWIDTH 14 0
BBX 14 14 0 -2
BITMAP
0880
0880
7ff0
0880
fff8
0200
3fe0
2220
3fe0
2220
3fe0
0880
3060
c010
ENDCHAR
STARTCHAR 322c
ENCODING 12844
SWIDTH 960 0
DWIDTH 14 0
BBX 14 14 0 -2
BITMAP
0000
7ff0
5090
4890
4910
7ff0
4210
5250
5250
5250
5fd0
4010
4010
4030
ENDCHAR
STARTCHAR 322d
ENCODING 12845
SWIDTH 960 0
DWIDTH 14 0
BBX 14 14 0 -2
BITMAP
2080
1080
1080
87f0
4490
4490
0490
1490
17f0
1480
2080
2080
4080
4080
ENDCHAR
STARTCHAR 322e
ENCODING 12846
SWIDTH 960 0
DWIDTH 14 0
BBX 14 14 0 -2
BITMAP
0880
0880
fff8
0880
0840
6850
1150
3160
ca40
1ac0
28a0
c920
0a10
3408
ENDCHAR
STARTCHAR 322f
ENCODING 12847
SWIDTH 960 0
DWIDTH 14 0
BBX 14 14 0 -2
BITMAP
1080
17f0
1140
2ff8
2000
63e0
a220
23e0
2220
23e0
2a90
2a48
3228
21e0
ENDCHAR
STARTCHAR 3230
ENCODING 12848
SWIDTH 960 0
DWIDTH 14 0
BBX 14 14 0 -2
BITMAP
0000
3ff0
2010
3ff0
2000
3ff0
2280
2460
3f90
2100
4fe0
4100
bff8
0000
ENDCHAR
STARTCHAR 3231
ENCODING 12849
SWIDTH 960 0
DWIDTH 14 0
BBX 14 14 0 -2
BITMAP
2080
27f0
2220
2ff8
7000
6be0
6a20
a3e0
2220
23e0
2a90
2a48
3228
21e0
ENDCHAR
STARTCHAR 3232
ENCODING 12850
SWIDTH 960 0
DWIDTH 14 0
BBX 14 14 0 -2
BITMAP
0040
7ff8
4920
4ff8
7800
4bf0
4a10
7bf0
4a10
4bf0
4950
4b48
4d28
98e0
ENDCHAR
STARTCHAR 3233
ENCODING 12851
SWIDTH 960 0
DWIDTH 14 0
BBX 14 14 0 -2
BITMAP
1000
13f8
1090
7c60
13f8
1248
3a48
37f8
3648
5248
53f8
1248
1248
1258
ENDCHAR
STARTCHAR 3234
ENCODING 12852
SWIDTH 960 0
DWIDTH 14 0
BBX 14 14 0 -2
BITMAP
1080
1080
5080
5080
7c80
53f0
5080
9080
1c80
f080
1080
1080
17f8
1000
ENDCHAR
STARTCHAR 3235
ENCODING 12853
SWIDTH 960 0
DWIDTH 14 0
BBX 14 14 0 -2
BITMAP
0000
7fc0
0080
0100
0200
0400
0800
1000
2000
4010
4010
4010
3ff0
0000
ENDCHAR
STARTCHAR 3236
ENCODING 12854
SWIDTH 960 0
DWIDTH 14 0
BBX 14 14 0 -2
BITMAP
1100
1100
1ff0
2280
2540
6930
bfe8
2920
2fe0
2920
2fe0
2108
2108
20f8
ENDCHAR
STARTCHAR 3237
ENCODING 12855
SWIDTH 960 0
DWIDTH 14 0
BBX 14 14 0 -2
BITMAP
1000
1078
1f48
2448
4448
7fc8
0448
2748
2448
2448
2770
3c40
6040
0040
ENDCHAR
STARTCHAR 3238
ENCODING 12856
SWIDTH 960 0
DWIDTH 14 0
BBX 14 14 0 -2
BITMAP
0000
3fe0
2220
3fe0
2220
25a0
3860
3fe0
0200
2920
2910
4848
8848
07c0
ENDCHAR
STARTCHAR 3239
ENCODING 12857
SWIDTH 960 0
DWIDTH 14 0
BBX 14 14 0 -2
BITMAP
2000
17e0
1420
87e0
4420
47e0
0000
2000
2ff0
2a50
4a50
4a50
9ff8
8000
ENDCHAR
STARTCHAR 323a
ENCODING 12858
SWIDTH 960 0
DWIDTH 14 0
BBX 14 14 0 -2
BITMAP
0830
37d0
e490
2220
23f0
f810
23f0
3010
6bf0
6880
a550
2508
2928
20e0
ENDCHAR
STARTCHAR 323b
ENCODING 12859
SWIDTH 960 0
DWIDTH 14 0
BBX 14 14 0 -2
BITMAP
0200
0200
7ff0
1040
0880
fff8
0000
1fc0
1040
1fc0
1040
1040
1fc0
0000
ENDCHAR
STARTCHAR 323c
ENCODING 12860
SWIDTH 960 0
DWIDTH 14 0
BBX 14 14 0 -2
BITMAP
0000
fff8
0200
0200
0300
0280
0240
0220
0220
0200
0200
0200
0200
0200
ENDCHAR
STARTCHAR 323d
ENCODING 12861
SWIDTH 960 0
DWIDTH 14 0
BBX 14 14 0 -2
BITMAP
0900
0900
0910
1110
1120
3140
5180
9100
1100
1100
1100
1108
1108
10f8
ENDCHAR
STARTCHAR 323e
ENCODING 12862
SWIDTH 960 0
DWIDTH 14 0
BBX 14 14 0 -2
BITMAP
1000
17f8
1400
2400
27f0
6510
a510
24a0
24a0
2440
2840
28a0
3310
2c08
ENDCHAR
STARTCHAR 323f
ENCODING 12863
SWIDTH 960 0
DWIDTH 14 0
BBX 14 14 0 -2
BITMAP
1000
1ff8
1010
2010
2790
6490
a490
2490
2490
2790
2010
2010
2010
2030
ENDCHAR
STARTCHAR 3240
ENCODING 12864
SWIDTH 960 0
DWIDTH 14 0
BBX 14 14 0 -2
BITMAP
1400
1400
1470
3f50
2550
6550
a550
2550
2550
2550
2950
2950
3370
2000
ENDCHAR
STARTCHAR 3241
ENCODING 12865
SWIDTH 960 0
DWIDTH 14 0
BBX 14 14 0 -2
BITMAP
1000
1ff8
1140
2140
2140
67f0
a550
2550
2550
2550
2550
2550
27f0
2000
ENDCHAR
STARTCHAR 3242
ENCODING 12866
SWIDTH 960 0
DWIDTH 14 0
BBX 14 14 0 -2
BITMAP
1080
1080
1080
27f0
2080
6080
aff8
2080
2080
27f0
2080
2080
2ff8
2000
ENDCHAR
STARTCHAR 3243
ENCODING 12867
SWIDTH 960 0
DWIDTH 14 0
BBX 14 14 0 -2
BITMAP
1000
1000
1000
10f8
fe88
1288
1288
1288
1288
1288
2288
22f8
4200
8c00
ENDCHAR
STARTCHAR 3244
ENCODING 12868
SWIDTH 960 0
DWIDTH 14 0
BBX 14 14 0 -2
BITMAP
0000
fff8
0020
0020
3e20
2220
2220
2220
2220
3e20
0020
0020
0020
0060
ENDCHAR
STARTCHAR 3245
ENCODING 12869
SWIDTH 960 0
DWIDTH 14 0
BBX 14 14 0 -2
BITMAP
0200
7ff0
0200
3fe0
0000
1fc0
1040
1fc0
0880
fff8
0800
7ef0
1290
66f0
ENDCHAR
STARTCHAR 3246
ENCODING 12870
SWIDTH 960 0
DWIDTH 14 0
BBX 14 14 0 -2
BITMAP
0000
fff8
0200
1fc0
1040
1fc0
1040
1fc0
1040
1fc0
7880
0700
0dc0
f038
ENDCHAR
STARTCHAR 3247
ENCODING 12871
SWIDTH 960 0
DWIDTH 14 0
BBX 14 14 0 -2
BITMAP
2080
2080
27f8
2408
ffe8
4880
49c8
4ed0
f160
96e0
1950
2e48
c040
0180
ENDCHAR
STARTCHAR 3248
ENCODING 12872
SWIDTH 960 0
DWIDTH 14 0
BBX 14 14 0 -2
BITMAP
0200
0200
fff8
8008
bfe8
0400
1a90
6790
1b60
6540
0920
3110
c108
0600
ENDCHAR
STARTCHAR 3249
ENCODING 12873
SWIDTH 960 0
DWIDTH 14 0
BBX 14 14 0 -2
BITMAP
0200
fff8
8008
bfe8
0800
1fc0
1040
1fc0
1040
fff8
1fc0
e4b8
0880
3300
ENDCHAR
STARTCHAR 324a
ENCODING 12874
SWIDTH 960 0
DWIDTH 14 0
BBX 14 14 0 -2
BITMAP
0420
1920
70a0
10a0
1220
fd20
1120
3838
34e0
5720
9020
1020
1020
1020
ENDCHAR
STARTCHAR 324b
ENCODING 12875
SWIDTH 960 0
DWIDTH 14 0
BBX 14 14 0 -2
BITMAP
0000
0f70
e910
a910
af70
a800
e800
aef0
a890
a850
ae60
e820
0850
0988
ENDCHAR
STARTCHAR 324c
ENCODING 12876
SWIDTH 960 0
DWIDTH 14 0
BBX 14 14 0 -2
BITMAP
0000
3fe0
2220
2220
3fe0
2220
3fe0
0200
fff8
0700
0a80
3260
c218
0200
ENDCHAR
STARTCHAR 324d
ENCODING 12877
SWIDTH 960 0
DWIDTH 14 0
BBX 14 14 0 -2
BITMAP
2000
21f0
fd10
2510
2510
4510
9bf0
0200
fff8
0700
0a80
3260
c218
0200
ENDCHAR
STARTCHAR 324e
ENCODING 12878
SWIDTH 960 0
DWIDTH 14 0
BBX 14 14 0 -2
BITMAP
0080
fe80
0480
7480
55f8
7550
0660
fe40
0440
74c0
54a0
7520
0610
0c08
ENDCHAR
STARTCHAR 324f
ENCODING 12879
SWIDTH 960 0
DWIDTH 14 0
BBX 14 14 0 -2
BITMAP
2000
1ff8
1010
8010
4790
4490
0490
0490
1490
1790
2010
2010
4010
4030
ENDCHAR
STARTCHAR 3250
ENCODING 12880
SWIDTH 960 0
DWIDTH 14 0
BBX 14 14 0 -2
BITMAP
0200
0200
0210
2210
2220
2240
4300
4500
0480
0880
0840
1020
2010
c008
ENDCHAR
STARTCHAR 3251
ENCODING 12881
SWIDTH 960 0
DWIDTH 14 0
BBX 14 14 0 -2
BITMAP
0000
07f8
f810
2010
23d0
2250
fa50
2250
2250
23d0
3810
c010
0010
0030
ENDCHAR
STARTCHAR 3252
ENCODING 12882
SWIDTH 960 0
DWIDTH 14 0
BBX 14 14 0 -2
BITMAP
1000
11f0
1110
7d70
0950
0950
13f8
1a08
36e8
56a8
12a8
12e8
1208
1218
ENDCHAR
STARTCHAR 3253
ENCODING 12883
SWIDTH 960 0
DWIDTH 14 0
BBX 14 14 0 -2
BITMAP
0060
0380
3e00
0200
0200
fff8
0200
0700
0a80
3260
c218
0200
0200
0200
ENDCHAR
STARTCHAR 3254
ENCODING 12884
SWIDTH 960 0
DWIDTH 14 0
BBX 14 14 0 -2
BITMAP
0880
3080
e7f8
2408
2ff0
f880
21c8
76d0
6960
aee0
a150
2648
2040
2180
ENDCHAR
STARTCHAR 3255
ENCODING 12885
SWIDTH 960 0
DWIDTH 14 0
BBX 14 14 0 -2
BITMAP
2080
3ff8
5140
8a20
7ff0
4210
5fd0
4210
4f90
4890
4f90
4010
7ff0
0000
ENDCHAR
STARTCHAR 3256
ENCODING 12886
SWIDTH 960 0
DWIDTH 14 0
BBX 14 14 0 -2
BITMAP
0880
0880
fff8
0880
0880
0900
1110
1120
31c0
5100
9100
1108
1108
10f8
ENDCHAR
STARTCHAR 3257
ENCODING 12887
SWIDTH 960 0
DWIDTH 14 0
BBX 14 14 0 -2
BITMAP
0880
0880
fff8
0880
0000
fff8
0020
3e20
2220
2220
3e20
0020
0020
0060
ENDCHAR
STARTCHAR 3258
ENCODING 12888
SWIDTH 960 0
DWIDTH 14 0
BBX 14 14 0 -2
BITMAP
0880
0880
fff8
0880
2880
2000
fdf0
2510
2510
2510
2510
4510
45f0
9800
ENDCHAR
STARTCHAR 3259
ENCODING 12889
SWIDTH 960 0
DWIDTH 14 0
BBX 14 14 0 -2
BITMAP
0880
0880
fff8
0880
1000
17f8
2020
27a0
64a0
a4a0
27a0
2020
2020
2060
ENDCHAR
STARTCHAR 325a
ENCODING 12890
SWIDTH 960 0
DWIDTH 14 0
BBX 14 14 0 -2
BITMAP
0880
0880
fff8
0880
3fe0
1240
fff8
1240
3ff0
0200
fff8
0200
0200
0200
ENDCHAR
STARTCHAR 325b
ENCODING 12891
SWIDTH 960 0
DWIDTH 14 0
BBX 14 14 0 -2
BITMAP
0880
fff8
0880
3fe0
2220
3fe0
2220
3fe0
0200
fff8
0700
1ac0
e238
0200
ENDCHAR
STARTCHAR 325c
ENCODING 12892
SWIDTH 960 0
DWIDTH 14 0
BBX 14 14 0 -2
BITMAP
2000
23b0
2290
fa90
abb0
aa00
aa00
fbf0
2250
3250
2ba0
3a20
ca50
0288
ENDCHAR
STARTCHAR 325d
ENCODING 12893
SWIDTH 960 0
DWIDTH 14 0
BBX 14 14 0 -2
BITMAP
0000
7bf0
0290
fe90
03f0
7a90
03f0
7880
07f8
79c0
4aa0
4c90
7888
0080
ENDCHAR
STARTCHAR 325e
ENCODING 12894
SWIDTH 960 0
DWIDTH 14 0
BBX 14 14 0 -2
BITMAP
0220
0220
fff8
9220
97f0
92a0
9ff8
92a0
97f0
f080
1ff8
0080
0080
0080
ENDCHAR
STARTCHAR 325f
ENCODING 12895
SWIDTH 960 0
DWIDTH 14 0
BBX 14 14 0 -2
BITMAP
0900
0918
31e0
d108
10f8
1fc0
1040
1fc0
1040
1fc0
1040
1fc0
0cc0
7030
ENDCHAR
STARTCHAR 3260
ENCODING 12896
SWIDTH 960 0
DWIDTH 14 0
BBX 14 14 0 -2
BITMAP
0400
4400
2470
3f50
0550
0550
e550
2550
2950
2950
3170
3650
4c00
83f8
ENDCHAR
STARTCHAR 3261
ENCODING 12897
SWIDTH 960 0
DWIDTH 14 0
BBX 14 14 0 -2
BITMAP
0000
47e0
2420
25e0
0520
0ff0
e810
2bd0
2a50
2a50
2bd0
3830
4c00
83f8
ENDCHAR
STARTCHAR 3262
ENCODING 12898
SWIDTH 960 0
DWIDTH 14 0
BBX 14 14 0 -2
BITMAP
0000
3fe0
0200
fff8
8208
bae8
0200
7df0
4410
7df0
7bf0
40a0
78e0
4318
ENDCHAR
STARTCHAR 3263
ENCODING 12899
SWIDTH 960 0
DWIDTH 14 0
BBX 14 14 0 -2
BITMAP
1040
1040
1040
7ff8
5510
5510
5510
7ca0
10a0
1840
1440
1ea0
e110
0208
ENDCHAR
STARTCHAR 3264
ENCODING 12900
SWIDTH 960 0
DWIDTH 14 0
BBX 14 14 0 -2
BITMAP
10c0
1350
1e48
2248
2240
7ff8
a240
2350
2250
2620
3a20
2268
2698
2208
ENDCHAR
STARTCHAR 3265
ENCODING 12901
SWIDTH 960 0
DWIDTH 14 0
BBX 14 14 0 -2
BITMAP
00c0
2150
2748
2148
a940
aff8
a948
a950
a9b0
ab20
fd60
0198
0118
0308
ENDCHAR
STARTCHAR 3266
ENCODING 12902
SWIDTH 960 0
DWIDTH 14 0
BBX 14 14 0 -2
BITMAP
0500
0920
7110
1110
1100
fff8
1110
1110
1ca0
f0a0
1048
11a8
1618
3008
ENDCHAR
STARTCHAR 3267
ENCODING 12903
SWIDTH 960 0
DWIDTH 14 0
BBX 14 14 0 -2
BITMAP
0000
1fe0
1080
1080
1080
1080
fff8
0180
0280
0480
0880
3080
c080
0180
ENDCHAR
STARTCHAR 3268
ENCODING 12904
SWIDTH 960 0
DWIDTH 14 0
BBX 14 14 0 -2
BITMAP
0000
fff8
0200
0200
5fd0
5250
5250
5fd0
5250
5250
5fd0
4010
7ff0
0000
ENDCHAR
STARTCHAR 3269
ENCODING 12905
SWIDTH 960 0
DWIDTH 14 0
BBX 14 14 0 -2
BITMAP
0040
7f40
4840
4840
7e40
4240
4240
42c0
7ea0
48a0
4920
4910
7e10
0408
ENDCHAR
STARTCHAR 326a
ENCODING 12906
SWIDTH 960 0
DWIDTH 14 0
BBX 14 14 0 -2
BITMAP
0880
0880
fff8
0880
3fe0
1080
1080
fff8
0180
0280
0c80
3080
c080
0180
ENDCHAR
STARTCHAR 326b
ENCODING 12907
SWIDTH 960 0
DWIDTH 14 0
BBX 14 14 0 -2
BITMAP
20c0
2160
2750
f950
a940
aff8
a940
f950
a1d0
3760
2920
3d68
c198
0308
ENDCHAR
STARTCHAR 326c
ENCODING 12908
SWIDTH 960 0
DWIDTH 14 0
BBX 14 14 0 -2
BITMAP
0800
08f8
7e88
1288
16f8
2fe0
4820
0fe0
0820
0fe0
0820
0fe0
0660
3818
ENDCHAR
STARTCHAR 326d
ENCODING 12909
SWIDTH 960 0
DWIDTH 14 0
BBX 14 14 0 -2
BITMAP
0090
7c90
4920
49f8
4b20
fd20
19f8
1920
2920
29f8
4920
8920
09f8
1800
ENDCHAR
STARTCHAR 326e
ENCODING 12910
SWIDTH 960 0
DWIDTH 14 0
BBX 14 14 0 -2
BITMAP
1040
10d0
2f48
3548
5140
fff8
4940
7950
49d0
7f20
5128
4958
7d98
c308
ENDCHAR
STARTCHAR 326f
ENCODING 12911
SWIDTH 960 0
DWIDTH 14 0
BBX 14 14 0 -2
BITMAP
0800
7ef8
1288
1288
26f8
4000
1ff0
1100
1fe0
1100
1ff8
2a48
2528
4030
ENDCHAR
STARTCHAR 3270
ENCODING 12912
SWIDTH 960 0
DWIDTH 14 0
BBX 14 14 0 -2
BITMAP
0200
0200
0500
0880
3060
c898
0880
0880
0880
0880
1080
1080
2080
4080
ENDCHAR
STARTCHAR 3271
ENCODING 12913
SWIDTH 960 0
DWIDTH 14 0
BBX 14 14 0 -2
BITMAP
0200
0200
0500
0880
3060
cf98
0000
0000
7ff0
0480
0440
09a0
7e10
0010
ENDCHAR
STARTCHAR 3272
ENCODING 12914
SWIDTH 960 0
DWIDTH 14 0
BBX 14 14 0 -2
BITMAP
2000
3ff0
4890
9110
7e60
5540
55f0
7e40
5440
7ff8
4440
4440
4440
8c40
ENDCHAR
STARTCHAR 3273
ENCODING 12915
SWIDTH 960 0
DWIDTH 14 0
BBX 14 14 0 -2
BITMAP
0000
7ff0
4010
4010
4f90
4890
4890
4890
4890
4f90
4010
4010
7ff0
0000
ENDCHAR
STARTCHAR 3274
ENCODING 12916
SWIDTH 960 0
DWIDTH 14 0
BBX 14 14 0 -2
BITMAP
0080
2100
27f0
2490
fff0
2490
2490
27f0
21a0
3aa0
c2d0
04f8
0888
1078
ENDCHAR
STARTCHAR 3275
ENCODING 12917
SWIDTH 960 0
DWIDTH 14 0
BBX 14 14 0 -2
BITMAP
0080
2ff8
2080
27f0
fd50
2550
27f0
2080
2ff8
3190
c6a0
1a40
03a0
0c18
ENDCHAR
STARTCHAR 3276
ENCODING 12918
SWIDTH 960 0
DWIDTH 14 0
BBX 14 14 0 -2
BITMAP
0000
07f0
f410
15d0
2550
2550
7550
1550
95d0
5410
27f0
3000
4c00
83f8
ENDCHAR
STARTCHAR 3277
ENCODING 12919
SWIDTH 960 0
DWIDTH 14 0
BBX 14 14 0 -2
BITMAP
2080
2080
2080
27f0
7090
6890
6890
a7f8
20c0
2140
2120
2220
2410
2808
ENDCHAR
STARTCHAR 3278
ENCODING 12920
SWIDTH 960 0
DWIDTH 14 0
BBX 14 14 0 -2
BITMAP
2000
2ff0
2220
2140
7180
6e60
6898
a080
27f0
2080
2080
2080
2ff8
2000
ENDCHAR
STARTCHAR 3279
ENCODING 12921
SWIDTH 960 0
DWIDTH 14 0
BBX 14 14 0 -2
BITMAP
2200
2200
23f8
3400
6be0
6aa0
62a0
aff8
24a0
24a0
2ff8
2820
2020
20c0
ENDCHAR
STARTCHAR 327a
ENCODING 12922
SWIDTH 960 0
DWIDTH 14 0
BBX 14 14 0 -2
BITMAP
2000
27f8
2400
2440
7450
6d50
6d60
a540
2640
2440
24a0
2920
3610
3808
ENDCHAR
STARTCHAR 327b
ENCODING 12923
SWIDTH 960 0
DWIDTH 14 0
BBX 14 14 0 -2
BITMAP
2080
2ff8
2080
37f0
6d50
6d50
67f0
a080
2ff8
2190
26a0
3a40
23a0
2c18
ENDCHAR
STARTCHAR 327c
ENCODING 12924
SWIDTH 960 0
DWIDTH 14 0
BBX 14 14 0 -2
BITMAP
0120
0110
0110
fff8
0100
2510
2510
24a0
ffa0
2440
2448
44a8
4518
8208
ENDCHAR
STARTCHAR 327d
ENCODING 12925
SWIDTH 960 0
DWIDTH 14 0
BBX 14 14 0 -2
BITMAP
1000
13f8
1208
7e08
13f8
1000
1000
1ff8
7088
1088
1088
1108
1208
3430
ENDCHAR
STARTCHAR 327e
ENCODING 12926
SWIDTH 960 0
DWIDTH 14 0
BBX 14 14 0 -2
BITMAP
0100
f900
0900
09f8
0a20
fb20
8520
80a0
80c0
8840
88c0
7920
0610
1808
ENDCHAR
STARTCHAR 3321
ENCODING 13089
SWIDTH 960 0
DWIDTH 14 0
BBX 14 14 0 -2
BITMAP
1120
20a0
7ca0
5620
7d20
5520
7c38
1be0
1a20
1a20
2d20
2fa8
4808
87f8
ENDCHAR
STARTCHAR 3322
ENCODING 13090
SWIDTH 960 0
DWIDTH 14 0
BBX 14 14 0 -2
BITMAP
0200
0200
f3f8
9400
9be0
92a0
f2a0
9ff8
94a0
94a0
f7f8
0420
0020
00c0
ENDCHAR
STARTCHAR 3323
ENCODING 13091
SWIDTH 960 0
DWIDTH 14 0
BBX 14 14 0 -2
BITMAP
2040
2050
2048
fff8
2040
2550
7550
6d50
6fe0
a520
a528
2958
3098
2108
ENDCHAR
STARTCHAR 3324
ENCODING 13092
SWIDTH 960 0
DWIDTH 14 0
BBX 14 14 0 -2
BITMAP
2200
1200
17f8
8400
4be0
42a0
02a0
3ff8
24a0
24a0
4ff8
4820
8020
80c0
ENDCHAR
STARTCHAR 3325
ENCODING 13093
SWIDTH 960 0
DWIDTH 14 0
BBX 14 14 0 -2
BITMAP
0000
3ff8
2000
2100
2110
2510
2520
2940
2100
2280
4280
4440
9820
6018
ENDCHAR
STARTCHAR 3326
ENCODING 13094
SWIDTH 960 0
DWIDTH 14 0
BBX 14 14 0 -2
BITMAP
0000
3fe0
2220
3fe0
2220
3fe0
0200
0500
18c0
e8b8
0880
0880
1080
6080
ENDCHAR
STARTCHAR 3327
ENCODING 13095
SWIDTH 960 0
DWIDTH 14 0
BBX 14 14 0 -2
BITMAP
4100
4130
7dc0
4108
4108
7af8
c400
3fc0
2040
2040
3fc0
2040
2040
3fc0
ENDCHAR
STARTCHAR 3328
ENCODING 13096
SWIDTH 960 0
DWIDTH 14 0
BBX 14 14 0 -2
BITMAP
1040
1040
14a0
e4a0
2910
1ae8
2400
fc00
13f8
5880
54a0
5530
93c8
1008
ENDCHAR
STARTCHAR 3329
ENCODING 13097
SWIDTH 960 0
DWIDTH 14 0
BBX 14 14 0 -2
BITMAP
0880
0880
fff8
0880
0a80
0500
0880
38e0
c898
0880
1080
1080
2080
4080
ENDCHAR
STARTCHAR 332a
ENCODING 13098
SWIDTH 960 0
DWIDTH 14 0
BBX 14 14 0 -2
BITMAP
2000
3bf0
5090
fd30
5740
7df0
5640
7ff8
4640
bfc0
1240
1fc0
0220
7fd0
ENDCHAR
STARTCHAR 332b
ENCODING 13099
SWIDTH 960 0
DWIDTH 14 0
BBX 14 14 0 -2
BITMAP
0000
7cf8
4488
7cf8
4488
7cf8
4008
5fe8
4488
7ff8
4488
4888
5088
4018
ENDCHAR
STARTCHAR 332c
ENCODING 13100
SWIDTH 960 0
DWIDTH 14 0
BBX 14 14 0 -2
BITMAP
0240
7a48
4bf0
5240
6248
5378
4c80
4bf0
4a10
4bf0
7210
4210
43f0
4000
ENDCHAR
STARTCHAR 332d
ENCODING 13101
SWIDTH 960 0
DWIDTH 14 0
BBX 14 14 0 -2
BITMAP
0000
3fe0
2020
2020
3fe0
2020
2020
3fe0
2020
2020
3fe0
0880
3060
c010
ENDCHAR
STARTCHAR 332e
ENCODING 13102
SWIDTH 960 0
DWIDTH 14 0
BBX 14 14 0 -2
BITMAP
1000
55e0
5520
7d20
0120
fd20
0120
7d20
4520
7d20
4920
2928
3e28
c418
ENDCHAR
STARTCHAR 332f
ENCODING 13103
SWIDTH 960 0
DWIDTH 14 0
BBX 14 14 0 -2
BITMAP
0840
0840
7f40
1040
15f8
6448
1848
0a48
1248
2448
0c88
1288
2108
4230
ENDCHAR
STARTCHAR 3330
ENCODING 13104
SWIDTH 960 0
DWIDTH 14 0
BBX 14 14 0 -2
BITMAP
0080
1080
1e80
1280
1280
2280
32c0
4cb0
8488
0880
0880
1080
2080
4080
ENDCHAR
STARTCHAR 3331
ENCODING 13105
SWIDTH 960 0
DWIDTH 14 0
BBX 14 14 0 -2
BITMAP
0080
0080
fff8
9080
9490
9320
9140
9090
9120
9640
f0c0
0120
0610
1808
ENDCHAR
STARTCHAR 3332
ENCODING 13106
SWIDTH 960 0
DWIDTH 14 0
BBX 14 14 0 -2
BITMAP
0200
fff8
8208
bfe8
0200
3fe0
0200
fff8
0000
1fc0
1040
1040
1fc0
0000
ENDCHAR
STARTCHAR 3333
ENCODING 13107
SWIDTH 960 0
DWIDTH 14 0
BBX 14 14 0 -2
BITMAP
0200
2220
3fe0
0000
3ff8
2100
2fe0
2100
3ff0
2100
4fe0
4100
bff8
0000
ENDCHAR
STARTCHAR 3334
ENCODING 13108
SWIDTH 960 0
DWIDTH 14 0
BBX 14 14 0 -2
BITMAP
2000
2ff0
2aa0
2aa0
7ea0
7aa0
6bf8
ae20
2a60
2960
2ba0
2ca8
3928
2218
ENDCHAR
STARTCHAR 3335
ENCODING 13109
SWIDTH 960 0
DWIDTH 14 0
BBX 14 14 0 -2
BITMAP
2000
2ff8
2a20
faa0
2ea0
2aa0
7bf8
6e60
6c60
aa60
aba0
2da8
3928
2218
ENDCHAR
STARTCHAR 3336
ENCODING 13110
SWIDTH 960 0
DWIDTH 14 0
BBX 14 14 0 -2
BITMAP
2000
17f8
1440
8440
45f0
4440
07f8
0440
2440
25f0
4840
4840
97f8
8000
ENDCHAR
STARTCHAR 3337
ENCODING 13111
SWIDTH 960 0
DWIDTH 14 0
BBX 14 14 0 -2
BITMAP
0000
fbf0
2210
23f0
2210
7bf0
4800
cbf0
4820
4ff8
4a20
7920
0120
0060
ENDCHAR
STARTCHAR 3338
ENCODING 13112
SWIDTH 960 0
DWIDTH 14 0
BBX 14 14 0 -2
BITMAP
0880
fff8
0a80
3fe0
0200
fff8
0480
7fe0
0010
3fe0
2520
2520
fff8
0000
ENDCHAR
STARTCHAR 3339
ENCODING 13113
SWIDTH 960 0
DWIDTH 14 0
BBX 14 14 0 -2
BITMAP
2200
2278
4f80
9200
1200
2ff8
2210
6210
af90
2210
2210
2390
2c10
2030
ENDCHAR
STARTCHAR 333a
ENCODING 13114
SWIDTH 960 0
DWIDTH 14 0
BBX 14 14 0 -2
BITMAP
0080
7880
07f8
f880
00a0
7b20
0140
78d0
0090
7920
4a60
4890
7b08
0408
ENDCHAR
STARTCHAR 333b
ENCODING 13115
SWIDTH 960 0
DWIDTH 14 0
BBX 14 14 0 -2
BITMAP
1040
1150
2950
25f0
4400
bbf8
1000
fdf0
1110
55f0
3910
30a0
1ff8
e000
ENDCHAR
STARTCHAR 333c
ENCODING 13116
SWIDTH 960 0
DWIDTH 14 0
BBX 14 14 0 -2
BITMAP
0040
7c40
47f8
5c80
54a0
ff20
8540
fcd0
4490
7d20
4460
7c90
4508
4e08
ENDCHAR
STARTCHAR 333d
ENCODING 13117
SWIDTH 960 0
DWIDTH 14 0
BBX 14 14 0 -2
BITMAP
2000
17f0
1490
8490
47f0
4490
0490
17f0
1080
17f0
2080
2080
4ff8
4000
ENDCHAR
STARTCHAR 333e
ENCODING 13118
SWIDTH 960 0
DWIDTH 14 0
BBX 14 14 0 -2
BITMAP
10e0
fea8
1138
ffe0
54a0
7ce0
4f98
8200
fff8
0a80
3fe0
cf98
0880
0f80
ENDCHAR
STARTCHAR 333f
ENCODING 13119
SWIDTH 960 0
DWIDTH 14 0
BBX 14 14 0 -2
BITMAP
1040
1040
1040
7df0
5440
5440
57f8
7c40
1040
19f0
1440
1c40
e7f8
0000
ENDCHAR
STARTCHAR 3340
ENCODING 13120
SWIDTH 960 0
DWIDTH 14 0
BBX 14 14 0 -2
BITMAP
0000
2ff8
2000
23e0
fa20
2220
23e0
2220
2a20
3220
c3e0
0000
1ff8
0000
ENDCHAR
STARTCHAR 3341
ENCODING 13121
SWIDTH 960 0
DWIDTH 14 0
BBX 14 14 0 -2
BITMAP
1040
1040
1040
fff8
1040
3040
3bf8
3648
5648
5248
9248
1258
1040
1040
ENDCHAR
STARTCHAR 3342
ENCODING 13122
SWIDTH 960 0
DWIDTH 14 0
BBX 14 14 0 -2
BITMAP
1000
11f8
1100
7d00
55f8
5540
5540
7d78
5548
1948
1688
1e88
e508
0230
ENDCHAR
STARTCHAR 3343
ENCODING 13123
SWIDTH 960 0
DWIDTH 14 0
BBX 14 14 0 -2
BITMAP
0880
0880
1480
12f8
2308
5e48
0848
7ec8
08a8
2bd8
1c08
1808
0e08
7030
ENDCHAR
STARTCHAR 3344
ENCODING 13124
SWIDTH 960 0
DWIDTH 14 0
BBX 14 14 0 -2
BITMAP
0808
3f48
0948
7fc8
0948
3f48
0848
7fc8
2948
3f48
2948
3f08
0708
7818
ENDCHAR
STARTCHAR 3345
ENCODING 13125
SWIDTH 960 0
DWIDTH 14 0
BBX 14 14 0 -2
BITMAP
0420
0420
fff8
a420
a420
bff8
aa50
aad0
bbd8
bb58
ead8
1290
1290
2730
ENDCHAR
STARTCHAR 3346
ENCODING 13126
SWIDTH 960 0
DWIDTH 14 0
BBX 14 14 0 -2
BITMAP
0400
0400
0fe0
1840
2480
4300
0680
1860
ffd8
1040
1040
1040
1fc0
0000
ENDCHAR
STARTCHAR 3347
ENCODING 13127
SWIDTH 960 0
DWIDTH 14 0
BBX 14 14 0 -2
BITMAP
0100
3ff8
2200
3ff8
2048
2f50
2960
2f50
2048
2f48
4348
5e70
8240
0640
ENDCHAR
STARTCHAR 3348
ENCODING 13128
SWIDTH 960 0
DWIDTH 14 0
BBX 14 14 0 -2
BITMAP
2040
2040
23f8
fa00
2240
2240
2240
3a40
e240
22a0
2490
24f8
2f08
7008
ENDCHAR
STARTCHAR 3349
ENCODING 13129
SWIDTH 960 0
DWIDTH 14 0
BBX 14 14 0 -2
BITMAP
2510
22a0
2ff8
f808
2be8
2220
23e0
3a20
e3e0
2220
23e0
2148
2248
6c38
ENDCHAR
STARTCHAR 334a
ENCODING 13130
SWIDTH 960 0
DWIDTH 14 0
BBX 14 14 0 -2
BITMAP
1080
1080
10f0
fd10
12a0
3040
38a0
3510
57f8
5110
9110
1110
11f0
1000
ENDCHAR
STARTCHAR 334b
ENCODING 13131
SWIDTH 960 0
DWIDTH 14 0
BBX 14 14 0 -2
BITMAP
1040
1040
13f8
fc40
1290
3910
34a0
3440
5090
5320
9060
1090
1308
1c08
ENDCHAR
STARTCHAR 334c
ENCODING 13132
SWIDTH 960 0
DWIDTH 14 0
BBX 14 14 0 -2
BITMAP
1000
10e0
fea0
10a8
7ca8
0118
7e00
45f0
b910
28a0
28a0
2c40
49a0
8618
ENDCHAR
STARTCHAR 334d
ENCODING 13133
SWIDTH 960 0
DWIDTH 14 0
BBX 14 14 0 -2
BITMAP
1220
9ff8
6260
23f8
6640
9bf0
1240
33f8
5000
97f0
1120
10c0
61a0
2e18
ENDCHAR
STARTCHAR 334e
ENCODING 13134
SWIDTH 960 0
DWIDTH 14 0
BBX 14 14 0 -2
BITMAP
0080
fc80
27f8
2488
2520
7940
4bf8
ce40
4bf0
4a40
4bf0
7a40
03f8
0000
ENDCHAR
STARTCHAR 334f
ENCODING 13135
SWIDTH 960 0
DWIDTH 14 0
BBX 14 14 0 -2
BITMAP
0920
17f8
e160
23f8
2640
fbf0
2240
33f8
6800
6ff0
a120
20c0
21e0
2e18
ENDCHAR
STARTCHAR 3350
ENCODING 13136
SWIDTH 960 0
DWIDTH 14 0
BBX 14 14 0 -2
BITMAP
2420
1240
fff8
8008
9fc8
1040
1fc0
1040
1fc0
1040
1fc0
0508
1908
e0f8
ENDCHAR
STARTCHAR 3351
ENCODING 13137
SWIDTH 960 0
DWIDTH 14 0
BBX 14 14 0 -2
BITMAP
0200
07e0
1880
6100
1ff0
1110
1ff0
1110
1110
1ff0
1010
1010
2010
4030
ENDCHAR
STARTCHAR 3352
ENCODING 13138
SWIDTH 960 0
DWIDTH 14 0
BBX 14 14 0 -2
BITMAP
1040
1040
7df0
1040
1040
fff8
28a0
6da0
6bb0
aaa8
2ca8
4920
4920
9a60
ENDCHAR
STARTCHAR 3353
ENCODING 13139
SWIDTH 960 0
DWIDTH 14 0
BBX 14 14 0 -2
BITMAP
1040
1040
fe40
13f8
7ca0
5510
7f28
5520
7ca0
10c0
fe40
10a0
1110
1208
ENDCHAR
STARTCHAR 3354
ENCODING 13140
SWIDTH 960 0
DWIDTH 14 0
BBX 14 14 0 -2
BITMAP
0800
fff0
0090
3ea0
22a0
3ec0
00a0
7e90
0488
0e88
f8c8
08b0
0880
1880
ENDCHAR
STARTCHAR 3355
ENCODING 13141
SWIDTH 960 0
DWIDTH 14 0
BBX 14 14 0 -2
BITMAP
0000
7df0
4510
7df0
4510
7df0
4790
5c90
4310
4590
7ff0
4890
4f90
48b0
ENDCHAR
STARTCHAR 3356
ENCODING 13142
SWIDTH 960 0
DWIDTH 14 0
BBX 14 14 0 -2
BITMAP
0000
7ff0
4800
53e0
5220
63e0
5000
4ff0
4d50
4e70
75f0
4490
4490
44b0
ENDCHAR
STARTCHAR 3357
ENCODING 13143
SWIDTH 960 0
DWIDTH 14 0
BBX 14 14 0 -2
BITMAP
0880
0880
fff8
0880
0f80
0200
3fe0
2220
3fe0
0200
fff8
0200
0200
0200
ENDCHAR
STARTCHAR 3358
ENCODING 13144
SWIDTH 960 0
DWIDTH 14 0
BBX 14 14 0 -2
BITMAP
2420
1220
1240
fff8
8008
9fc8
0080
0100
0200
fff8
0200
0200
0200
0600
ENDCHAR
STARTCHAR 3359
ENCODING 13145
SWIDTH 960 0
DWIDTH 14 0
BBX 14 14 0 -2
BITMAP
0040
0180
1e00
1000
1ff0
1080
1080
fff8
0200
2220
2220
2220
3fe0
2000
ENDCHAR
STARTCHAR 335a
ENCODING 13146
SWIDTH 960 0
DWIDTH 14 0
BBX 14 14 0 -2
BITMAP
0200
4410
2f90
28a0
0fc0
38b0
cf88
0200
fff8
0700
0a80
3260
c218
0200
ENDCHAR
STARTCHAR 335b
ENCODING 13147
SWIDTH 960 0
DWIDTH 14 0
BBX 14 14 0 -2
BITMAP
1000
13f8
fe40
9280
9df0
2510
69f0
1910
25f0
7f10
a5f0
24a0
3d10
0208
ENDCHAR
STARTCHAR 335c
ENCODING 13148
SWIDTH 960 0
DWIDTH 14 0
BBX 14 14 0 -2
BITMAP
0000
eff8
aa40
aa80
eff0
0110
7df0
0110
fff0
2110
3df0
44a0
0510
1e08
ENDCHAR
STARTCHAR 335d
ENCODING 13149
SWIDTH 960 0
DWIDTH 14 0
BBX 14 14 0 -2
BITMAP
2220
2220
2fa0
f220
2220
2ff0
3228
2228
6fe0
a220
2220
23a0
3c20
6020
ENDCHAR
STARTCHAR 335e
ENCODING 13150
SWIDTH 960 0
DWIDTH 14 0
BBX 14 14 0 -2
BITMAP
2080
2080
3ff8
3140
4a20
8a20
0200
7ff0
0040
1040
0880
0900
fff8
0000
ENDCHAR
STARTCHAR 335f
ENCODING 13151
SWIDTH 960 0
DWIDTH 14 0
BBX 14 14 0 -2
BITMAP
2000
27f0
2550
ffd0
24a0
27a0
7550
6f88
6880
a7f0
a080
2080
2ff8
2000
ENDCHAR
STARTCHAR 3360
ENCODING 13152
SWIDTH 960 0
DWIDTH 14 0
BBX 14 14 0 -2
BITMAP
2000
2ff8
2000
fbe0
22a0
33e0
6aa0
6ff0
6000
a3e0
a2a0
23e0
22a0
2ff8
ENDCHAR
STARTCHAR 3361
ENCODING 13153
SWIDTH 960 0
DWIDTH 14 0
BBX 14 14 0 -2
BITMAP
1000
13f0
1210
fff0
1210
33e0
3a80
37f0
5680
53f8
9280
1488
1488
1878
ENDCHAR
STARTCHAR 3362
ENCODING 13154
SWIDTH 960 0
DWIDTH 14 0
BBX 14 14 0 -2
BITMAP
1060
13a0
3d20
4928
fd68
57e8
7d70
55a0
7fe0
0b50
6550
5590
5188
8108
ENDCHAR
STARTCHAR 3363
ENCODING 13155
SWIDTH 960 0
DWIDTH 14 0
BBX 14 14 0 -2
BITMAP
2100
1670
1410
8770
4410
47f0
0200
27f8
2c48
5528
4aa8
8a88
9008
8030
ENDCHAR
STARTCHAR 3364
ENCODING 13156
SWIDTH 960 0
DWIDTH 14 0
BBX 14 14 0 -2
BITMAP
0808
7f48
4948
7f48
0848
3e48
0848
7f48
0048
3e48
2248
2208
2208
3e18
ENDCHAR
STARTCHAR 3365
ENCODING 13157
SWIDTH 960 0
DWIDTH 14 0
BBX 14 14 0 -2
BITMAP
0000
03f0
7a10
4bf0
4a10
4bf0
4880
49f8
4e68
4b88
7a08
0228
01e8
0030
ENDCHAR
STARTCHAR 3366
ENCODING 13158
SWIDTH 960 0
DWIDTH 14 0
BBX 14 14 0 -2
BITMAP
2080
2080
2140
3140
6a20
6ff0
6808
a000
23e0
2220
2220
2220
23e0
2000
ENDCHAR
STARTCHAR 3367
ENCODING 13159
SWIDTH 960 0
DWIDTH 14 0
BBX 14 14 0 -2
BITMAP
2010
2060
2780
f880
2080
2ff8
2080
3880
e7f0
2410
2410
2410
27f0
6000
ENDCHAR
STARTCHAR 3368
ENCODING 13160
SWIDTH 960 0
DWIDTH 14 0
BBX 14 14 0 -2
BITMAP
2010
1060
1780
8080
4080
4ff8
0080
2080
27f0
2410
4410
4410
87f0
8000
ENDCHAR
STARTCHAR 3369
ENCODING 13161
SWIDTH 960 0
DWIDTH 14 0
BBX 14 14 0 -2
BITMAP
1000
0bf0
0a10
43f0
2210
23f0
0100
13f8
1648
1b88
2208
2228
41e8
4030
ENDCHAR
STARTCHAR 336a
ENCODING 13162
SWIDTH 960 0
DWIDTH 14 0
BBX 14 14 0 -2
BITMAP
2000
17e0
1420
85e0
4520
4ff8
0808
2ff0
3420
27e0
4420
47e0
8420
8460
ENDCHAR
STARTCHAR 336b
ENCODING 13163
SWIDTH 960 0
DWIDTH 14 0
BBX 14 14 0 -2
BITMAP
0880
fff8
0880
1fc0
1040
1fc0
1040
1fc0
0ff0
3190
de10
1090
0f90
00e0
ENDCHAR
STARTCHAR 336c
ENCODING 13164
SWIDTH 960 0
DWIDTH 14 0
BBX 14 14 0 -2
BITMAP
1000
11f0
1110
7df0
0910
0bf0
1480
19f8
3728
55c8
1108
1128
10e8
1030
ENDCHAR
STARTCHAR 336d
ENCODING 13165
SWIDTH 960 0
DWIDTH 14 0
BBX 14 14 0 -2
BITMAP
1040
1040
fff8
1248
7ff0
5440
7df0
5440
7ff8
1000
fff0
1110
1110
11f0
ENDCHAR
STARTCHAR 336e
ENCODING 13166
SWIDTH 960 0
DWIDTH 14 0
BBX 14 14 0 -2
BITMAP
0000
1fc0
1040
1040
1040
1fc0
1040
1040
1fc0
1040
1040
1040
fff8
0000
ENDCHAR
STARTCHAR 336f
ENCODING 13167
SWIDTH 960 0
DWIDTH 14 0
BBX 14 14 0 -2
BITMAP
1000
13f8
3e88
4be8
fe50
57d0
7ea8
57c8
7c40
09f0
7440
5c40
53f8
8000
ENDCHAR
STARTCHAR 3370
ENCODING 13168
SWIDTH 960 0
DWIDTH 14 0
BBX 14 14 0 -2
BITMAP
0080
0080
f080
9080
9080
9ff8
9080
9080
9080
9080
f080
0080
0080
0080
ENDCHAR
STARTCHAR 3371
ENCODING 13169
SWIDTH 960 0
DWIDTH 14 0
BBX 14 14 0 -2
BITMAP
1120
1120
17f8
fd20
1080
38c8
3548
3750
5360
5540
9140
1148
1148
1138
ENDCHAR
STARTCHAR 3372
ENCODING 13170
SWIDTH 960 0
DWIDTH 14 0
BBX 14 14 0 -2
BITMAP
2220
2220
2ff8
fa20
27f0
32a0
6ff8
6aa0
67f0
a080
aff8
2080
2080
2080
ENDCHAR
STARTCHAR 3373
ENCODING 13171
SWIDTH 960 0
DWIDTH 14 0
BBX 14 14 0 -2
BITMAP
2880
2880
fff0
2910
3bd0
1050
7c50
55d0
7d60
1100
ff00
1108
1108
10f8
ENDCHAR
STARTCHAR 3374
ENCODING 13172
SWIDTH 960 0
DWIDTH 14 0
BBX 14 14 0 -2
BITMAP
1040
1140
1140
fff0
1240
3440
3ff8
34c0
54e0
5160
9250
1448
1040
1040
ENDCHAR
STARTCHAR 3375
ENCODING 13173
SWIDTH 960 0
DWIDTH 14 0
BBX 14 14 0 -2
BITMAP
0100
1200
6ff0
4890
4f90
4890
6fb0
4010
0900
0900
0900
1108
2108
c0f8
ENDCHAR
STARTCHAR 3376
ENCODING 13174
SWIDTH 960 0
DWIDTH 14 0
BBX 14 14 0 -2
BITMAP
0200
7ff0
5a90
ef78
7ff0
1240
1fc0
1240
3fe0
2220
3fe0
2228
3fe8
01f8
ENDCHAR
STARTCHAR 3377
ENCODING 13175
SWIDTH 960 0
DWIDTH 14 0
BBX 14 14 0 -2
BITMAP
0880
0880
fff8
08a0
2090
1ff8
9080
47f0
5490
17f0
2490
27f0
4490
44b0
ENDCHAR
STARTCHAR 3378
ENCODING 13176
SWIDTH 960 0
DWIDTH 14 0
BBX 14 14 0 -2
BITMAP
0480
1860
6490
0300
0580
1860
ffd8
0200
3fe0
1240
0a40
0a80
fff8
0000
ENDCHAR
STARTCHAR 3379
ENCODING 13177
SWIDTH 960 0
DWIDTH 14 0
BBX 14 14 0 -2
BITMAP
2220
2140
37f8
4940
4ff0
f150
27f8
f950
27f0
a950
7360
6550
3948
c140
ENDCHAR
STARTCHAR 337a
ENCODING 13178
SWIDTH 960 0
DWIDTH 14 0
BBX 14 14 0 -2
BITMAP
0080
0280
f2f0
9280
9ff8
96b0
95b0
95d0
97f0
95d0
f6b0
0490
07f0
0000
ENDCHAR
STARTCHAR 337b
ENCODING 13179
SWIDTH 960 0
DWIDTH 14 0
BBX 14 14 0 -2
BITMAP
0040
f880
abe0
aa20
fbe0
aa20
abe0
abf8
fa00
23f8
22a8
2558
2508
2830
ENDCHAR
STARTCHAR 337c
ENCODING 13180
SWIDTH 960 0
DWIDTH 14 0
BBX 14 14 0 -2
BITMAP
1000
17f8
1040
fc80
13f0
3210
3a10
3610
57f0
5210
9210
1210
13f0
1000
ENDCHAR
STARTCHAR 337d
ENCODING 13181
SWIDTH 960 0
DWIDTH 14 0
BBX 14 14 0 -2
BITMAP
0880
0880
fff8
0880
3fe0
0980
0600
fff8
0230
06c0
0a00
3200
c200
0600
ENDCHAR
STARTCHAR 337e
ENCODING 13182
SWIDTH 960 0
DWIDTH 14 0
BBX 14 14 0 -2
BITMAP
0880
fff8
0a80
fff8
8008
bfe8
0000
1fc0
1040
1fc0
1040
1fc0
0000
fff8
ENDCHAR
STARTCHAR 3421
ENCODING 13345
SWIDTH 960 0
DWIDTH 14 0
BBX 14 14 0 -2
BITMAP
0100
7138
1948
1548
75b8
4120
4fe0
7138
53a8
1348
1548
1908
1108
6130
ENDCHAR
STARTCHAR 3422
ENCODING 13346
SWIDTH 960 0
DWIDTH 14 0
BBX 14 14 0 -2
BITMAP
0410
0490
0490
4490
2490
1890
0890
0c90
1490
1290
2290
2010
4010
8030
ENDCHAR
STARTCHAR 3423
ENCODING 13347
SWIDTH 960 0
DWIDTH 14 0
BBX 14 14 0 -2
BITMAP
0880
0880
fff8
0880
0880
0410
4490
2490
1890
0890
1890
2490
4410
8030
ENDCHAR
STARTCHAR 3424
ENCODING 13348
SWIDTH 960 0
DWIDTH 14 0
BBX 14 14 0 -2
BITMAP
0000
fff8
0800
0800
0f80
0880
0880
0c80
1280
1280
1080
1388
1c88
e078
ENDCHAR
STARTCHAR 3425
ENCODING 13349
SWIDTH 960 0
DWIDTH 14 0
BBX 14 14 0 -2
BITMAP
1100
1100
fff8
1100
7e00
45f0
7c20
4440
7c80
1080
ff00
1108
1108
10f8
ENDCHAR
STARTCHAR 3426
ENCODING 13350
SWIDTH 960 0
DWIDTH 14 0
BBX 14 14 0 -2
BITMAP
1000
17f0
1410
2410
2410
67f0
a000
2520
2520
2520
2520
2928
2928
3018
ENDCHAR
STARTCHAR 3427
ENCODING 13351
SWIDTH 960 0
DWIDTH 14 0
BBX 14 14 0 -2
BITMAP
0000
fff8
8008
fc28
0020
03f8
fe20
2920
2920
2820
2820
4868
4808
87f8
ENDCHAR
STARTCHAR 3428
ENCODING 13352
SWIDTH 960 0
DWIDTH 14 0
BBX 14 14 0 -2
BITMAP
0200
fff8
8888
bfe8
0880
3fe0
0880
fff8
0880
3660
c118
0c00
0300
0080
ENDCHAR
STARTCHAR 3429
ENCODING 13353
SWIDTH 960 0
DWIDTH 14 0
BBX 14 14 0 -2
BITMAP
0008
7f48
0848
0848
0848
0848
7f48
0848
0848
0848
0848
0808
0808
0818
ENDCHAR
STARTCHAR 342a
ENCODING 13354
SWIDTH 960 0
DWIDTH 14 0
BBX 14 14 0 -2
BITMAP
1240
1240
7f40
12f8
1e48
1248
1e48
1248
7fc8
2c48
2d48
3388
3f88
0130
ENDCHAR
STARTCHAR 342b
ENCODING 13355
SWIDTH 960 0
DWIDTH 14 0
BBX 14 14 0 -2
BITMAP
1040
1040
3f40
28f8
5f48
1448
3f48
6448
3f48
2448
3f48
2488
3f88
0130
ENDCHAR
STARTCHAR 342c
ENCODING 13356
SWIDTH 960 0
DWIDTH 14 0
BBX 14 14 0 -2
BITMAP
2220
1220
1240
7ff0
0500
fff8
0880
3fe0
c098
1f80
1020
1020
0fe0
0000
ENDCHAR
STARTCHAR 342d
ENCODING 13357
SWIDTH 960 0
DWIDTH 14 0
BBX 14 14 0 -2
BITMAP
0100
01e0
f240
9480
9ff0
9550
9550
9570
9650
9490
fff8
0140
0630
1808
ENDCHAR
STARTCHAR 342e
ENCODING 13358
SWIDTH 960 0
DWIDTH 14 0
BBX 14 14 0 -2
BITMAP
0220
2ff8
2220
23e0
fa20
23e0
2220
2ff8
2540
3550
c630
0400
07f8
0000
ENDCHAR
STARTCHAR 342f
ENCODING 13359
SWIDTH 960 0
DWIDTH 14 0
BBX 14 14 0 -2
BITMAP
0200
0200
7ff0
0880
1d00
0780
3860
1040
fff8
2490
69a0
1860
34d0
c308
ENDCHAR
STARTCHAR 3430
ENCODING 13360
SWIDTH 960 0
DWIDTH 14 0
BBX 14 14 0 -2
BITMAP
0200
0200
fff8
8008
9fc8
0000
0000
fff8
0900
0900
0900
1108
2108
c0f8
ENDCHAR
STARTCHAR 3431
ENCODING 13361
SWIDTH 960 0
DWIDTH 14 0
BBX 14 14 0 -2
BITMAP
0200
0200
fff8
8008
9fc8
1040
1040
1fc0
1000
1000
1fe0
1020
1020
1fe0
ENDCHAR
STARTCHAR 3432
ENCODING 13362
SWIDTH 960 0
DWIDTH 14 0
BBX 14 14 0 -2
BITMAP
0200
fff8
8888
bfe8
0880
1fc0
1040
1f40
17c0
1040
1fc0
0508
1908
e0f8
ENDCHAR
STARTCHAR 3433
ENCODING 13363
SWIDTH 960 0
DWIDTH 14 0
BBX 14 14 0 -2
BITMAP
0000
7ff0
0200
0200
0200
0200
fff8
0200
0200
0200
0200
0200
0200
0200
ENDCHAR
STARTCHAR 3434
ENCODING 13364
SWIDTH 960 0
DWIDTH 14 0
BBX 14 14 0 -2
BITMAP
1040
1040
fea0
1110
7e08
45f0
7c40
4440
7ff8
1040
fe40
1040
1040
1040
ENDCHAR
STARTCHAR 3435
ENCODING 13365
SWIDTH 960 0
DWIDTH 14 0
BBX 14 14 0 -2
BITMAP
0200
1fc0
1240
1fc0
0200
3fe0
2220
3fe0
0200
2920
2910
4848
8848
07c0
ENDCHAR
STARTCHAR 3436
ENCODING 13366
SWIDTH 960 0
DWIDTH 14 0
BBX 14 14 0 -2
BITMAP
0120
0110
3ff8
2110
3e90
20a0
5e40
52a8
9f18
0208
4910
4948
8848
07c0
ENDCHAR
STARTCHAR 3437
ENCODING 13367
SWIDTH 960 0
DWIDTH 14 0
BBX 14 14 0 -2
BITMAP
2000
23f0
2290
2ff8
74a0
6ff0
6410
a7f0
2410
27f0
2410
27f0
2330
2c08
ENDCHAR
STARTCHAR 3438
ENCODING 13368
SWIDTH 960 0
DWIDTH 14 0
BBX 14 14 0 -2
BITMAP
2050
27f8
2440
37d0
6c50
6fa0
66a8
abd8
3108
22a0
2a90
2a28
3228
21e0
ENDCHAR
STARTCHAR 3439
ENCODING 13369
SWIDTH 960 0
DWIDTH 14 0
BBX 14 14 0 -2
BITMAP
2100
21e0
2240
fff0
2550
2550
2650
34b0
e490
2ff8
2080
2140
2220
6c18
ENDCHAR
STARTCHAR 343a
ENCODING 13370
SWIDTH 960 0
DWIDTH 14 0
BBX 14 14 0 -2
BITMAP
0080
7e80
0880
0880
fff8
2510
3f10
24a0
3ca0
2640
3c40
c4a0
0510
0608
ENDCHAR
STARTCHAR 343b
ENCODING 13371
SWIDTH 960 0
DWIDTH 14 0
BBX 14 14 0 -2
BITMAP
1110
1110
1110
fff8
1110
3110
3910
35f0
5510
5110
9110
1110
11f0
1000
ENDCHAR
STARTCHAR 343c
ENCODING 13372
SWIDTH 960 0
DWIDTH 14 0
BBX 14 14 0 -2
BITMAP
1000
13f8
1000
fdf0
1110
3110
39f0
3510
5510
51f0
9000
1000
17f8
1000
ENDCHAR
STARTCHAR 343d
ENCODING 13373
SWIDTH 960 0
DWIDTH 14 0
BBX 14 14 0 -2
BITMAP
1080
1080
17f8
fc08
17e8
3220
3a20
37e0
5600
53f0
9210
1210
13f0
1000
ENDCHAR
STARTCHAR 343e
ENCODING 13374
SWIDTH 960 0
DWIDTH 14 0
BBX 14 14 0 -2
BITMAP
1080
1080
fe80
1080
7df8
0150
7e60
0040
fe40
18c0
54a0
5520
9210
3408
ENDCHAR
STARTCHAR 343f
ENCODING 13375
SWIDTH 960 0
DWIDTH 14 0
BBX 14 14 0 -2
BITMAP
2080
2080
3e80
5080
fff8
2950
3e60
6840
be40
2840
3ea0
28a0
3f10
0208
ENDCHAR
STARTCHAR 3440
ENCODING 13376
SWIDTH 960 0
DWIDTH 14 0
BBX 14 14 0 -2
BITMAP
2000
17f0
1080
8080
4080
4080
0ff8
1080
1080
1080
2080
2080
4080
4080
ENDCHAR
STARTCHAR 3441
ENCODING 13377
SWIDTH 960 0
DWIDTH 14 0
BBX 14 14 0 -2
BITMAP
2240
1240
1ff8
8240
47f0
4490
07f0
2080
27f0
2080
4ff8
4140
8220
8c18
ENDCHAR
STARTCHAR 3442
ENCODING 13378
SWIDTH 960 0
DWIDTH 14 0
BBX 14 14 0 -2
BITMAP
2000
1f78
1948
4f78
2948
2f78
0808
0be8
1a28
1be8
2a28
2be8
4808
4818
ENDCHAR
STARTCHAR 3443
ENCODING 13379
SWIDTH 960 0
DWIDTH 14 0
BBX 14 14 0 -2
BITMAP
2200
1200
17f0
8500
4ff8
5240
07f8
2440
2ff0
5440
47f0
8440
87f8
8000
ENDCHAR
STARTCHAR 3444
ENCODING 13380
SWIDTH 960 0
DWIDTH 14 0
BBX 14 14 0 -2
BITMAP
0000
07f0
fd50
27f0
2000
2ff8
fbe0
2220
23f0
2990
3360
cd20
0118
0100
ENDCHAR
STARTCHAR 3445
ENCODING 13381
SWIDTH 960 0
DWIDTH 14 0
BBX 14 14 0 -2
BITMAP
1040
1040
1040
1040
fff8
1040
1040
1040
1fc0
1040
1040
1040
1fc0
0000
ENDCHAR
STARTCHAR 3446
ENCODING 13382
SWIDTH 960 0
DWIDTH 14 0
BBX 14 14 0 -2
BITMAP
0080
7e80
4880
7df8
4500
7e00
48f0
7e00
0000
3fe0
2520
2520
fff8
0000
ENDCHAR
STARTCHAR 3447
ENCODING 13383
SWIDTH 960 0
DWIDTH 14 0
BBX 14 14 0 -2
BITMAP
0060
3f80
0400
7ff0
0400
fff8
0800
0fe0
1820
1fe0
2820
4fe0
8820
0fe0
ENDCHAR
STARTCHAR 3448
ENCODING 13384
SWIDTH 960 0
DWIDTH 14 0
BBX 14 14 0 -2
BITMAP
2080
2080
3ff8
5140
4a20
8420
7ff0
0200
0200
fff8
0200
0200
0200
0200
ENDCHAR
STARTCHAR 3449
ENCODING 13385
SWIDTH 960 0
DWIDTH 14 0
BBX 14 14 0 -2
BITMAP
2080
3ff8
5340
8a20
fff8
8008
9fc8
1040
1fc0
1000
1fe0
1020
1020
1fe0
ENDCHAR
STARTCHAR 344a
ENCODING 13386
SWIDTH 960 0
DWIDTH 14 0
BBX 14 14 0 -2
BITMAP
2080
3ff8
5140
8a20
7df0
4510
7df0
4510
7ff0
4890
4f90
4890
4f90
4030
ENDCHAR
STARTCHAR 344b
ENCODING 13387
SWIDTH 960 0
DWIDTH 14 0
BBX 14 14 0 -2
BITMAP
1038
13c8
1550
e4a0
2ff8
1880
27f8
fc80
18f0
5590
5560
5260
9590
1608
ENDCHAR
STARTCHAR 344c
ENCODING 13388
SWIDTH 960 0
DWIDTH 14 0
BBX 14 14 0 -2
BITMAP
1000
1000
1000
3ff0
2200
4200
fff8
0200
2220
2220
2220
2220
3fe0
0000
ENDCHAR
STARTCHAR 344d
ENCODING 13389
SWIDTH 960 0
DWIDTH 14 0
BBX 14 14 0 -2
BITMAP
1080
1080
ff40
1120
7e10
47f8
7c90
46d0
7db0
11b0
fed0
12d0
1090
11b0
ENDCHAR
STARTCHAR 344e
ENCODING 13390
SWIDTH 960 0
DWIDTH 14 0
BBX 14 14 0 -2
BITMAP
0000
7ff0
4880
4880
4880
7880
4ff8
4880
7880
4880
4880
4880
4880
9880
ENDCHAR
STARTCHAR 344f
ENCODING 13391
SWIDTH 960 0
DWIDTH 14 0
BBX 14 14 0 -2
BITMAP
1020
23e0
7aa0
4bf8
6a60
5bc0
5ab8
ffc0
4800
5bf0
5ad0
5ad0
4ad0
9ff8
ENDCHAR
STARTCHAR 3450
ENCODING 13392
SWIDTH 960 0
DWIDTH 14 0
BBX 14 14 0 -2
BITMAP
0880
0880
fff8
0880
0200
fff8
8008
9fc8
0000
7ff8
0500
0908
3108
c0f8
ENDCHAR
STARTCHAR 3451
ENCODING 13393
SWIDTH 960 0
DWIDTH 14 0
BBX 14 14 0 -2
BITMAP
2000
21f0
7d10
9110
fff0
2910
7ff0
d110
7df0
50a0
7ca0
5128
7e28
0418
ENDCHAR
STARTCHAR 3452
ENCODING 13394
SWIDTH 960 0
DWIDTH 14 0
BBX 14 14 0 -2
BITMAP
0080
7880
07f8
f880
03f0
7a90
03f0
7a90
03f0
79c0
4aa0
4c90
7888
0080
ENDCHAR
STARTCHAR 3453
ENCODING 13395
SWIDTH 960 0
DWIDTH 14 0
BBX 14 14 0 -2
BITMAP
0000
1fc0
1240
fff8
2480
3fc0
1040
1fc0
1040
1fc0
1040
1fc0
0cc0
7030
ENDCHAR
STARTCHAR 3454
ENCODING 13396
SWIDTH 960 0
DWIDTH 14 0
BBX 14 14 0 -2
BITMAP
0000
4ff0
2a50
2ff0
0000
1ff8
e7e0
2420
27f0
2190
2f60
3110
4d00
83f8
ENDCHAR
STARTCHAR 3455
ENCODING 13397
SWIDTH 960 0
DWIDTH 14 0
BBX 14 14 0 -2
BITMAP
2020
27a0
3520
4fb8
4cc0
f780
2538
ff80
2400
abf0
72d0
62d0
3ff8
c000
ENDCHAR
STARTCHAR 3456
ENCODING 13398
SWIDTH 960 0
DWIDTH 14 0
BBX 14 14 0 -2
BITMAP
0000
7cf8
4488
7cf8
4488
7cf8
4008
4fc8
4848
4fc8
4848
4848
4fc8
4018
ENDCHAR
STARTCHAR 3457
ENCODING 13399
SWIDTH 960 0
DWIDTH 14 0
BBX 14 14 0 -2
BITMAP
0000
7cf8
4488
7cf8
4488
7cf8
4208
4208
5fe8
4708
4a88
5268
4208
4018
ENDCHAR
STARTCHAR 3458
ENCODING 13400
SWIDTH 960 0
DWIDTH 14 0
BBX 14 14 0 -2
BITMAP
0000
7cf8
4488
7cf8
4488
7cf8
4888
4508
4fc8
4208
5fe8
4488
4848
5018
ENDCHAR
STARTCHAR 3459
ENCODING 13401
SWIDTH 960 0
DWIDTH 14 0
BBX 14 14 0 -2
BITMAP
0080
7880
49f0
5120
6220
5440
4af0
4a90
4a90
4af0
7290
4290
42f0
4200
ENDCHAR
STARTCHAR 345a
ENCODING 13402
SWIDTH 960 0
DWIDTH 14 0
BBX 14 14 0 -2
BITMAP
1040
11f0
fc50
13f8
7c00
45f0
7d10
45f0
7c20
11f0
fd20
13f8
1020
1020
ENDCHAR
STARTCHAR 345b
ENCODING 13403
SWIDTH 960 0
DWIDTH 14 0
BBX 14 14 0 -2
BITMAP
1040
1040
2bf8
3608
51e8
fd20
4520
7de0
4500
7df0
4910
4d10
7310
c1f0
ENDCHAR
STARTCHAR 345c
ENCODING 13404
SWIDTH 960 0
DWIDTH 14 0
BBX 14 14 0 -2
BITMAP
1040
1040
2bf8
2608
45e8
fd20
1120
fde0
1100
7df0
4510
4510
7df0
0100
ENDCHAR
STARTCHAR 345d
ENCODING 13405
SWIDTH 960 0
DWIDTH 14 0
BBX 14 14 0 -2
BITMAP
0400
0400
0400
0400
ff80
0480
0480
3480
0c80
0a80
1188
2088
4088
8078
ENDCHAR
STARTCHAR 345e
ENCODING 13406
SWIDTH 960 0
DWIDTH 14 0
BBX 14 14 0 -2
BITMAP
0200
0200
0500
0880
3fe0
c018
3fc0
0080
0100
3fe0
2020
2020
3fe0
0000
ENDCHAR
STARTCHAR 345f
ENCODING 13407
SWIDTH 960 0
DWIDTH 14 0
BBX 14 14 0 -2
BITMAP
0200
2220
2220
3fe0
0000
3ff8
2000
2fe0
2100
2100
5ff0
4100
8100
0100
ENDCHAR
STARTCHAR 3460
ENCODING 13408
SWIDTH 960 0
DWIDTH 14 0
BBX 14 14 0 -2
BITMAP
0200
2210
3ff0
1220
7ff8
5e40
4440
7f78
5290
5f50
5220
5f60
7290
8308
ENDCHAR
STARTCHAR 3461
ENCODING 13409
SWIDTH 960 0
DWIDTH 14 0
BBX 14 14 0 -2
BITMAP
0000
03f0
f800
2000
2000
27f8
f940
2140
2140
2240
3a40
c448
0848
1038
ENDCHAR
STARTCHAR 3462
ENCODING 13410
SWIDTH 960 0
DWIDTH 14 0
BBX 14 14 0 -2
BITMAP
0100
1ff8
1000
93e0
5220
53e0
1f78
3948
5f78
9080
2490
2490
4490
87f0
ENDCHAR
STARTCHAR 3463
ENCODING 13411
SWIDTH 960 0
DWIDTH 14 0
BBX 14 14 0 -2
BITMAP
0000
f3e0
9220
9220
f3e0
9220
9220
f3f0
9290
92a0
f240
02a0
0310
0c08
ENDCHAR
STARTCHAR 3464
ENCODING 13412
SWIDTH 960 0
DWIDTH 14 0
BBX 14 14 0 -2
BITMAP
0200
2220
2220
3fe0
0000
fff8
0800
0800
1fe0
1820
2820
4820
8fe0
0000
ENDCHAR
STARTCHAR 3465
ENCODING 13413
SWIDTH 960 0
DWIDTH 14 0
BBX 14 14 0 -2
BITMAP
0000
fff0
9900
5500
3700
d9f8
3360
1060
7e60
4260
7ea0
42a8
7f28
4218
ENDCHAR
STARTCHAR 3466
ENCODING 13414
SWIDTH 960 0
DWIDTH 14 0
BBX 14 14 0 -2
BITMAP
0000
3ff8
2510
29f8
3b20
2df0
2920
2ff8
2420
27e0
4420
47e0
8660
3818
ENDCHAR
STARTCHAR 3467
ENCODING 13415
SWIDTH 960 0
DWIDTH 14 0
BBX 14 14 0 -2
BITMAP
0000
3ff8
2490
24a0
29f8
2920
3b20
2df0
2920
29f0
4920
4920
89f8
0900
ENDCHAR
STARTCHAR 3468
ENCODING 13416
SWIDTH 960 0
DWIDTH 14 0
BBX 14 14 0 -2
BITMAP
0000
03f8
7c40
0080
01f0
ff10
29f0
2910
29f0
2b10
47f0
40a0
8310
0c08
ENDCHAR
STARTCHAR 3469
ENCODING 13417
SWIDTH 960 0
DWIDTH 14 0
BBX 14 14 0 -2
BITMAP
1000
13f8
fe40
4480
29f0
7f10
49f0
5110
65f0
4910
73f0
44a0
9910
6608
ENDCHAR
STARTCHAR 346a
ENCODING 13418
SWIDTH 960 0
DWIDTH 14 0
BBX 14 14 0 -2
BITMAP
0000
7ff8
4420
4840
5ef0
5290
5ef0
5290
5ef0
4c90
5af0
6a60
8890
1b08
ENDCHAR
STARTCHAR 346b
ENCODING 13419
SWIDTH 960 0
DWIDTH 14 0
BBX 14 14 0 -2
BITMAP
0200
0200
0500
0880
3260
c218
0200
1200
13e0
1200
1200
1200
fff8
0000
ENDCHAR
STARTCHAR 346c
ENCODING 13420
SWIDTH 960 0
DWIDTH 14 0
BBX 14 14 0 -2
BITMAP
1080
1080
1080
2ff8
2080
6080
a7f0
2210
2220
2120
2140
2080
2360
2c18
ENDCHAR
STARTCHAR 346d
ENCODING 13421
SWIDTH 960 0
DWIDTH 14 0
BBX 14 14 0 -2
BITMAP
0400
0fc0
3180
c200
3ff8
2000
27e0
2420
2420
2420
24c0
4408
4408
83f8
ENDCHAR
STARTCHAR 346e
ENCODING 13422
SWIDTH 960 0
DWIDTH 14 0
BBX 14 14 0 -2
BITMAP
0200
fff8
0200
3fe0
0000
1fc0
1040
1fc0
0880
fff8
0000
3fe0
2020
3fe0
ENDCHAR
STARTCHAR 346f
ENCODING 13423
SWIDTH 960 0
DWIDTH 14 0
BBX 14 14 0 -2
BITMAP
0000
3de0
2520
2520
3de0
0200
fff8
0880
3060
fdf8
2520
2520
3de0
0000
ENDCHAR
STARTCHAR 3470
ENCODING 13424
SWIDTH 960 0
DWIDTH 14 0
BBX 14 14 0 -2
BITMAP
0880
fff8
0880
0f80
0880
0f80
0880
fff8
1240
3fe0
c218
0200
7ff0
0000
ENDCHAR
STARTCHAR 3471
ENCODING 13425
SWIDTH 960 0
DWIDTH 14 0
BBX 14 14 0 -2
BITMAP
0200
0200
7ff0
0500
0880
3040
fff8
0020
3e20
2220
2220
3e20
0020
0060
ENDCHAR
STARTCHAR 3472
ENCODING 13426
SWIDTH 960 0
DWIDTH 14 0
BBX 14 14 0 -2
BITMAP
2080
2ff8
2080
27f0
fbf0
4a10
4bf0
4920
f7f8
9000
1bf0
2a10
c3f0
0000
ENDCHAR
STARTCHAR 3473
ENCODING 13427
SWIDTH 960 0
DWIDTH 14 0
BBX 14 14 0 -2
BITMAP
0200
0200
fff8
8208
bfe8
0480
1840
fff8
0040
3e40
2240
3e40
0040
00c0
ENDCHAR
STARTCHAR 3474
ENCODING 13428
SWIDTH 960 0
DWIDTH 14 0
BBX 14 14 0 -2
BITMAP
0080
2080
2080
2ff8
a880
a880
aff0
aa10
a920
a920
f8c0
00c0
0320
0c18
ENDCHAR
STARTCHAR 3475
ENCODING 13429
SWIDTH 960 0
DWIDTH 14 0
BBX 14 14 0 -2
BITMAP
0c40
0380
0ec0
7220
0400
fff8
0900
1ff0
3110
5110
9110
1110
1160
0100
ENDCHAR
STARTCHAR 3476
ENCODING 13430
SWIDTH 960 0
DWIDTH 14 0
BBX 14 14 0 -2
BITMAP
2240
2a50
cb90
3260
1260
2a90
f7e8
0220
7ff8
1120
1940
2488
4368
8c18
ENDCHAR
STARTCHAR 3477
ENCODING 13431
SWIDTH 960 0
DWIDTH 14 0
BBX 14 14 0 -2
BITMAP
0000
3fc0
0040
0040
3fc0
2040
2010
1ff0
0200
2920
2910
4848
8848
07c0
ENDCHAR
STARTCHAR 3478
ENCODING 13432
SWIDTH 960 0
DWIDTH 14 0
BBX 14 14 0 -2
BITMAP
2000
2ff8
2888
fbe8
2080
27f0
2490
3ff0
e490
27f0
2080
2ff8
2080
6080
ENDCHAR
STARTCHAR 3479
ENCODING 13433
SWIDTH 960 0
DWIDTH 14 0
BBX 14 14 0 -2
BITMAP
1000
11e0
1120
ff20
1120
3920
3520
3520
5120
5120
9220
1228
1428
1818
ENDCHAR
STARTCHAR 347a
ENCODING 13434
SWIDTH 960 0
DWIDTH 14 0
BBX 14 14 0 -2
BITMAP
2100
2100
23f8
fd20
27f8
2120
39e0
2920
29e0
2920
4ff8
48a0
8910
3608
ENDCHAR
STARTCHAR 347b
ENCODING 13435
SWIDTH 960 0
DWIDTH 14 0
BBX 14 14 0 -2
BITMAP
0000
7df8
44a0
44a0
7ca0
44a0
47f8
7c60
5060
48a0
4ca0
7528
c228
0418
ENDCHAR
STARTCHAR 347c
ENCODING 13436
SWIDTH 960 0
DWIDTH 14 0
BBX 14 14 0 -2
BITMAP
1200
1278
1248
7fc8
1278
1e48
1248
1e78
1248
7fc8
1448
1288
2288
4118
ENDCHAR
STARTCHAR 347d
ENCODING 13437
SWIDTH 960 0
DWIDTH 14 0
BBX 14 14 0 -2
BITMAP
1120
1120
1120
fff8
1120
39e0
3520
35e0
5120
57f8
9120
1110
1208
1408
ENDCHAR
STARTCHAR 347e
ENCODING 13438
SWIDTH 960 0
DWIDTH 14 0
BBX 14 14 0 -2
BITMAP
0200
fff8
0480
3fc0
1260
fff8
1240
1fc0
0200
fff8
0700
1ac0
e238
0200
ENDCHAR
STARTCHAR 3521
ENCODING 13601
SWIDTH 960 0
DWIDTH 14 0
BBX 14 14 0 -2
BITMAP
2290
2290
2de8
fda8
2290
35a8
6ef8
68a0
67f8
a440
a650
2960
2898
3308
ENDCHAR
STARTCHAR 3522
ENCODING 13602
SWIDTH 960 0
DWIDTH 14 0
BBX 14 14 0 -2
BITMAP
1000
17f0
1010
13f0
5010
57f0
5000
9ff8
1888
17f0
1490
2490
24b0
4080
ENDCHAR
STARTCHAR 3523
ENCODING 13603
SWIDTH 960 0
DWIDTH 14 0
BBX 14 14 0 -2
BITMAP
1000
10e0
7ea0
24a0
18a8
ff28
3218
dbf0
2c90
daa0
2a60
c860
0990
3608
ENDCHAR
STARTCHAR 3524
ENCODING 13604
SWIDTH 960 0
DWIDTH 14 0
BBX 14 14 0 -2
BITMAP
1000
1000
3ff0
2000
5fc0
8000
7fc0
0240
0240
3440
0c28
0a28
3018
c008
ENDCHAR
STARTCHAR 3525
ENCODING 13605
SWIDTH 960 0
DWIDTH 14 0
BBX 14 14 0 -2
BITMAP
2200
1200
17f0
8400
4be0
4000
0fe0
0020
1020
1020
2028
2018
4018
4008
ENDCHAR
STARTCHAR 3526
ENCODING 13606
SWIDTH 960 0
DWIDTH 14 0
BBX 14 14 0 -2
BITMAP
2240
2a50
cb90
3260
2a50
f7e8
0548
fff8
7d10
5490
7ca0
5440
7ca8
0318
ENDCHAR
STARTCHAR 3527
ENCODING 13607
SWIDTH 960 0
DWIDTH 14 0
BBX 14 14 0 -2
BITMAP
1010
1060
1180
fd00
0900
11f8
1920
3520
5520
9120
1220
1220
1420
1820
ENDCHAR
STARTCHAR 3528
ENCODING 13608
SWIDTH 960 0
DWIDTH 14 0
BBX 14 14 0 -2
BITMAP
00c0
3f00
0200
fff8
0700
0a80
3260
dfd8
0080
0300
fff8
0200
0200
0e00
ENDCHAR
STARTCHAR 3529
ENCODING 13609
SWIDTH 960 0
DWIDTH 14 0
BBX 14 14 0 -2
BITMAP
0420
19a0
7060
1390
1080
fff8
1140
39f0
3750
5550
9150
1170
1040
1040
ENDCHAR
STARTCHAR 352a
ENCODING 13610
SWIDTH 960 0
DWIDTH 14 0
BBX 14 14 0 -2
BITMAP
1000
11f0
1410
e410
2810
19f0
2500
fb00
1100
5900
5500
5508
90f8
1000
ENDCHAR
STARTCHAR 352b
ENCODING 13611
SWIDTH 960 0
DWIDTH 14 0
BBX 14 14 0 -2
BITMAP
2440
3540
5540
9f40
28f8
2a90
7b90
c450
4a50
7f60
5520
5660
6590
4508
ENDCHAR
STARTCHAR 352c
ENCODING 13612
SWIDTH 960 0
DWIDTH 14 0
BBX 14 14 0 -2
BITMAP
1000
13f0
1210
7ff0
1210
13f0
fe10
1210
13f0
1140
2a40
2a48
4448
8838
ENDCHAR
STARTCHAR 352d
ENCODING 13613
SWIDTH 960 0
DWIDTH 14 0
BBX 14 14 0 -2
BITMAP
0000
7df0
0010
fe10
0010
7df0
0100
7d00
0100
7d00
4500
4508
7cf8
0000
ENDCHAR
STARTCHAR 352e
ENCODING 13614
SWIDTH 960 0
DWIDTH 14 0
BBX 14 14 0 -2
BITMAP
0200
1fc0
1240
1fc0
0200
fff8
1040
1fc0
1040
1fc0
1040
1fc0
0cc0
7030
ENDCHAR
STARTCHAR 352f
ENCODING 13615
SWIDTH 960 0
DWIDTH 14 0
BBX 14 14 0 -2
BITMAP
1000
11f0
7c10
1010
1010
fff0
1100
5100
5f00
5108
7108
50f8
4c00
83f8
ENDCHAR
STARTCHAR 3530
ENCODING 13616
SWIDTH 960 0
DWIDTH 14 0
BBX 14 14 0 -2
BITMAP
1080
1080
fe80
13e0
7ca0
54a0
7ca0
54a0
7ca0
10a0
ff20
1128
1228
1418
ENDCHAR
STARTCHAR 3531
ENCODING 13617
SWIDTH 960 0
DWIDTH 14 0
BBX 14 14 0 -2
BITMAP
1000
13f8
9648
57f8
5840
11f0
ff50
29f0
2950
2bf0
2c40
4bf8
4040
8040
ENDCHAR
STARTCHAR 3532
ENCODING 13618
SWIDTH 960 0
DWIDTH 14 0
BBX 14 14 0 -2
BITMAP
1000
11e0
2920
3520
5120
fd20
4520
7d20
4520
7d20
5120
4a28
7628
c418
ENDCHAR
STARTCHAR 3533
ENCODING 13619
SWIDTH 960 0
DWIDTH 14 0
BBX 14 14 0 -2
BITMAP
0040
7e40
53f8
7c40
50a0
7d10
53f8
7c10
05d0
5550
5550
45d0
8410
1830
ENDCHAR
STARTCHAR 3534
ENCODING 13620
SWIDTH 960 0
DWIDTH 14 0
BBX 14 14 0 -2
BITMAP
0200
0400
3fe0
2220
2220
3fe0
2220
3fe0
0a40
0a40
12a0
13f8
2208
41f8
ENDCHAR
STARTCHAR 3535
ENCODING 13621
SWIDTH 960 0
DWIDTH 14 0
BBX 14 14 0 -2
BITMAP
0400
0780
1900
ffc0
1240
1fc0
1240
3fe0
2220
3fe0
2220
3fe8
0208
01f8
ENDCHAR
STARTCHAR 3536
ENCODING 13622
SWIDTH 960 0
DWIDTH 14 0
BBX 14 14 0 -2
BITMAP
1480
1280
1280
2fe0
2120
6120
a3f0
2210
27f8
2aa8
3958
2508
2408
2030
ENDCHAR
STARTCHAR 3537
ENCODING 13623
SWIDTH 960 0
DWIDTH 14 0
BBX 14 14 0 -2
BITMAP
1220
1140
1ff8
2080
27f0
6080
aff8
2750
2248
3ff8
2350
2e20
22d8
2608
ENDCHAR
STARTCHAR 3538
ENCODING 13624
SWIDTH 960 0
DWIDTH 14 0
BBX 14 14 0 -2
BITMAP
1040
1040
13f8
1040
fc40
27f0
2510
2510
78a0
48a0
0c40
14a0
6310
0408
ENDCHAR
STARTCHAR 3539
ENCODING 13625
SWIDTH 960 0
DWIDTH 14 0
BBX 14 14 0 -2
BITMAP
0200
0200
fff8
8008
9f88
1080
1080
1f80
1080
1f80
1080
1080
fff8
0000
ENDCHAR
STARTCHAR 353a
ENCODING 13626
SWIDTH 960 0
DWIDTH 14 0
BBX 14 14 0 -2
BITMAP
0860
0e50
0850
7f40
4e78
7bc0
4650
5450
5560
7620
7468
5698
9918
6008
ENDCHAR
STARTCHAR 353b
ENCODING 13627
SWIDTH 960 0
DWIDTH 14 0
BBX 14 14 0 -2
BITMAP
2080
2080
2080
fff8
2080
2080
27f0
3a10
e120
2120
20c0
20c0
2320
6c18
ENDCHAR
STARTCHAR 353c
ENCODING 13628
SWIDTH 960 0
DWIDTH 14 0
BBX 14 14 0 -2
BITMAP
2800
2bf8
2c50
f920
2720
24f8
2730
3aa0
efb8
22a0
26a0
25e0
2920
7218
ENDCHAR
STARTCHAR 353d
ENCODING 13629
SWIDTH 960 0
DWIDTH 14 0
BBX 14 14 0 -2
BITMAP
2480
2480
2480
fe80
24f8
3d50
2660
3c40
2440
fe40
24a0
2320
4210
8408
ENDCHAR
STARTCHAR 353e
ENCODING 13630
SWIDTH 960 0
DWIDTH 14 0
BBX 14 14 0 -2
BITMAP
1220
1140
57f8
5080
7bf0
5080
97f8
1bd0
3148
dff8
11d0
1728
1158
1388
ENDCHAR
STARTCHAR 353f
ENCODING 13631
SWIDTH 960 0
DWIDTH 14 0
BBX 14 14 0 -2
BITMAP
4000
4ff0
7120
44c0
3c40
23f8
3c50
5160
fd40
1170
2940
26c0
4460
8818
ENDCHAR
STARTCHAR 3540
ENCODING 13632
SWIDTH 960 0
DWIDTH 14 0
BBX 14 14 0 -2
BITMAP
2010
2060
23c0
fa40
0a40
1240
13f8
3240
6a20
aa28
2228
2398
2c18
2008
ENDCHAR
STARTCHAR 3541
ENCODING 13633
SWIDTH 960 0
DWIDTH 14 0
BBX 14 14 0 -2
BITMAP
0880
7ff0
0200
3fe0
0200
fff8
0d20
7110
fff8
1090
1ca0
f048
11a8
3618
ENDCHAR
STARTCHAR 3542
ENCODING 13634
SWIDTH 960 0
DWIDTH 14 0
BBX 14 14 0 -2
BITMAP
2120
27f8
2080
fbf0
a880
aff8
a8d0
fb48
27f8
3150
29b0
3f28
c1d8
0308
ENDCHAR
STARTCHAR 3543
ENCODING 13635
SWIDTH 960 0
DWIDTH 14 0
BBX 14 14 0 -2
BITMAP
0080
7880
07f8
fc08
07e0
7a20
0220
7be0
0220
7be0
4a20
4a20
7ff8
0000
ENDCHAR
STARTCHAR 3544
ENCODING 13636
SWIDTH 960 0
DWIDTH 14 0
BBX 14 14 0 -2
BITMAP
0220
7140
07f8
f880
07f0
7080
0ff8
7350
0648
7ff8
5350
5e28
72d8
0608
ENDCHAR
STARTCHAR 3545
ENCODING 13637
SWIDTH 960 0
DWIDTH 14 0
BBX 14 14 0 -2
BITMAP
1100
1100
1100
7ff8
1288
14a8
12a8
1ac8
77f8
11c8
11a8
1298
1488
30b0
ENDCHAR
STARTCHAR 3546
ENCODING 13638
SWIDTH 960 0
DWIDTH 14 0
BBX 14 14 0 -2
BITMAP
0880
0880
fff8
1880
1000
3ff0
2490
5490
9510
7fd0
0e10
1590
6450
0460
ENDCHAR
STARTCHAR 3547
ENCODING 13639
SWIDTH 960 0
DWIDTH 14 0
BBX 14 14 0 -2
BITMAP
1480
1480
7ff8
14c8
1d58
0b58
3ee8
2bf8
3ee8
08d8
7f58
0a48
0848
0830
ENDCHAR
STARTCHAR 3548
ENCODING 13640
SWIDTH 960 0
DWIDTH 14 0
BBX 14 14 0 -2
BITMAP
0200
0200
0200
fff8
0200
0200
7ff0
0000
3fe0
2020
2020
2020
3fe0
0000
ENDCHAR
STARTCHAR 3549
ENCODING 13641
SWIDTH 960 0
DWIDTH 14 0
BBX 14 14 0 -2
BITMAP
0200
0200
0200
f3f8
9400
9400
9be0
9040
9080
9100
f200
0408
0408
03f8
ENDCHAR
STARTCHAR 354a
ENCODING 13642
SWIDTH 960 0
DWIDTH 14 0
BBX 14 14 0 -2
BITMAP
0400
05f0
ff50
a450
bf50
a450
a790
bcb0
a100
bff8
e100
0280
0c60
3018
ENDCHAR
STARTCHAR 354b
ENCODING 13643
SWIDTH 960 0
DWIDTH 14 0
BBX 14 14 0 -2
BITMAP
1080
1080
1080
fff8
1080
3880
37f0
3400
53f0
5210
9210
1210
13f0
1010
ENDCHAR
STARTCHAR 354c
ENCODING 13644
SWIDTH 960 0
DWIDTH 14 0
BBX 14 14 0 -2
BITMAP
2000
27e0
2140
fff8
2190
36a0
6980
6ff0
6550
a670
a5d0
2550
25d0
2430
ENDCHAR
STARTCHAR 354d
ENCODING 13645
SWIDTH 960 0
DWIDTH 14 0
BBX 14 14 0 -2
BITMAP
0080
7880
0080
fff8
0080
7880
03f0
7800
03f0
7a10
4a10
4a10
7bf0
0000
ENDCHAR
STARTCHAR 354e
ENCODING 13646
SWIDTH 960 0
DWIDTH 14 0
BBX 14 14 0 -2
BITMAP
0040
7e40
1040
1078
1040
2040
3c40
65f0
a510
2510
2510
3d10
01f0
0000
ENDCHAR
STARTCHAR 354f
ENCODING 13647
SWIDTH 960 0
DWIDTH 14 0
BBX 14 14 0 -2
BITMAP
1100
1100
1100
fff8
1240
3440
3840
37f8
5440
5040
9040
1040
1040
1040
ENDCHAR
STARTCHAR 3550
ENCODING 13648
SWIDTH 960 0
DWIDTH 14 0
BBX 14 14 0 -2
BITMAP
0060
3f80
0200
fff8
0700
1ac0
e238
0700
1ac0
f278
0f80
1ac0
6230
0600
ENDCHAR
STARTCHAR 3551
ENCODING 13649
SWIDTH 960 0
DWIDTH 14 0
BBX 14 14 0 -2
BITMAP
0800
0878
0848
3f48
0848
0848
7fc8
0848
0c48
1248
1370
7d40
0140
0040
ENDCHAR
STARTCHAR 3552
ENCODING 13650
SWIDTH 960 0
DWIDTH 14 0
BBX 14 14 0 -2
BITMAP
0200
0200
fff8
8408
8fc8
1880
6500
0700
18e0
ffd8
1040
1040
1040
1fc0
ENDCHAR
STARTCHAR 3553
ENCODING 13651
SWIDTH 960 0
DWIDTH 14 0
BBX 14 14 0 -2
BITMAP
0200
7270
5250
5fd0
7250
5250
5fd0
7250
5250
5550
55f0
5e40
5040
b040
ENDCHAR
STARTCHAR 3554
ENCODING 13652
SWIDTH 960 0
DWIDTH 14 0
BBX 14 14 0 -2
BITMAP
0200
03f0
0200
3ff8
25d0
3e20
23e0
2000
2ff0
2800
4ff0
4800
8ff0
0000
ENDCHAR
STARTCHAR 3555
ENCODING 13653
SWIDTH 960 0
DWIDTH 14 0
BBX 14 14 0 -2
BITMAP
0420
4220
2240
2ff8
0080
0490
0490
e490
27f0
2480
2080
3100
4e00
83f8
ENDCHAR
STARTCHAR 3556
ENCODING 13654
SWIDTH 960 0
DWIDTH 14 0
BBX 14 14 0 -2
BITMAP
0040
0180
1e00
1000
1000
1ff0
1080
1080
1080
1080
1080
1080
fff8
0000
ENDCHAR
STARTCHAR 3557
ENCODING 13655
SWIDTH 960 0
DWIDTH 14 0
BBX 14 14 0 -2
BITMAP
0400
0400
0400
07c0
0840
0840
1080
2080
4180
0240
0440
0820
3010
c008
ENDCHAR
STARTCHAR 3558
ENCODING 13656
SWIDTH 960 0
DWIDTH 14 0
BBX 14 14 0 -2
BITMAP
1200
1200
1200
2200
23c0
7e40
a240
2240
2240
2240
2448
2448
2848
3038
ENDCHAR
STARTCHAR 3559
ENCODING 13657
SWIDTH 960 0
DWIDTH 14 0
BBX 14 14 0 -2
BITMAP
1080
1080
1080
2080
2ff8
6080
a1c0
21c0
22a0
22a0
2490
2888
2080
2080
ENDCHAR
STARTCHAR 355a
ENCODING 13658
SWIDTH 960 0
DWIDTH 14 0
BBX 14 14 0 -2
BITMAP
0000
7fc0
0840
0880
0880
0de0
1420
1220
1240
1140
2080
2140
4620
9818
ENDCHAR
STARTCHAR 355b
ENCODING 13659
SWIDTH 960 0
DWIDTH 14 0
BBX 14 14 0 -2
BITMAP
0000
0fe0
f220
9240
9240
93f0
9310
9310
94a0
f4a0
0440
08a0
1310
2c08
ENDCHAR
STARTCHAR 355c
ENCODING 13660
SWIDTH 960 0
DWIDTH 14 0
BBX 14 14 0 -2
BITMAP
0200
0200
fff8
8008
9fc8
1040
1040
1fc0
0200
0400
3fe0
2020
2020
3fe0
ENDCHAR
STARTCHAR 355d
ENCODING 13661
SWIDTH 960 0
DWIDTH 14 0
BBX 14 14 0 -2
BITMAP
0000
3fe0
0020
0020
3fe0
2000
2000
3ff0
0010
0010
0010
0010
0020
01c0
ENDCHAR
STARTCHAR 355e
ENCODING 13662
SWIDTH 960 0
DWIDTH 14 0
BBX 14 14 0 -2
BITMAP
0400
0f80
1100
7fe0
0020
1fe0
0020
3fe0
0200
2920
2910
4848
8848
07c0
ENDCHAR
STARTCHAR 355f
ENCODING 13663
SWIDTH 960 0
DWIDTH 14 0
BBX 14 14 0 -2
BITMAP
1080
1480
1280
fef8
1110
9510
56a0
58a0
3860
3440
5460
90a0
1110
3608
ENDCHAR
STARTCHAR 3560
ENCODING 13664
SWIDTH 960 0
DWIDTH 14 0
BBX 14 14 0 -2
BITMAP
1000
13f8
1080
fe80
1080
39f0
3410
3410
5210
5010
9010
1010
1010
1060
ENDCHAR
STARTCHAR 3561
ENCODING 13665
SWIDTH 960 0
DWIDTH 14 0
BBX 14 14 0 -2
BITMAP
0240
0220
0220
fff8
0200
0310
6310
12a0
06c0
0a40
3220
c210
0208
0600
ENDCHAR
STARTCHAR 3562
ENCODING 13666
SWIDTH 960 0
DWIDTH 14 0
BBX 14 14 0 -2
BITMAP
4000
2fe0
2420
8440
4440
46f0
0610
2520
2520
24c0
4840
48a0
9110
a608
ENDCHAR
STARTCHAR 3563
ENCODING 13667
SWIDTH 960 0
DWIDTH 14 0
BBX 14 14 0 -2
BITMAP
2080
1080
1080
8ff8
4020
4420
0420
1220
1220
2240
2240
4240
4ff8
4000
ENDCHAR
STARTCHAR 3564
ENCODING 13668
SWIDTH 960 0
DWIDTH 14 0
BBX 14 14 0 -2
BITMAP
0200
0780
1900
6300
0480
1a60
e218
0220
2220
2540
4480
0840
3020
c018
ENDCHAR
STARTCHAR 3565
ENCODING 13669
SWIDTH 960 0
DWIDTH 14 0
BBX 14 14 0 -2
BITMAP
00a0
0090
f890
27f8
2080
2490
fad0
22e0
20a0
29a0
3290
cc88
0080
0180
ENDCHAR
STARTCHAR 3566
ENCODING 13670
SWIDTH 960 0
DWIDTH 14 0
BBX 14 14 0 -2
BITMAP
0200
0200
fff8
8908
8908
0910
12f0
2200
7f80
0480
0480
0888
1088
6078
ENDCHAR
STARTCHAR 3567
ENCODING 13671
SWIDTH 960 0
DWIDTH 14 0
BBX 14 14 0 -2
BITMAP
0200
fff8
8908
9128
28e0
3de0
2420
3de0
3d00
25f0
fc10
0c10
3410
cc60
ENDCHAR
STARTCHAR 3568
ENCODING 13672
SWIDTH 960 0
DWIDTH 14 0
BBX 14 14 0 -2
BITMAP
1080
1080
3ff8
2940
4620
bfc0
0840
0880
0de0
1420
1240
2180
46c0
9838
ENDCHAR
STARTCHAR 3569
ENCODING 13673
SWIDTH 960 0
DWIDTH 14 0
BBX 14 14 0 -2
BITMAP
1000
11f0
1510
e520
2920
1970
2590
fd90
1150
5960
5520
5660
9290
1508
ENDCHAR
STARTCHAR 356a
ENCODING 13674
SWIDTH 960 0
DWIDTH 14 0
BBX 14 14 0 -2
BITMAP
1020
1120
1520
e520
2920
1920
2520
fb20
1138
59e0
5720
5420
9020
1020
ENDCHAR
STARTCHAR 356b
ENCODING 13675
SWIDTH 960 0
DWIDTH 14 0
BBX 14 14 0 -2
BITMAP
1040
1040
14a0
e4a0
2910
1bf8
2400
fc00
11f0
5910
5510
5510
91f0
1000
ENDCHAR
STARTCHAR 356c
ENCODING 13676
SWIDTH 960 0
DWIDTH 14 0
BBX 14 14 0 -2
BITMAP
4000
4fe0
4820
4820
4820
4820
4fe0
4820
4820
4820
4820
4820
4fe0
4000
ENDCHAR
STARTCHAR 356d
ENCODING 13677
SWIDTH 960 0
DWIDTH 14 0
BBX 14 14 0 -2
BITMAP
0200
1200
1200
1200
3fe0
2200
4200
0200
fff8
0200
0200
0200
0200
0200
ENDCHAR
STARTCHAR 356e
ENCODING 13678
SWIDTH 960 0
DWIDTH 14 0
BBX 14 14 0 -2
BITMAP
0200
0200
0200
3fe0
0200
0200
0200
fff8
0400
0480
0840
11e0
7e10
0010
ENDCHAR
STARTCHAR 356f
ENCODING 13679
SWIDTH 960 0
DWIDTH 14 0
BBX 14 14 0 -2
BITMAP
0000
3ff0
2010
3ff0
2100
2100
3ff8
2100
2100
2fe0
4820
4820
8fe0
0000
ENDCHAR
STARTCHAR 3570
ENCODING 13680
SWIDTH 960 0
DWIDTH 14 0
BBX 14 14 0 -2
BITMAP
0000
7ff0
4000
4000
7fc0
4040
4040
4040
7fc0
4000
4000
4000
7ff8
0000
ENDCHAR
STARTCHAR 3571
ENCODING 13681
SWIDTH 960 0
DWIDTH 14 0
BBX 14 14 0 -2
BITMAP
1000
13f8
1200
fe00
13f0
1210
1210
1e10
f3f0
1200
1200
1200
13f8
3000
ENDCHAR
STARTCHAR 3572
ENCODING 13682
SWIDTH 960 0
DWIDTH 14 0
BBX 14 14 0 -2
BITMAP
2000
24e0
24a0
f4a0
2ea0
2aa0
2aa0
36a0
e520
2528
2a28
3218
2180
6078
ENDCHAR
STARTCHAR 3573
ENCODING 13683
SWIDTH 960 0
DWIDTH 14 0
BBX 14 14 0 -2
BITMAP
2420
1220
1240
fff8
0880
10c0
3f30
c208
3fe0
0200
7ff0
0200
0200
0600
ENDCHAR
STARTCHAR 3574
ENCODING 13684
SWIDTH 960 0
DWIDTH 14 0
BBX 14 14 0 -2
BITMAP
2000
17f0
9400
47e0
4420
17e0
1400
27f0
4200
fff8
0700
1ac0
e238
0200
ENDCHAR
STARTCHAR 3575
ENCODING 13685
SWIDTH 960 0
DWIDTH 14 0
BBX 14 14 0 -2
BITMAP
0200
03f0
0200
3ff8
23d0
3e10
23f0
2280
3290
2a90
4aa0
4280
bff8
0000
ENDCHAR
STARTCHAR 3576
ENCODING 13686
SWIDTH 960 0
DWIDTH 14 0
BBX 14 14 0 -2
BITMAP
0100
7900
0100
fff0
0280
7c80
0080
7ff8
0080
7880
4880
4880
7880
0080
ENDCHAR
STARTCHAR 3577
ENCODING 13687
SWIDTH 960 0
DWIDTH 14 0
BBX 14 14 0 -2
BITMAP
0000
7df8
4500
4500
7df0
1110
5110
5d10
51f0
5100
5100
5d00
71f8
c000
ENDCHAR
STARTCHAR 3578
ENCODING 13688
SWIDTH 960 0
DWIDTH 14 0
BBX 14 14 0 -2
BITMAP
1000
13f0
2a10
2610
47f0
ba40
13f8
fe40
1240
57f0
3b10
3310
1df0
e000
ENDCHAR
STARTCHAR 3579
ENCODING 13689
SWIDTH 960 0
DWIDTH 14 0
BBX 14 14 0 -2
BITMAP
2100
1100
13e0
8240
4480
4ff0
0490
27f0
2490
27f0
4000
4a90
8948
9148
ENDCHAR
STARTCHAR 357a
ENCODING 13690
SWIDTH 960 0
DWIDTH 14 0
BBX 14 14 0 -2
BITMAP
2400
27f0
5a50
9fd0
2250
6bd0
aa50
2bf0
3c40
3fe0
0000
fff8
3260
c618
ENDCHAR
STARTCHAR 357b
ENCODING 13691
SWIDTH 960 0
DWIDTH 14 0
BBX 14 14 0 -2
BITMAP
0800
0f80
1100
2200
7fe0
a220
3fe0
2220
2220
3fe0
0000
4910
4488
8488
ENDCHAR
STARTCHAR 357c
ENCODING 13692
SWIDTH 960 0
DWIDTH 14 0
BBX 14 14 0 -2
BITMAP
0200
fff8
0000
1fc0
1040
1fc0
0000
3fc0
0080
0300
0200
0200
0200
0600
ENDCHAR
STARTCHAR 357d
ENCODING 13693
SWIDTH 960 0
DWIDTH 14 0
BBX 14 14 0 -2
BITMAP
0200
fff8
0000
1fc0
1040
1fc0
0000
3fc0
0080
0300
fff8
0200
0200
0600
ENDCHAR
STARTCHAR 357e
ENCODING 13694
SWIDTH 960 0
DWIDTH 14 0
BBX 14 14 0 -2
BITMAP
0200
0200
fff8
0000
1fc0
1040
1040
1fc0
0200
1240
1220
2210
4210
0600
ENDCHAR
STARTCHAR 3621
ENCODING 13857
SWIDTH 960 0
DWIDTH 14 0
BBX 14 14 0 -2
BITMAP
1240
1240
1240
2240
2ff0
6240
a240
2240
3ff8
2000
2240
2220
2410
2810
ENDCHAR
STARTCHAR 3622
ENCODING 13858
SWIDTH 960 0
DWIDTH 14 0
BBX 14 14 0 -2
BITMAP
1080
1080
1080
2ff8
2490
6290
a2a0
3ff8
2080
2140
2140
2220
2410
2808
ENDCHAR
STARTCHAR 3623
ENCODING 13859
SWIDTH 960 0
DWIDTH 14 0
BBX 14 14 0 -2
BITMAP
1060
1780
1100
3ff8
2240
67e0
aa50
33c8
2ff0
2810
2bd0
2a50
2bd0
2830
ENDCHAR
STARTCHAR 3624
ENCODING 13860
SWIDTH 960 0
DWIDTH 14 0
BBX 14 14 0 -2
BITMAP
0100
4120
5a20
4620
4520
4920
5020
7fe0
0900
0900
1100
1108
2108
c0f8
ENDCHAR
STARTCHAR 3625
ENCODING 13861
SWIDTH 960 0
DWIDTH 14 0
BBX 14 14 0 -2
BITMAP
1040
1040
7ff0
28a0
28a0
fff8
0000
7df0
4510
7df0
28a0
2aa0
4d28
8a18
ENDCHAR
STARTCHAR 3626
ENCODING 13862
SWIDTH 960 0
DWIDTH 14 0
BBX 14 14 0 -2
BITMAP
1080
1080
1080
1080
fff0
1080
1080
1080
fff8
0000
1080
1040
2020
4020
ENDCHAR
STARTCHAR 3627
ENCODING 13863
SWIDTH 960 0
DWIDTH 14 0
BBX 14 14 0 -2
BITMAP
0040
0040
4048
5888
4688
4108
4188
4248
4428
4828
5008
4008
7ff8
0000
ENDCHAR
STARTCHAR 3628
ENCODING 13864
SWIDTH 960 0
DWIDTH 14 0
BBX 14 14 0 -2
BITMAP
2080
2080
27f0
2090
f910
2210
2460
2420
3ff8
2528
2528
2948
2948
3398
ENDCHAR
STARTCHAR 3629
ENCODING 13865
SWIDTH 960 0
DWIDTH 14 0
BBX 14 14 0 -2
BITMAP
0000
7ff8
4000
5ff0
4100
4100
4fe0
4100
4100
4100
5ff0
4000
7ff8
0000
ENDCHAR
STARTCHAR 362a
ENCODING 13866
SWIDTH 960 0
DWIDTH 14 0
BBX 14 14 0 -2
BITMAP
1000
6770
4550
5550
5750
5550
5550
5750
5450
7650
d550
27e0
2c40
4040
ENDCHAR
STARTCHAR 362b
ENCODING 13867
SWIDTH 960 0
DWIDTH 14 0
BBX 14 14 0 -2
BITMAP
0020
0020
f220
9220
9220
9220
9220
9220
9238
93e0
fe20
0020
0020
0020
ENDCHAR
STARTCHAR 362c
ENCODING 13868
SWIDTH 960 0
DWIDTH 14 0
BBX 14 14 0 -2
BITMAP
00c0
1f00
0200
fff8
0880
3fe0
c898
0f80
7ff0
4010
4f90
4890
4f90
4030
ENDCHAR
STARTCHAR 362d
ENCODING 13869
SWIDTH 960 0
DWIDTH 14 0
BBX 14 14 0 -2
BITMAP
0080
27f0
2240
2140
fff8
2000
23e0
2220
2be0
3220
c3e0
0140
0648
1838
ENDCHAR
STARTCHAR 362e
ENCODING 13870
SWIDTH 960 0
DWIDTH 14 0
BBX 14 14 0 -2
BITMAP
0080
2080
27f0
2080
ac90
aa90
aaa0
aff8
a880
a940
f920
0220
0410
1808
ENDCHAR
STARTCHAR 362f
ENCODING 13871
SWIDTH 960 0
DWIDTH 14 0
BBX 14 14 0 -2
BITMAP
0080
f0a0
1110
1ff8
f088
87f0
8490
f490
17f0
14a0
1090
10f8
2f88
c008
ENDCHAR
STARTCHAR 3630
ENCODING 13872
SWIDTH 960 0
DWIDTH 14 0
BBX 14 14 0 -2
BITMAP
0000
f7f0
12a0
13e0
f2a0
83e0
8000
f7f0
12a0
13e0
12a0
13e0
2ff8
c000
ENDCHAR
STARTCHAR 3631
ENCODING 13873
SWIDTH 960 0
DWIDTH 14 0
BBX 14 14 0 -2
BITMAP
2080
2080
2080
27f0
7080
6880
6880
aff8
2080
2120
2110
2270
2f88
2008
ENDCHAR
STARTCHAR 3632
ENCODING 13874
SWIDTH 960 0
DWIDTH 14 0
BBX 14 14 0 -2
BITMAP
0000
ffe0
1220
1220
1320
1ea8
e4a8
0818
0200
2920
2910
4848
8848
07c0
ENDCHAR
STARTCHAR 3633
ENCODING 13875
SWIDTH 960 0
DWIDTH 14 0
BBX 14 14 0 -2
BITMAP
0880
0880
7ff0
0880
0880
fff8
0880
1440
2420
c418
2520
2490
4490
0c00
ENDCHAR
STARTCHAR 3634
ENCODING 13876
SWIDTH 960 0
DWIDTH 14 0
BBX 14 14 0 -2
BITMAP
2080
2080
2ff8
f080
2490
2290
22a0
3ff8
e080
2140
2120
2220
2410
6808
ENDCHAR
STARTCHAR 3635
ENCODING 13877
SWIDTH 960 0
DWIDTH 14 0
BBX 14 14 0 -2
BITMAP
1080
1280
7e80
1480
15f8
ff10
1310
3e90
44a0
8e60
7840
08a0
0b10
1c08
ENDCHAR
STARTCHAR 3636
ENCODING 13878
SWIDTH 960 0
DWIDTH 14 0
BBX 14 14 0 -2
BITMAP
2030
27c0
2080
fff8
2140
33e0
6d50
69c8
67f0
a410
a5d0
2550
25d0
2430
ENDCHAR
STARTCHAR 3637
ENCODING 13879
SWIDTH 960 0
DWIDTH 14 0
BBX 14 14 0 -2
BITMAP
2000
17f0
1410
8410
4410
47f0
0140
2140
2140
2240
4240
4448
8848
9038
ENDCHAR
STARTCHAR 3638
ENCODING 13880
SWIDTH 960 0
DWIDTH 14 0
BBX 14 14 0 -2
BITMAP
1000
9ff8
6080
2080
6080
9080
17f0
3080
5080
9080
1080
1080
7ff8
2000
ENDCHAR
STARTCHAR 3639
ENCODING 13881
SWIDTH 960 0
DWIDTH 14 0
BBX 14 14 0 -2
BITMAP
0880
8880
5080
2ff8
6490
9290
12a0
3ff8
5080
9140
1140
1220
6410
2808
ENDCHAR
STARTCHAR 363a
ENCODING 13882
SWIDTH 960 0
DWIDTH 14 0
BBX 14 14 0 -2
BITMAP
2030
27c0
2080
7ff8
5140
93e0
1550
fdc8
17f0
1c10
2dd0
2550
45d0
8430
ENDCHAR
STARTCHAR 363b
ENCODING 13883
SWIDTH 960 0
DWIDTH 14 0
BBX 14 14 0 -2
BITMAP
0100
7900
4900
4bf8
4a48
7c48
4ba8
4ae8
7b68
4a28
4be8
4a28
4808
9830
ENDCHAR
STARTCHAR 363c
ENCODING 13884
SWIDTH 960 0
DWIDTH 14 0
BBX 14 14 0 -2
BITMAP
0200
0fc0
0240
0cc0
7ff8
1248
2698
4fe0
0820
0fe0
0820
0fe0
0820
0860
ENDCHAR
STARTCHAR 363d
ENCODING 13885
SWIDTH 960 0
DWIDTH 14 0
BBX 14 14 0 -2
BITMAP
1000
6ff0
4890
4f90
78f0
4f90
7df0
4f90
4890
fff8
0000
08c0
3020
c010
ENDCHAR
STARTCHAR 363e
ENCODING 13886
SWIDTH 960 0
DWIDTH 14 0
BBX 14 14 0 -2
BITMAP
0880
fff8
08c0
3f80
0200
7ff0
0d80
3fe0
c898
3fe0
2fa0
28a0
2fa0
2060
ENDCHAR
STARTCHAR 363f
ENCODING 13887
SWIDTH 960 0
DWIDTH 14 0
BBX 14 14 0 -2
BITMAP
2000
2770
2d50
cd50
5760
3560
2550
3750
5648
f548
25c8
26f0
5840
8040
ENDCHAR
STARTCHAR 3640
ENCODING 13888
SWIDTH 960 0
DWIDTH 14 0
BBX 14 14 0 -2
BITMAP
1040
13f0
2920
27f8
4400
b9f0
1110
fdf0
1110
55f0
38a0
30a8
1d28
e618
ENDCHAR
STARTCHAR 3641
ENCODING 13889
SWIDTH 960 0
DWIDTH 14 0
BBX 14 14 0 -2
BITMAP
2770
d550
5770
3f48
d5f0
26c0
4240
7ff0
0880
fff8
1040
1fc0
1040
1fc0
ENDCHAR
STARTCHAR 3642
ENCODING 13890
SWIDTH 960 0
DWIDTH 14 0
BBX 14 14 0 -2
BITMAP
2770
b550
5760
2d50
ff48
1670
6740
0a80
3fe0
c898
0f80
0960
0ec0
7030
ENDCHAR
STARTCHAR 3643
ENCODING 13891
SWIDTH 960 0
DWIDTH 14 0
BBX 14 14 0 -2
BITMAP
2880
fe80
29f8
7e90
f460
5598
7fe0
1100
1fc0
1100
1ff0
5490
4a50
8060
ENDCHAR
STARTCHAR 3644
ENCODING 13892
SWIDTH 960 0
DWIDTH 14 0
BBX 14 14 0 -2
BITMAP
1080
1100
16f0
2490
2490
6490
a490
2490
2490
2790
3ce0
2080
2080
2080
ENDCHAR
STARTCHAR 3645
ENCODING 13893
SWIDTH 960 0
DWIDTH 14 0
BBX 14 14 0 -2
BITMAP
1000
13f8
9c10
5160
4f20
08f8
2f30
34a0
44b8
7fa0
8ca0
8ae0
9120
2218
ENDCHAR
STARTCHAR 3646
ENCODING 13894
SWIDTH 960 0
DWIDTH 14 0
BBX 14 14 0 -2
BITMAP
0200
0200
7ff0
0200
1240
fff8
1040
1040
fff8
0900
0900
1108
2108
c0f8
ENDCHAR
STARTCHAR 3647
ENCODING 13895
SWIDTH 960 0
DWIDTH 14 0
BBX 14 14 0 -2
BITMAP
0080
0080
f7f0
9080
92a0
9ff8
f220
9220
9ff8
9140
9140
f248
0448
1838
ENDCHAR
STARTCHAR 3648
ENCODING 13896
SWIDTH 960 0
DWIDTH 14 0
BBX 14 14 0 -2
BITMAP
0500
2520
1540
fff8
0880
7ff0
0200
3fe0
0200
fff8
0700
1ac0
e238
0200
ENDCHAR
STARTCHAR 3649
ENCODING 13897
SWIDTH 960 0
DWIDTH 14 0
BBX 14 14 0 -2
BITMAP
0000
3ff0
2010
2010
3ff0
2000
3ff8
2008
27c8
2448
2448
47c8
4008
8030
ENDCHAR
STARTCHAR 364a
ENCODING 13898
SWIDTH 960 0
DWIDTH 14 0
BBX 14 14 0 -2
BITMAP
0880
0880
0880
7ff0
4890
4890
4890
7ff0
4890
4890
4890
4890
7ff0
0000
ENDCHAR
STARTCHAR 364b
ENCODING 13899
SWIDTH 960 0
DWIDTH 14 0
BBX 14 14 0 -2
BITMAP
2000
2ff8
2100
f900
23b8
2248
7768
6d50
6d50
a768
a448
2080
2ff8
2000
ENDCHAR
STARTCHAR 364c
ENCODING 13900
SWIDTH 960 0
DWIDTH 14 0
BBX 14 14 0 -2
BITMAP
0000
7ff0
0200
0200
0200
0200
3fe0
0200
0240
0220
0220
0200
fff8
0000
ENDCHAR
STARTCHAR 364d
ENCODING 13901
SWIDTH 960 0
DWIDTH 14 0
BBX 14 14 0 -2
BITMAP
1000
13f8
1208
7e08
13f8
1208
3ae8
36a8
36a8
52a8
52e8
1208
1208
1218
ENDCHAR
STARTCHAR 364e
ENCODING 13902
SWIDTH 960 0
DWIDTH 14 0
BBX 14 14 0 -2
BITMAP
1010
9420
55c0
5840
1040
fc40
13f8
3840
3440
5440
9040
1040
1040
1040
ENDCHAR
STARTCHAR 364f
ENCODING 13903
SWIDTH 960 0
DWIDTH 14 0
BBX 14 14 0 -2
BITMAP
1220
1220
1ff8
2220
27f0
6490
a7f0
2080
27f0
2080
27f0
2080
2ff8
2000
ENDCHAR
STARTCHAR 3650
ENCODING 13904
SWIDTH 960 0
DWIDTH 14 0
BBX 14 14 0 -2
BITMAP
1440
7f40
1440
3e40
2bf8
2a48
3e48
0848
3e48
0848
3e48
0888
0e88
7930
ENDCHAR
STARTCHAR 3651
ENCODING 13905
SWIDTH 960 0
DWIDTH 14 0
BBX 14 14 0 -2
BITMAP
0100
1100
1100
11f8
7e08
1308
1488
1088
1028
14c8
1b08
6008
0008
0030
ENDCHAR
STARTCHAR 3652
ENCODING 13906
SWIDTH 960 0
DWIDTH 14 0
BBX 14 14 0 -2
BITMAP
0200
0200
0200
7ff0
4210
4210
4210
4210
4210
4210
4210
4260
0200
0200
ENDCHAR
STARTCHAR 3653
ENCODING 13907
SWIDTH 960 0
DWIDTH 14 0
BBX 14 14 0 -2
BITMAP
1040
1080
29f0
2510
45f0
b910
11f0
fc40
13f8
5648
3a48
3248
1e70
e040
ENDCHAR
STARTCHAR 3654
ENCODING 13908
SWIDTH 960 0
DWIDTH 14 0
BBX 14 14 0 -2
BITMAP
0020
00c0
1f00
1000
1000
1ff8
1080
1080
1080
2080
2080
4080
8080
0080
ENDCHAR
STARTCHAR 3655
ENCODING 13909
SWIDTH 960 0
DWIDTH 14 0
BBX 14 14 0 -2
BITMAP
0280
0480
3880
2080
21f8
3f50
2a60
2840
2840
28c0
48a0
4920
8a10
0c08
ENDCHAR
STARTCHAR 3656
ENCODING 13910
SWIDTH 960 0
DWIDTH 14 0
BBX 14 14 0 -2
BITMAP
1080
1080
2880
2480
45f8
b950
1260
fc40
1040
54c0
38a0
3120
1e10
e408
ENDCHAR
STARTCHAR 3657
ENCODING 13911
SWIDTH 960 0
DWIDTH 14 0
BBX 14 14 0 -2
BITMAP
0000
7df0
1040
7df0
1040
1ff8
e500
0880
3fe0
c018
1fc0
0080
0100
0200
ENDCHAR
STARTCHAR 3658
ENCODING 13912
SWIDTH 960 0
DWIDTH 14 0
BBX 14 14 0 -2
BITMAP
1040
1040
fff8
38c0
34e0
5550
9248
1fc0
0000
fff8
1240
2220
c210
0600
ENDCHAR
STARTCHAR 3659
ENCODING 13913
SWIDTH 960 0
DWIDTH 14 0
BBX 14 14 0 -2
BITMAP
0200
0500
0a80
3fe0
d558
1340
1cc0
1fc0
0200
3fe0
2520
3fa0
20a0
2060
ENDCHAR
STARTCHAR 365a
ENCODING 13914
SWIDTH 960 0
DWIDTH 14 0
BBX 14 14 0 -2
BITMAP
1080
1080
3ff8
2940
4620
8080
3c80
27f0
3c90
2490
3c90
4510
4510
8e60
ENDCHAR
STARTCHAR 365b
ENCODING 13915
SWIDTH 960 0
DWIDTH 14 0
BBX 14 14 0 -2
BITMAP
0000
7ff0
4910
7ca0
4440
7da0
7e18
4240
1cc0
0330
ffc8
1a60
6210
0200
ENDCHAR
STARTCHAR 365c
ENCODING 13916
SWIDTH 960 0
DWIDTH 14 0
BBX 14 14 0 -2
BITMAP
0880
0880
fff8
0880
08e0
1f80
1000
1ff8
1080
1080
2080
2080
4080
8080
ENDCHAR
STARTCHAR 365d
ENCODING 13917
SWIDTH 960 0
DWIDTH 14 0
BBX 14 14 0 -2
BITMAP
0880
fff8
0880
7ff0
40d0
5f10
4210
7ff0
4710
4a90
7250
4210
7ff0
0000
ENDCHAR
STARTCHAR 365e
ENCODING 13918
SWIDTH 960 0
DWIDTH 14 0
BBX 14 14 0 -2
BITMAP
2080
2080
20c0
f940
1120
17f0
2408
7800
abf0
2420
2020
2040
2040
2040
ENDCHAR
STARTCHAR 365f
ENCODING 13919
SWIDTH 960 0
DWIDTH 14 0
BBX 14 14 0 -2
BITMAP
2120
2120
27f8
f9a0
1370
15a8
2920
33f0
6800
aff8
2250
2248
2448
20c0
ENDCHAR
STARTCHAR 3660
ENCODING 13920
SWIDTH 960 0
DWIDTH 14 0
BBX 14 14 0 -2
BITMAP
0120
7920
07f8
f920
07f0
7c90
07f0
7880
07f0
7880
4ff0
4880
7ff8
0000
ENDCHAR
STARTCHAR 3661
ENCODING 13921
SWIDTH 960 0
DWIDTH 14 0
BBX 14 14 0 -2
BITMAP
0020
40c0
2700
2400
0400
07f8
0440
e440
2440
2840
2840
3040
4c00
83f8
ENDCHAR
STARTCHAR 3662
ENCODING 13922
SWIDTH 960 0
DWIDTH 14 0
BBX 14 14 0 -2
BITMAP
0200
0200
0500
0880
3060
cf98
0200
7ff0
0200
1240
0a40
0a80
7ff0
0000
ENDCHAR
STARTCHAR 3663
ENCODING 13923
SWIDTH 960 0
DWIDTH 14 0
BBX 14 14 0 -2
BITMAP
0080
0080
f140
9140
9220
97f0
9808
9000
97f0
9010
f020
0020
0040
0040
ENDCHAR
STARTCHAR 3664
ENCODING 13924
SWIDTH 960 0
DWIDTH 14 0
BBX 14 14 0 -2
BITMAP
1000
11f0
2910
2510
45f0
b910
1110
fdf0
1148
5550
3920
3160
1d90
e608
ENDCHAR
STARTCHAR 3665
ENCODING 13925
SWIDTH 960 0
DWIDTH 14 0
BBX 14 14 0 -2
BITMAP
0400
0400
0400
0400
ff80
0480
0480
0480
0880
0880
1088
2088
4088
8078
ENDCHAR
STARTCHAR 3666
ENCODING 13926
SWIDTH 960 0
DWIDTH 14 0
BBX 14 14 0 -2
BITMAP
1000
17e0
1420
2420
27e0
6420
a7e0
2420
27e0
2000
3ff8
2240
2420
3810
ENDCHAR
STARTCHAR 3667
ENCODING 13927
SWIDTH 960 0
DWIDTH 14 0
BBX 14 14 0 -2
BITMAP
1000
1000
1000
3ff0
2010
5f10
9110
1110
1110
1110
1f10
0010
0010
0060
ENDCHAR
STARTCHAR 3668
ENCODING 13928
SWIDTH 960 0
DWIDTH 14 0
BBX 14 14 0 -2
BITMAP
0000
7ff0
4040
4040
4080
5880
4700
4100
4280
4440
4840
5000
7ff8
0000
ENDCHAR
STARTCHAR 3669
ENCODING 13929
SWIDTH 960 0
DWIDTH 14 0
BBX 14 14 0 -2
BITMAP
0880
4880
3080
11f8
3108
4a08
0de8
1928
2928
4928
09e8
0808
3008
1030
ENDCHAR
STARTCHAR 366a
ENCODING 13930
SWIDTH 960 0
DWIDTH 14 0
BBX 14 14 0 -2
BITMAP
0100
0100
f900
21e0
2220
2220
fc40
2040
20c0
28c0
3120
c220
0410
1808
ENDCHAR
STARTCHAR 366b
ENCODING 13931
SWIDTH 960 0
DWIDTH 14 0
BBX 14 14 0 -2
BITMAP
2000
21f8
2100
7f00
51f0
9110
1110
ff10
11f0
1900
2900
2500
45f8
8000
ENDCHAR
STARTCHAR 366c
ENCODING 13932
SWIDTH 960 0
DWIDTH 14 0
BBX 14 14 0 -2
BITMAP
0880
0880
fff8
0880
0a80
0200
fff8
0200
0200
1fc0
1040
1040
1fc0
0000
ENDCHAR
STARTCHAR 366d
ENCODING 13933
SWIDTH 960 0
DWIDTH 14 0
BBX 14 14 0 -2
BITMAP
1000
21f8
7d00
4510
7d10
4590
7d60
4720
7d20
cd50
1590
2500
c5f8
0c00
ENDCHAR
STARTCHAR 366e
ENCODING 13934
SWIDTH 960 0
DWIDTH 14 0
BBX 14 14 0 -2
BITMAP
0000
7ff8
5110
7d10
5190
7d60
5120
7d20
0550
5550
5580
5500
85f8
1800
ENDCHAR
STARTCHAR 366f
ENCODING 13935
SWIDTH 960 0
DWIDTH 14 0
BBX 14 14 0 -2
BITMAP
0010
7e20
51c0
7d00
5100
7df8
5120
7d20
0520
5520
5520
5520
87f8
1800
ENDCHAR
STARTCHAR 3670
ENCODING 13936
SWIDTH 960 0
DWIDTH 14 0
BBX 14 14 0 -2
BITMAP
0080
7e80
5080
7df0
5110
7fd0
5150
7d50
0550
55d0
5410
5410
8410
1860
ENDCHAR
STARTCHAR 3671
ENCODING 13937
SWIDTH 960 0
DWIDTH 14 0
BBX 14 14 0 -2
BITMAP
0000
1fc0
1040
1040
1fc0
1040
1fc0
1040
1fc0
0000
fff8
08c0
3020
c010
ENDCHAR
STARTCHAR 3672
ENCODING 13938
SWIDTH 960 0
DWIDTH 14 0
BBX 14 14 0 -2
BITMAP
0000
1fc0
1240
1fc0
1240
1fc0
7ff0
4290
5fd0
4270
2910
4948
8848
07c0
ENDCHAR
STARTCHAR 3673
ENCODING 13939
SWIDTH 960 0
DWIDTH 14 0
BBX 14 14 0 -2
BITMAP
0200
03e0
3ff8
23d0
3e10
21f0
2be0
2a20
2be0
2fc0
4040
7ff8
8c60
3018
ENDCHAR
STARTCHAR 3674
ENCODING 13940
SWIDTH 960 0
DWIDTH 14 0
BBX 14 14 0 -2
BITMAP
0080
0080
f140
93e0
9c18
93e0
9220
93e0
9220
93f0
f290
0260
03b0
1e08
ENDCHAR
STARTCHAR 3675
ENCODING 13941
SWIDTH 960 0
DWIDTH 14 0
BBX 14 14 0 -2
BITMAP
0200
0200
fff8
8908
8908
1110
20f0
0000
3fe0
0200
0200
0200
fff8
0000
ENDCHAR
STARTCHAR 3676
ENCODING 13942
SWIDTH 960 0
DWIDTH 14 0
BBX 14 14 0 -2
BITMAP
1000
17e0
1520
27e0
2520
67e0
a100
2ff0
2950
29f0
2e30
2810
2810
2830
ENDCHAR
STARTCHAR 3677
ENCODING 13943
SWIDTH 960 0
DWIDTH 14 0
BBX 14 14 0 -2
BITMAP
0200
fff8
8008
9fc8
1240
1fc0
1240
1fc0
0200
7ff0
4290
5fd0
4050
4030
ENDCHAR
STARTCHAR 3678
ENCODING 13944
SWIDTH 960 0
DWIDTH 14 0
BBX 14 14 0 -2
BITMAP
0000
47e0
2520
27e0
0520
07e0
e100
2ff0
2950
29f0
2e10
3830
4c00
83f8
ENDCHAR
STARTCHAR 3679
ENCODING 13945
SWIDTH 960 0
DWIDTH 14 0
BBX 14 14 0 -2
BITMAP
0000
7bf0
4a90
5290
63f0
5290
4bf0
4880
4ff8
4ca8
74f8
4718
4408
4418
ENDCHAR
STARTCHAR 367a
ENCODING 13946
SWIDTH 960 0
DWIDTH 14 0
BBX 14 14 0 -2
BITMAP
0200
0200
3fe0
2220
2220
3fe0
0200
7ff0
4210
4210
7ff0
0200
0200
0200
ENDCHAR
STARTCHAR 367b
ENCODING 13947
SWIDTH 960 0
DWIDTH 14 0
BBX 14 14 0 -2
BITMAP
2440
27f8
2660
f990
2000
3770
6d50
6f50
6550
a750
a650
2560
27c0
3840
ENDCHAR
STARTCHAR 367c
ENCODING 13948
SWIDTH 960 0
DWIDTH 14 0
BBX 14 14 0 -2
BITMAP
0808
0888
14a8
12a8
22a8
5ca8
08a8
7ea8
08a8
2aa8
1d28
1928
0e08
7408
ENDCHAR
STARTCHAR 367d
ENCODING 13949
SWIDTH 960 0
DWIDTH 14 0
BBX 14 14 0 -2
BITMAP
0000
3ff0
2010
3ff0
2920
2540
2fe0
2820
2fe0
2820
4fe0
4820
8820
0860
ENDCHAR
STARTCHAR 367e
ENCODING 13950
SWIDTH 960 0
DWIDTH 14 0
BBX 14 14 0 -2
BITMAP
0000
3ff0
2010
3ff0
2100
2920
2920
2fe0
2100
3110
5110
5110
9ff0
1000
ENDCHAR
STARTCHAR 3721
ENCODING 14113
SWIDTH 960 0
DWIDTH 14 0
BBX 14 14 0 -2
BITMAP
2000
27f8
2408
fff8
2448
2550
2550
3df0
e550
2648
2a48
2a48
33f8
6000
ENDCHAR
STARTCHAR 3722
ENCODING 14114
SWIDTH 960 0
DWIDTH 14 0
BBX 14 14 0 -2
BITMAP
0200
fff8
8d08
b0f8
3ff0
2010
3ff0
2920
2920
2fe0
5110
5110
9ff0
0000
ENDCHAR
STARTCHAR 3723
ENCODING 14115
SWIDTH 960 0
DWIDTH 14 0
BBX 14 14 0 -2
BITMAP
0200
0210
7f20
0ac0
1240
2220
c618
1fc0
1040
1fc0
1040
1040
1fc0
0000
ENDCHAR
STARTCHAR 3724
ENCODING 14116
SWIDTH 960 0
DWIDTH 14 0
BBX 14 14 0 -2
BITMAP
28c0
28c0
fec0
2948
3948
1350
7d60
5540
7d40
1140
ff40
1148
1148
1138
ENDCHAR
STARTCHAR 3725
ENCODING 14117
SWIDTH 960 0
DWIDTH 14 0
BBX 14 14 0 -2
BITMAP
4220
5fa8
9fc8
6ab0
5fa8
faf8
6fb0
bfe8
2220
1fc0
1040
1040
1fc0
0000
ENDCHAR
STARTCHAR 3726
ENCODING 14118
SWIDTH 960 0
DWIDTH 14 0
BBX 14 14 0 -2
BITMAP
0200
fff8
8908
8908
10f0
2080
17f0
9080
4ff8
4080
17f0
1080
2ff8
4000
ENDCHAR
STARTCHAR 3727
ENCODING 14119
SWIDTH 960 0
DWIDTH 14 0
BBX 14 14 0 -2
BITMAP
1080
2490
fee0
0288
7c78
4480
7c98
44e0
7c80
4488
4c78
2920
4490
8488
ENDCHAR
STARTCHAR 3728
ENCODING 14120
SWIDTH 960 0
DWIDTH 14 0
BBX 14 14 0 -2
BITMAP
0000
7bf0
4a90
53f0
6290
53f0
4800
4ff8
4a90
4a60
7240
42a0
4310
4c08
ENDCHAR
STARTCHAR 3729
ENCODING 14121
SWIDTH 960 0
DWIDTH 14 0
BBX 14 14 0 -2
BITMAP
0200
0fc0
3080
0380
0e60
f258
1240
0a80
7ff0
0700
0a80
3260
c218
0200
ENDCHAR
STARTCHAR 372a
ENCODING 14122
SWIDTH 960 0
DWIDTH 14 0
BBX 14 14 0 -2
BITMAP
0000
fff8
0500
3fe0
2520
2520
3fe0
0200
fff8
0700
0a80
3260
c218
0200
ENDCHAR
STARTCHAR 372b
ENCODING 14123
SWIDTH 960 0
DWIDTH 14 0
BBX 14 14 0 -2
BITMAP
1000
11f0
1510
e5f0
2800
1bb8
26a8
ffb8
1040
5bf8
54e0
5550
9248
1040
ENDCHAR
STARTCHAR 372c
ENCODING 14124
SWIDTH 960 0
DWIDTH 14 0
BBX 14 14 0 -2
BITMAP
0000
3fc0
0880
0700
7df0
2490
1a60
3790
c208
7ff0
0700
1ac0
e238
0200
ENDCHAR
STARTCHAR 372d
ENCODING 14125
SWIDTH 960 0
DWIDTH 14 0
BBX 14 14 0 -2
BITMAP
20a0
2120
3720
4928
4968
f7e8
2170
fba0
2360
ab30
7550
6150
3988
c108
ENDCHAR
STARTCHAR 372e
ENCODING 14126
SWIDTH 960 0
DWIDTH 14 0
BBX 14 14 0 -2
BITMAP
0480
7880
1080
fff0
5490
7c90
5490
fe90
1110
1f10
f260
0000
4910
8488
ENDCHAR
STARTCHAR 372f
ENCODING 14127
SWIDTH 960 0
DWIDTH 14 0
BBX 14 14 0 -2
BITMAP
0000
3fc0
0440
0440
fff8
0440
0440
3fc0
0800
1fe0
2820
4820
8fe0
0000
ENDCHAR
STARTCHAR 3730
ENCODING 14128
SWIDTH 960 0
DWIDTH 14 0
BBX 14 14 0 -2
BITMAP
0880
fff8
0bc0
3e00
fff8
1fc0
1240
1fc0
1240
3fe0
0200
fff8
2490
c248
ENDCHAR
STARTCHAR 3731
ENCODING 14129
SWIDTH 960 0
DWIDTH 14 0
BBX 14 14 0 -2
BITMAP
0010
7d10
0150
ff50
0150
7d50
0150
7d50
0150
7d50
4550
4610
7e10
0010
ENDCHAR
STARTCHAR 3732
ENCODING 14130
SWIDTH 960 0
DWIDTH 14 0
BBX 14 14 0 -2
BITMAP
0110
7c90
24a0
27f8
fe40
2440
7df0
2040
3c40
67f8
6440
a440
3c40
0040
ENDCHAR
STARTCHAR 3733
ENCODING 14131
SWIDTH 960 0
DWIDTH 14 0
BBX 14 14 0 -2
BITMAP
0000
fff8
8208
bfe8
0200
3fe0
2220
3fe0
2220
3fe0
0200
fff8
0200
0200
ENDCHAR
STARTCHAR 3734
ENCODING 14132
SWIDTH 960 0
DWIDTH 14 0
BBX 14 14 0 -2
BITMAP
0000
7ef0
1290
12a0
ffa0
12c0
7ea0
1090
1e88
3288
32c8
52b0
9e80
0080
ENDCHAR
STARTCHAR 3735
ENCODING 14133
SWIDTH 960 0
DWIDTH 14 0
BBX 14 14 0 -2
BITMAP
0840
0840
0840
7f40
0840
0860
ffd0
0848
0848
7f40
0840
0840
0f40
f840
ENDCHAR
STARTCHAR 3736
ENCODING 14134
SWIDTH 960 0
DWIDTH 14 0
BBX 14 14 0 -2
BITMAP
2000
21f0
fd10
2510
2510
45f0
9b10
0200
fff8
0620
1940
e880
0e60
7018
ENDCHAR
STARTCHAR 3737
ENCODING 14135
SWIDTH 960 0
DWIDTH 14 0
BBX 14 14 0 -2
BITMAP
1000
11f0
1110
fd20
0520
0940
1120
3910
5508
9508
1188
1170
1100
1100
ENDCHAR
STARTCHAR 3738
ENCODING 14136
SWIDTH 960 0
DWIDTH 14 0
BBX 14 14 0 -2
BITMAP
1030
11c0
1f20
2120
2640
61a0
a130
23c8
2e80
20a0
2490
2488
2888
2080
ENDCHAR
STARTCHAR 3739
ENCODING 14137
SWIDTH 960 0
DWIDTH 14 0
BBX 14 14 0 -2
BITMAP
1000
13f8
1020
2840
2af0
6a90
acf0
2890
28f0
2a90
2af0
2660
2090
2308
ENDCHAR
STARTCHAR 373a
ENCODING 14138
SWIDTH 960 0
DWIDTH 14 0
BBX 14 14 0 -2
BITMAP
0008
3fc8
1248
1248
1248
1248
7fc8
1248
1248
1248
1248
2208
2208
4218
ENDCHAR
STARTCHAR 373b
ENCODING 14139
SWIDTH 960 0
DWIDTH 14 0
BBX 14 14 0 -2
BITMAP
0000
3fc0
2040
2040
2040
3fc0
0a00
0a00
0a00
1200
1210
2210
4210
81f0
ENDCHAR
STARTCHAR 373c
ENCODING 14140
SWIDTH 960 0
DWIDTH 14 0
BBX 14 14 0 -2
BITMAP
0080
fe80
01f8
7f20
4520
44c0
7cc0
4720
4018
9fc0
1040
1040
1fc0
0000
ENDCHAR
STARTCHAR 373d
ENCODING 14141
SWIDTH 960 0
DWIDTH 14 0
BBX 14 14 0 -2
BITMAP
0200
0200
3fe0
0200
0200
fff8
0200
0200
7ff0
0200
0200
0200
fff8
0000
ENDCHAR
STARTCHAR 373e
ENCODING 14142
SWIDTH 960 0
DWIDTH 14 0
BBX 14 14 0 -2
BITMAP
0080
0080
fff0
2080
2080
2ff8
f880
2080
27f0
2880
3080
c080
1ff8
0000
ENDCHAR
STARTCHAR 373f
ENCODING 14143
SWIDTH 960 0
DWIDTH 14 0
BBX 14 14 0 -2
BITMAP
0010
7f90
2490
2490
ff90
2490
2490
4430
8200
3fe0
0200
0200
fff8
0000
ENDCHAR
STARTCHAR 3740
ENCODING 14144
SWIDTH 960 0
DWIDTH 14 0
BBX 14 14 0 -2
BITMAP
1000
13f0
fe90
1090
7c90
1110
1e10
e260
0200
fff8
0500
0880
3060
c018
ENDCHAR
STARTCHAR 3741
ENCODING 14145
SWIDTH 960 0
DWIDTH 14 0
BBX 14 14 0 -2
BITMAP
0020
7e20
2440
2440
2490
2410
ff20
2420
2448
2408
2410
4410
4420
8440
ENDCHAR
STARTCHAR 3742
ENCODING 14146
SWIDTH 960 0
DWIDTH 14 0
BBX 14 14 0 -2
BITMAP
1000
17f0
2220
4940
0880
13e0
3c98
5080
97f0
1080
1080
1080
1ff8
1000
ENDCHAR
STARTCHAR 3743
ENCODING 14147
SWIDTH 960 0
DWIDTH 14 0
BBX 14 14 0 -2
BITMAP
0200
fff8
0200
3fe0
2220
3fe0
2220
3fe0
0200
0920
4910
4848
8848
07c0
ENDCHAR
STARTCHAR 3744
ENCODING 14148
SWIDTH 960 0
DWIDTH 14 0
BBX 14 14 0 -2
BITMAP
0100
3ff8
2480
3ff0
2490
3ff0
2000
3ff8
2ab0
29e8
5648
4180
86c0
3838
ENDCHAR
STARTCHAR 3745
ENCODING 14149
SWIDTH 960 0
DWIDTH 14 0
BBX 14 14 0 -2
BITMAP
1040
fff8
1040
7df0
1040
fff8
1040
0fc0
0040
1fc0
4a10
4948
8848
07c0
ENDCHAR
STARTCHAR 3746
ENCODING 14150
SWIDTH 960 0
DWIDTH 14 0
BBX 14 14 0 -2
BITMAP
0440
79f0
1110
fff0
1110
7df0
4510
7df0
4000
0a00
4910
4948
8848
07c0
ENDCHAR
STARTCHAR 3747
ENCODING 14151
SWIDTH 960 0
DWIDTH 14 0
BBX 14 14 0 -2
BITMAP
2000
23f0
2210
fbf0
2210
23f0
2100
3bf8
e668
2b88
2208
2228
21e8
6030
ENDCHAR
STARTCHAR 3748
ENCODING 14152
SWIDTH 960 0
DWIDTH 14 0
BBX 14 14 0 -2
BITMAP
2240
23f8
2640
fff0
2a40
23f0
2240
2bf8
3fc0
e240
2278
2208
2408
6830
ENDCHAR
STARTCHAR 3749
ENCODING 14153
SWIDTH 960 0
DWIDTH 14 0
BBX 14 14 0 -2
BITMAP
2880
2880
fe80
28f8
2110
3d10
4690
f4a0
5460
5440
7460
04a0
0510
1a08
ENDCHAR
STARTCHAR 374a
ENCODING 14154
SWIDTH 960 0
DWIDTH 14 0
BBX 14 14 0 -2
BITMAP
0000
1fc0
1040
1fc0
1040
1fc0
0200
fff8
1fc0
1040
1fc0
0ac0
1220
6610
ENDCHAR
STARTCHAR 374b
ENCODING 14155
SWIDTH 960 0
DWIDTH 14 0
BBX 14 14 0 -2
BITMAP
1080
1080
13f0
fc80
1080
37f8
3880
3480
57f0
5080
9080
1080
1ff8
1000
ENDCHAR
STARTCHAR 374c
ENCODING 14156
SWIDTH 960 0
DWIDTH 14 0
BBX 14 14 0 -2
BITMAP
2010
10e0
1710
8490
42a0
4240
0080
27f0
2080
2ff8
4180
4140
8220
8c18
ENDCHAR
STARTCHAR 374d
ENCODING 14157
SWIDTH 960 0
DWIDTH 14 0
BBX 14 14 0 -2
BITMAP
0080
0080
fff0
a880
a880
aff8
f880
a880
aff0
a880
f880
0880
0ff8
0000
ENDCHAR
STARTCHAR 374e
ENCODING 14158
SWIDTH 960 0
DWIDTH 14 0
BBX 14 14 0 -2
BITMAP
0450
1bf8
f0c0
1148
1338
fde0
1108
38f8
35f0
5510
91f0
1110
11f0
1000
ENDCHAR
STARTCHAR 374f
ENCODING 14159
SWIDTH 960 0
DWIDTH 14 0
BBX 14 14 0 -2
BITMAP
0070
7f80
0440
0440
3880
0720
0210
fff8
0208
1240
1220
2210
4210
0200
ENDCHAR
STARTCHAR 3750
ENCODING 14160
SWIDTH 960 0
DWIDTH 14 0
BBX 14 14 0 -2
BITMAP
1000
13f0
1510
e4a0
2840
18e0
2758
fe40
19f0
5440
5440
5040
97f8
1000
ENDCHAR
STARTCHAR 3751
ENCODING 14161
SWIDTH 960 0
DWIDTH 14 0
BBX 14 14 0 -2
BITMAP
1040
1240
1750
e6d0
2ae0
1a40
27f8
fe40
12e0
5b50
5650
5640
93f8
1000
ENDCHAR
STARTCHAR 3752
ENCODING 14162
SWIDTH 960 0
DWIDTH 14 0
BBX 14 14 0 -2
BITMAP
1000
fee0
7ca8
5518
7ff0
5520
7cc0
ff60
1498
1d80
02e0
ff10
1a60
6210
ENDCHAR
STARTCHAR 3753
ENCODING 14163
SWIDTH 960 0
DWIDTH 14 0
BBX 14 14 0 -2
BITMAP
0000
7ff0
4890
7ff0
0840
7e40
0860
ff50
0848
7e48
0840
0f40
f040
0040
ENDCHAR
STARTCHAR 3754
ENCODING 14164
SWIDTH 960 0
DWIDTH 14 0
BBX 14 14 0 -2
BITMAP
0880
0880
fff8
0880
3fe0
08c0
0700
1ac0
e238
1fc0
0200
0200
fff8
0000
ENDCHAR
STARTCHAR 3755
ENCODING 14165
SWIDTH 960 0
DWIDTH 14 0
BBX 14 14 0 -2
BITMAP
0880
0880
fff8
0880
0000
7e90
2490
2490
ff90
2490
2490
2490
4410
8430
ENDCHAR
STARTCHAR 3756
ENCODING 14166
SWIDTH 960 0
DWIDTH 14 0
BBX 14 14 0 -2
BITMAP
2420
1220
1240
fff8
8208
8208
1fc0
1240
1240
1fc0
1240
0220
03f0
7c10
ENDCHAR
STARTCHAR 3757
ENCODING 14167
SWIDTH 960 0
DWIDTH 14 0
BBX 14 14 0 -2
BITMAP
0040
7840
0040
fc40
03f8
7840
0040
7840
0040
7840
4840
4840
7840
0040
ENDCHAR
STARTCHAR 3758
ENCODING 14168
SWIDTH 960 0
DWIDTH 14 0
BBX 14 14 0 -2
BITMAP
0100
7930
01c0
fd00
0108
78f8
0000
79f0
0110
79f0
4910
4910
79f0
0000
ENDCHAR
STARTCHAR 3759
ENCODING 14169
SWIDTH 960 0
DWIDTH 14 0
BBX 14 14 0 -2
BITMAP
2480
fff8
2590
7ea0
aa60
3c98
0f00
fff8
0000
0f80
0000
1fc0
1040
1fc0
ENDCHAR
STARTCHAR 375a
ENCODING 14170
SWIDTH 960 0
DWIDTH 14 0
BBX 14 14 0 -2
BITMAP
1000
13f0
fd10
10a0
7c40
55e0
7e58
5440
7df0
1040
fe40
1040
13f8
1000
ENDCHAR
STARTCHAR 375b
ENCODING 14171
SWIDTH 960 0
DWIDTH 14 0
BBX 14 14 0 -2
BITMAP
0000
fff8
0440
6880
19f0
3510
53f0
9110
7df0
1110
11f0
1ca0
e110
0608
ENDCHAR
STARTCHAR 375c
ENCODING 14172
SWIDTH 960 0
DWIDTH 14 0
BBX 14 14 0 -2
BITMAP
0440
1880
e5f0
9510
59f0
1110
7df0
11f8
fd00
11f8
28a8
2758
4288
8470
ENDCHAR
STARTCHAR 375d
ENCODING 14173
SWIDTH 960 0
DWIDTH 14 0
BBX 14 14 0 -2
BITMAP
0880
0880
fff8
0880
0880
3fe0
0000
0000
fff8
0480
0440
09e0
7e10
0010
ENDCHAR
STARTCHAR 375e
ENCODING 14174
SWIDTH 960 0
DWIDTH 14 0
BBX 14 14 0 -2
BITMAP
0080
4100
26f0
2490
0490
0490
e490
2490
2790
3ce0
2080
3080
4c80
83f8
ENDCHAR
STARTCHAR 375f
ENCODING 14175
SWIDTH 960 0
DWIDTH 14 0
BBX 14 14 0 -2
BITMAP
1040
1040
3ff8
4800
fdf0
5510
7d10
55f0
7c40
0960
7550
5d48
5248
80c0
ENDCHAR
STARTCHAR 3760
ENCODING 14176
SWIDTH 960 0
DWIDTH 14 0
BBX 14 14 0 -2
BITMAP
0810
0f50
7fd0
4d50
7750
7f50
4d50
7950
4e50
7650
4d50
7510
8410
1830
ENDCHAR
STARTCHAR 3761
ENCODING 14177
SWIDTH 960 0
DWIDTH 14 0
BBX 14 14 0 -2
BITMAP
1080
10a0
fe90
10b8
7fc0
4490
7c90
44a0
7c60
1040
fec0
1128
1218
1008
ENDCHAR
STARTCHAR 3762
ENCODING 14178
SWIDTH 960 0
DWIDTH 14 0
BBX 14 14 0 -2
BITMAP
1000
fee0
7ca8
5518
7ff0
54a0
fe60
1198
1e00
3fe0
0200
fff8
0200
0600
ENDCHAR
STARTCHAR 3763
ENCODING 14179
SWIDTH 960 0
DWIDTH 14 0
BBX 14 14 0 -2
BITMAP
4240
2440
2f40
8940
4ff8
4990
0f50
2450
3fd0
2720
4920
4950
9690
a108
ENDCHAR
STARTCHAR 3764
ENCODING 14180
SWIDTH 960 0
DWIDTH 14 0
BBX 14 14 0 -2
BITMAP
0080
7aa0
4a90
5490
63e0
5220
4be0
4a20
4be0
4aa0
7290
4488
4888
4180
ENDCHAR
STARTCHAR 3765
ENCODING 14181
SWIDTH 960 0
DWIDTH 14 0
BBX 14 14 0 -2
BITMAP
1100
11f0
1200
fc00
1100
39f8
3620
3620
5220
5220
9220
1220
1220
1260
ENDCHAR
STARTCHAR 3766
ENCODING 14182
SWIDTH 960 0
DWIDTH 14 0
BBX 14 14 0 -2
BITMAP
1210
1210
17f8
2550
2b50
62f8
a490
2890
3ff8
21c0
22a0
2490
2888
2080
ENDCHAR
STARTCHAR 3767
ENCODING 14183
SWIDTH 960 0
DWIDTH 14 0
BBX 14 14 0 -2
BITMAP
1000
1000
1000
1000
3ff8
2210
4220
8240
0300
0500
0480
0840
3020
c018
ENDCHAR
STARTCHAR 3768
ENCODING 14184
SWIDTH 960 0
DWIDTH 14 0
BBX 14 14 0 -2
BITMAP
2100
1100
1100
8fe0
4120
4120
0120
3ff8
2180
2240
4240
4420
8810
9008
ENDCHAR
STARTCHAR 3769
ENCODING 14185
SWIDTH 960 0
DWIDTH 14 0
BBX 14 14 0 -2
BITMAP
2200
1ff8
1228
4fa8
2228
23d8
0ca0
1120
1750
10b8
2fc8
22b0
4c88
4080
ENDCHAR
STARTCHAR 376a
ENCODING 14186
SWIDTH 960 0
DWIDTH 14 0
BBX 14 14 0 -2
BITMAP
0200
0200
fff8
8008
8008
0380
0880
0880
0880
1040
1040
2020
4010
8008
ENDCHAR
STARTCHAR 376b
ENCODING 14187
SWIDTH 960 0
DWIDTH 14 0
BBX 14 14 0 -2
BITMAP
1040
1040
1440
e7f8
2840
1840
25f0
fc00
11f0
5910
5510
5510
91f0
1000
ENDCHAR
STARTCHAR 376c
ENCODING 14188
SWIDTH 960 0
DWIDTH 14 0
BBX 14 14 0 -2
BITMAP
0200
0200
0200
0400
3fe0
2520
2520
2520
2520
2520
2520
2520
fff8
0000
ENDCHAR
STARTCHAR 376d
ENCODING 14189
SWIDTH 960 0
DWIDTH 14 0
BBX 14 14 0 -2
BITMAP
0080
7880
0080
fff0
0090
7890
0090
7ff8
0080
7940
4940
4a20
7c10
0808
ENDCHAR
STARTCHAR 376e
ENCODING 14190
SWIDTH 960 0
DWIDTH 14 0
BBX 14 14 0 -2
BITMAP
0000
1fe0
1020
1020
1020
1fe0
1020
1020
1fe0
1020
2020
2020
4020
8060
ENDCHAR
STARTCHAR 376f
ENCODING 14191
SWIDTH 960 0
DWIDTH 14 0
BBX 14 14 0 -2
BITMAP
1080
1280
1280
27f0
2480
6880
a080
2ff8
2080
2080
2080
2080
2080
2080
ENDCHAR
STARTCHAR 3770
ENCODING 14192
SWIDTH 960 0
DWIDTH 14 0
BBX 14 14 0 -2
BITMAP
1100
1100
1280
2440
2fe0
7110
afe0
2920
2fe0
2920
2280
2240
2420
2810
ENDCHAR
STARTCHAR 3771
ENCODING 14193
SWIDTH 960 0
DWIDTH 14 0
BBX 14 14 0 -2
BITMAP
1080
1490
12a0
27f0
2080
6ff8
a140
23e0
2450
2bc8
2240
2210
2210
21f0
ENDCHAR
STARTCHAR 3772
ENCODING 14194
SWIDTH 960 0
DWIDTH 14 0
BBX 14 14 0 -2
BITMAP
1040
11f0
1c50
27f8
2450
69f0
be40
23f0
2a40
2bf8
2440
2640
2980
3078
ENDCHAR
STARTCHAR 3773
ENCODING 14195
SWIDTH 960 0
DWIDTH 14 0
BBX 14 14 0 -2
BITMAP
1040
0880
fff8
0900
7fe0
0920
fff8
0920
7fe0
0980
3960
c918
0900
0900
ENDCHAR
STARTCHAR 3774
ENCODING 14196
SWIDTH 960 0
DWIDTH 14 0
BBX 14 14 0 -2
BITMAP
0200
2220
1240
7ff0
0500
fff8
0880
3060
dfd8
0440
0440
0840
1040
6180
ENDCHAR
STARTCHAR 3775
ENCODING 14197
SWIDTH 960 0
DWIDTH 14 0
BBX 14 14 0 -2
BITMAP
0408
0408
0a48
1148
7fc8
0448
3f48
2548
3f48
2448
0a48
0908
1108
6018
ENDCHAR
STARTCHAR 3776
ENCODING 14198
SWIDTH 960 0
DWIDTH 14 0
BBX 14 14 0 -2
BITMAP
0080
0080
f7f0
9410
97f0
9000
93e0
9220
93e0
9220
f3e0
0000
1ff8
0000
ENDCHAR
STARTCHAR 3777
ENCODING 14199
SWIDTH 960 0
DWIDTH 14 0
BBX 14 14 0 -2
BITMAP
0000
7ff8
4948
5fe8
4488
7ff8
4848
5fa8
6098
4f88
4828
47e8
7ff8
0000
ENDCHAR
STARTCHAR 3778
ENCODING 14200
SWIDTH 960 0
DWIDTH 14 0
BBX 14 14 0 -2
BITMAP
0000
7ff0
4910
7ca0
44a0
7c40
49a0
7e18
4200
3fe0
0200
0200
fff8
0000
ENDCHAR
STARTCHAR 3779
ENCODING 14201
SWIDTH 960 0
DWIDTH 14 0
BBX 14 14 0 -2
BITMAP
2210
2120
27f8
2140
fbf0
4950
4ff8
4950
f3f0
9140
1b60
2d50
c948
0140
ENDCHAR
STARTCHAR 377a
ENCODING 14202
SWIDTH 960 0
DWIDTH 14 0
BBX 14 14 0 -2
BITMAP
0080
0080
f7f0
1090
2ff8
2090
77f0
1080
97f0
5080
2ff8
3080
4c80
83f8
ENDCHAR
STARTCHAR 377b
ENCODING 14203
SWIDTH 960 0
DWIDTH 14 0
BBX 14 14 0 -2
BITMAP
0200
fff8
8208
bfe8
0200
fff8
0000
3fe0
2520
3fe0
4a10
4948
8848
07c0
ENDCHAR
STARTCHAR 377c
ENCODING 14204
SWIDTH 960 0
DWIDTH 14 0
BBX 14 14 0 -2
BITMAP
3c30
a5c0
bc50
a5a0
bc50
a7f8
fcc8
5550
5248
9240
0900
4910
4848
87c8
ENDCHAR
STARTCHAR 377d
ENCODING 14205
SWIDTH 960 0
DWIDTH 14 0
BBX 14 14 0 -2
BITMAP
2220
1240
3fe0
0500
fff8
1040
3fb0
c208
3fe0
0200
7ff0
0200
0200
0600
ENDCHAR
STARTCHAR 377e
ENCODING 14206
SWIDTH 960 0
DWIDTH 14 0
BBX 14 14 0 -2
BITMAP
2080
2490
22a0
fff0
2140
2ff8
2220
27d0
3848
e3c0
2200
2210
2210
61f0
ENDCHAR
STARTCHAR 3821
ENCODING 14369
SWIDTH 960 0
DWIDTH 14 0
BBX 14 14 0 -2
BITMAP
1080
1080
1140
fe20
17f0
3088
3bf0
3690
5290
53f0
90c0
1120
1610
1808
ENDCHAR
STARTCHAR 3822
ENCODING 14370
SWIDTH 960 0
DWIDTH 14 0
BBX 14 14 0 -2
BITMAP
2100
2100
23f0
fc80
27f8
6120
73f8
6e40
abf0
a240
23f0
2240
23f8
2000
ENDCHAR
STARTCHAR 3823
ENCODING 14371
SWIDTH 960 0
DWIDTH 14 0
BBX 14 14 0 -2
BITMAP
0200
0200
7ff0
0d80
0600
fff8
8888
bfc8
1220
1fc0
2200
fff8
0200
0200
ENDCHAR
STARTCHAR 3824
ENCODING 14372
SWIDTH 960 0
DWIDTH 14 0
BBX 14 14 0 -2
BITMAP
0200
0240
0220
0220
fff8
0200
0600
0500
0500
0880
0880
1040
2020
c018
ENDCHAR
STARTCHAR 3825
ENCODING 14373
SWIDTH 960 0
DWIDTH 14 0
BBX 14 14 0 -2
BITMAP
0840
0850
ff48
0848
7ff8
6640
5a40
7e60
4aa0
7ea0
4a90
4b10
4b08
4608
ENDCHAR
STARTCHAR 3826
ENCODING 14374
SWIDTH 960 0
DWIDTH 14 0
BBX 14 14 0 -2
BITMAP
0000
7ff0
1120
1120
1120
2120
3ff8
6520
a520
2520
2520
3e20
0220
0420
ENDCHAR
STARTCHAR 3827
ENCODING 14375
SWIDTH 960 0
DWIDTH 14 0
BBX 14 14 0 -2
BITMAP
0000
fff0
2210
2210
23f0
2210
7bf0
4a10
cbf0
4940
4940
7a48
0448
0838
ENDCHAR
STARTCHAR 3828
ENCODING 14376
SWIDTH 960 0
DWIDTH 14 0
BBX 14 14 0 -2
BITMAP
0800
08f8
0a88
7288
14f8
0c00
12f8
7e88
08f8
2c88
2af8
2a88
4888
0898
ENDCHAR
STARTCHAR 3829
ENCODING 14377
SWIDTH 960 0
DWIDTH 14 0
BBX 14 14 0 -2
BITMAP
0000
0fe0
4820
4fe0
4820
4fe0
4820
4fe0
4000
7ff8
4ac0
3230
c208
0200
ENDCHAR
ENDFONT
